<svg id="Capa_1" data-name="Capa 1" xmlns="http://www.w3.org/2000/svg" viewBox="0 0 50 50"><defs><style>.cls-1{fill:#0095c6;}</style></defs><path class="cls-1" d="M24.58,5.59a8.28,8.28,0,1,1-8.28,8.27,8.28,8.28,0,0,1,8.28-8.27m0-2A10.28,10.28,0,1,0,34.85,13.86,10.27,10.27,0,0,0,24.58,3.59Z"/><path class="cls-1" d="M41.7,43.89c0,2-1.45,2.52-3.75,2.52-3.35,0-8.5-1.22-13.61-1.24h-.16c-5,0-9.94,1.18-13.15,1.18-2.2,0-3.58-.56-3.58-2.46A17.13,17.13,0,0,1,24.58,26.76a16.72,16.72,0,0,1,4,.49,3.78,3.78,0,0,0-2.24,1.07,15,15,0,0,0-1.79-.11A15.7,15.7,0,0,0,8.9,43.89c0,.5,0,1,2.13,1a41.37,41.37,0,0,0,5-.48,62.21,62.21,0,0,1,8.18-.7h.16a64.72,64.72,0,0,1,8.33.73A43.39,43.39,0,0,0,38,45c2.3,0,2.3-.57,2.3-1.07a15.55,15.55,0,0,0-1.64-7s0-.07,0-.11V34.76h.44A17,17,0,0,1,41.7,43.89Z"/><path class="cls-1" d="M40.67,30H35.88V25.17a1,1,0,0,0-2.06,0V30H29A1,1,0,1,0,29,32h4.79v4.79a1,1,0,0,0,2.06,0V32h4.79a1,1,0,1,0,0-2.06Z"/></svg>