<?xml version="1.0" encoding="utf-8"?>
<!-- Generator: Adobe Illustrator 25.4.1, SVG Export Plug-In . SVG Version: 6.00 Build 0)  -->
<svg version="1.1" id="Capa_1" xmlns="http://www.w3.org/2000/svg" xmlns:xlink="http://www.w3.org/1999/xlink" x="0px" y="0px"
	 viewBox="0 0 30 30" style="enable-background:new 0 0 30 30;" xml:space="preserve">
<style type="text/css">
	.st0{fill:#F1E232;}
</style>
<g>
	<path class="st0" d="M15,4.7c0.7,0,1.4,0.1,2.1,0.3c0.3-0.7,0.2-1.5-0.2-2.1C16.4,2.3,15.7,2,15,2s-1.4,0.4-1.8,1
		c-0.4,0.6-0.5,1.3-0.3,2C13.6,4.8,14.3,4.7,15,4.7z"/>
	<path class="st0" d="M24.4,22.3c0-0.4-0.1-0.9-0.3-1.3c-0.3-0.9-0.8-1.6-1.2-2.3l-0.7-1.3c-0.3-0.5-0.4-1-0.5-1.5
		c0-0.2,0-0.4-0.1-0.6c0-0.1,0-0.3,0-0.4c0-0.4,0-0.7-0.1-1.1c0-0.3,0-0.7,0-1c0-2.3-1.2-4.6-3.2-6c-1-0.8-2.2-1.2-3.4-1.2
		c-0.3,0-0.7,0-1.1,0.1c-3,0.8-5.1,3.3-5.4,6.2l0,0.1c0,0.3,0,0.7-0.1,1c0,0.3,0,0.7,0,1c0,0.3,0,0.5,0,0.8c0,0.3-0.1,0.6-0.1,0.9
		c0,0.3-0.1,0.6-0.2,0.9l-1.2,2.3l-0.4,0.6c-0.5,0.7-0.8,1.6-1.1,2.4l0,0.2c-0.1,0.5,0,1,0.3,1.4c0.3,0.4,0.7,0.7,1.2,0.8l2,0.6
		c1.2,0.3,2.2,0.5,3.3,0.7V27l0,0.2c0.2,0.9,0.9,1.6,1.9,1.8l0.6,0c0.6,0,1.3-0.3,1.8-0.7c0.7-0.6,0.9-1.6,0.5-2.4l-0.1-0.3
		c2.2-0.2,4.2-0.7,6.2-1.4C24,23.9,24.5,23.1,24.4,22.3z M15.9,23.7h-1.1c-1.7,0-3.4-0.2-5.3-0.8l-1.6-0.5l-0.5-0.1
		c0.2-0.6,0.5-1.3,0.8-1.7l1.7-3.2c0.3-0.5,0.4-1.2,0.4-1.7c0-0.3,0-0.5,0-0.8c0-0.3,0.1-0.6,0.1-0.9c0-0.3,0-0.6,0-0.8
		c0-0.4,0.1-0.7,0.1-1.1c0.3-2.1,1.8-3.9,4-4.5c0.1,0,0.2,0,0.5,0c0.7,0,1.5,0.3,2.2,0.8c1.5,1.1,2.4,2.7,2.4,4.4
		c0,0.4,0,0.7,0.1,1.1c0,0.3,0,0.7,0,1c0,0.3,0,0.5,0.1,0.7c0,0.1,0,0.3,0,0.4l0,0.1c0.1,0.8,0.3,1.5,0.7,2.2l0.7,1.3
		c0.4,0.7,0.8,1.3,1,2c0.1,0.2,0.1,0.5,0.1,0.7C20.3,23,18.1,23.5,15.9,23.7z"/>
</g>
</svg>
