<?xml version="1.0" encoding="utf-8"?>
<!-- Generator: Adobe Illustrator 25.4.1, SVG Export Plug-In . SVG Version: 6.00 Build 0)  -->
<svg version="1.1" id="Capa_1" xmlns="http://www.w3.org/2000/svg" xmlns:xlink="http://www.w3.org/1999/xlink" x="0px" y="0px"
	 viewBox="0 0 30 30" style="enable-background:new 0 0 30 30;" xml:space="preserve">
<style type="text/css">
	.st0{fill:#0095C6;}
</style>
<path class="st0" d="M24.6,14.7V26H5.4V14.7H24.6 M25,12.7H5c-0.9,0-1.6,0.7-1.6,1.6v12.2C3.4,27.3,4.1,28,5,28h20
	c0.9,0,1.6-0.7,1.6-1.6V14.2C26.6,13.4,25.9,12.7,25,12.7L25,12.7z"/>
<path class="st0" d="M24.9,8.1v1H5.2v-1H6h2h1.5h11.4h1.5h2H24.9 M8.3,2H7.1C6.5,2,6,2.5,6,3.1v3H4.8c-0.9,0-1.6,0.7-1.6,1.6v1.8
	c0,0.9,0.7,1.6,1.6,1.6h20.5c0.9,0,1.6-0.7,1.6-1.6V7.7c0-0.9-0.7-1.6-1.6-1.6h-1v-3c0-0.6-0.5-1.1-1.1-1.1h-1.2
	c-0.6,0-1.1,0.5-1.1,1.1v3H9.4v-3C9.4,2.5,8.9,2,8.3,2L8.3,2z"/>
<path class="st0" d="M9.2,16c0.8,0,1.4,0.6,1.4,1.4s-0.6,1.4-1.4,1.4s-1.4-0.6-1.4-1.4C7.8,16.6,8.5,16,9.2,16z"/>
<path class="st0" d="M9.4,24.5c-0.8,0-1.4-0.6-1.4-1.4s0.6-1.4,1.4-1.4s1.4,0.6,1.4,1.4C10.9,23.8,10.2,24.5,9.4,24.5
	C9.5,24.5,9.4,24.5,9.4,24.5L9.4,24.5z"/>
<path class="st0" d="M15.1,16c-0.8,0-1.4,0.6-1.4,1.4s0.6,1.4,1.4,1.4s1.4-0.6,1.4-1.4S15.9,16,15.1,16L15.1,16z"/>
<path class="st0" d="M15.3,24.5c-0.8,0-1.4-0.6-1.4-1.4s0.6-1.4,1.4-1.4s1.4,0.6,1.4,1.4C16.7,23.9,16.1,24.5,15.3,24.5
	C15.3,24.5,15.3,24.5,15.3,24.5L15.3,24.5z"/>
<path class="st0" d="M20.9,15.8c0.9,0,1.6,0.7,1.6,1.6S21.8,19,20.9,19s-1.6-0.7-1.6-1.6S20.1,15.8,20.9,15.8 M20.9,14.8
	c-1.4,0-2.6,1.2-2.6,2.6s1.2,2.6,2.6,2.6s2.6-1.2,2.6-2.6S22.4,14.8,20.9,14.8L20.9,14.8z"/>
<path class="st0" d="M21.1,24.5c-0.8,0-1.4-0.6-1.4-1.4s0.6-1.4,1.4-1.4s1.4,0.6,1.4,1.4C22.6,23.9,21.9,24.5,21.1,24.5
	C21.1,24.5,21.1,24.5,21.1,24.5L21.1,24.5z"/>
</svg>
