<svg id="Capa_1" data-name="Capa 1" xmlns="http://www.w3.org/2000/svg" viewBox="0 0 50 50"><defs><style>.cls-1{fill:#fff;}</style></defs><path class="cls-1" d="M31.66,34.57v0h3.79v0Zm0-15.57h0ZM27.49,34.58ZM18.25,19h0Zm2,15.58Zm-5.3,0h3.3v0H15Z"/><path class="cls-1" d="M39.92,24.06V21.57l-2.49-5L31.66,19h0V14.77l-.34-.14a17.06,17.06,0,0,0-12.72,0l-.35.14V19h0l-5.68-2.4-2.29,5v2.5H5.11V36.6H44.89V24.06ZM10.28,34.6H7.11V26.07h3.17Zm10-18.45a15.13,15.13,0,0,1,9.41,0V18.3a17.1,17.1,0,0,0-4.7-.66,17.5,17.5,0,0,0-4.71.66Zm0,4.74A17.49,17.49,0,0,1,25,20.24a17.09,17.09,0,0,1,4.7.65v3.17H20.25Zm0,5.18h9.41v8.52H27.49v-8h-5v8H20.25Zm5.24,2.47v6h-1v-6ZM13,34.58h-.67V22L13,20.56Zm2-14.81,2.52,1.08a2.08,2.08,0,0,0,.78.15V34.6H15ZM31.66,36.58h0Zm3.79-2H31.66V21a2,2,0,0,0,.77-.15l3-1.27Zm2.47,0h-.47V21.1l.47.94Zm5,0h-3V26.06h3Z"/></svg>