<?xml version="1.0" encoding="utf-8"?>
<!-- Generator: Adobe Illustrator 25.4.1, SVG Export Plug-In . SVG Version: 6.00 Build 0)  -->
<svg version="1.1" id="Capa_1" xmlns="http://www.w3.org/2000/svg" xmlns:xlink="http://www.w3.org/1999/xlink" x="0px" y="0px"
	 viewBox="0 0 50 50" style="enable-background:new 0 0 50 50;" xml:space="preserve">
<style type="text/css">
	.st0{fill:#F1E323;}
</style>
<g>
	<path class="st0" d="M36.45,22.38c0-6.47-5.37-11.69-11.9-11.44c-6.06,0.23-11,5.38-11,11.45c0,3.6,1.67,6.8,4.28,8.9
		c1.29,1.04,2.11,2.55,2.11,4.2v2.84h10.13v-2.68c0-1.65,0.69-3.26,1.99-4.27C34.73,29.29,36.45,26.04,36.45,22.38z"/>
</g>
<g>
	<path class="st0" d="M28.89,42.37h-7.78c-0.61,0-1.11-0.5-1.11-1.11v0c0-0.61,0.5-1.11,1.11-1.11h7.78c0.61,0,1.11,0.5,1.11,1.11v0
		C30,41.87,29.5,42.37,28.89,42.37z"/>
</g>
<g>
	<path class="st0" d="M28.89,46.67h-7.78c-0.61,0-1.11-0.5-1.11-1.11v-0.4c0-0.61,0.5-1.11,1.11-1.11h7.78
		c0.61,0,1.11,0.5,1.11,1.11v0.4C30,46.17,29.5,46.67,28.89,46.67z"/>
</g>
<g>
	<path class="st0" d="M9.33,23.11H4.4c-0.55,0-1-0.45-1-1s0.45-1,1-1h4.93c0.55,0,1,0.45,1,1S9.89,23.11,9.33,23.11z"/>
</g>
<g>
	<path class="st0" d="M45.8,23.11h-5.33c-0.55,0-1-0.45-1-1s0.45-1,1-1h5.33c0.55,0,1,0.45,1,1S46.36,23.11,45.8,23.11z"/>
</g>
<g>
	<path class="st0" d="M13.95,11.96c-0.26,0-0.51-0.1-0.71-0.29L9.76,8.18c-0.39-0.39-0.39-1.02,0-1.41s1.02-0.39,1.41,0l3.49,3.49
		c0.39,0.39,0.39,1.02,0,1.41C14.46,11.86,14.21,11.96,13.95,11.96z"/>
</g>
<g>
	<path class="st0" d="M39.74,37.75c-0.26,0-0.51-0.1-0.71-0.29l-3.77-3.77c-0.39-0.39-0.39-1.02,0-1.41s1.02-0.39,1.41,0l3.77,3.77
		c0.39,0.39,0.39,1.02,0,1.41C40.25,37.65,40,37.75,39.74,37.75z"/>
</g>
<g>
	<path class="st0" d="M10.46,37.75c-0.26,0-0.51-0.1-0.71-0.29c-0.39-0.39-0.39-1.02,0-1.41l3.49-3.49c0.39-0.39,1.02-0.39,1.41,0
		s0.39,1.02,0,1.41l-3.49,3.49C10.98,37.65,10.72,37.75,10.46,37.75z"/>
</g>
<g>
	<path class="st0" d="M35.97,12.25c-0.26,0-0.51-0.1-0.71-0.29c-0.39-0.39-0.39-1.02,0-1.41l3.77-3.77c0.39-0.39,1.02-0.39,1.41,0
		s0.39,1.02,0,1.41l-3.77,3.77C36.48,12.15,36.22,12.25,35.97,12.25z"/>
</g>
<g>
	<path class="st0" d="M25.1,7.75c-0.55,0-1-0.45-1-1V4.33c0-0.55,0.45-1,1-1s1,0.45,1,1v2.41C26.1,7.3,25.65,7.75,25.1,7.75z"/>
</g>
</svg>
