<svg id="Capa_1" data-name="Capa 1" xmlns="http://www.w3.org/2000/svg" viewBox="0 0 50 50"><defs><style>.cls-1{fill:#ebd40c;}</style></defs><path class="cls-1" d="M31.66,41.49v0h3.79v0Zm0-15.57h0ZM27.49,41.5h0ZM18.25,25.92h0Zm2,15.58h0Zm-5.3,0h0Z"/><path class="cls-1" d="M39.92,31V28.49l-2.49-5-5.77,2.4h0V21.69l-.34-.14a17.19,17.19,0,0,0-12.72,0l-.35.14v4.23h0l-5.68-2.4-2.29,5V31H5.11V43.52H44.89V31ZM10.28,41.52H7.11V33h3.17Zm10-18.44a15.13,15.13,0,0,1,9.41,0v2.14a17.09,17.09,0,0,0-4.7-.65,17.49,17.49,0,0,0-4.71.65Zm0,4.73A17.49,17.49,0,0,1,25,27.16a17.09,17.09,0,0,1,4.7.65V31H20.25Zm0,5.18h9.41v8.53H27.49v-8h-5v8H20.25Zm5.24,2.47v6h-1v-6ZM13,41.51h-.67V28.93L13,27.48ZM15,26.7l2.52,1.07a2.08,2.08,0,0,0,.78.15v13.6H15ZM31.66,43.51h0Zm3.79-2H31.66V27.92a2,2,0,0,0,.77-.15l3-1.26Zm2.47,0h-.47V28l.47.94Zm5,0h-3V33h3Z"/><path class="cls-1" d="M31.64,25.92h0Zm-13.39,0h0Z"/><path class="cls-1" d="M18.25,43.5h0Z"/><path class="cls-1" d="M31.74,6.88l-.9-.4-2.2,6.12c-.73-.53-1.58-1.11-2.56-1.75-3.19-2.08-4.56-3.24-5.66-3.24a1.85,1.85,0,0,0-1.18.49c-.66.54.16,2,1.67,3.75-.66.55-3.36,2.08-14.39,4.49a0,0,0,0,1,0,0c-.08,0-.37-.16-1.39-1.57a4.61,4.61,0,0,0,1.5,2.38l11.82-1.79a27.87,27.87,0,0,1,4.3-.42,9.39,9.39,0,0,1,1.56.11,11,11,0,0,0,1.22.79l-4.85,1.39.49.6,6.67-1a9.67,9.67,0,0,0,2.88.51c.66,0,1.12-.12,1.27-.32.39-.51.21-1.23-.78-2.29Z"/><path class="cls-1" d="M44.79,8.59h0l-.09,0-.06,0a.24.24,0,0,0-.09.06l-.07,0-.1.09-.08.07-.11.12-.09.08-.14.15-.18.18-.1.1a2.72,2.72,0,0,1-.24.24,2.19,2.19,0,0,1-1.18.7l-10.46.91-.12,1.78L43.43,11c.17-.24.34-.51.51-.77.51-.81,1-1.64,1-1.64l-.09,0Z"/><path class="cls-1" d="M28.66,11.55l-.9,0,.71.5Z"/><path class="cls-1" d="M31.54,14.62v0a3.88,3.88,0,0,1,.92,1.5h0L42,14.2l-.85-.5Z"/></svg>