<?xml version="1.0" encoding="utf-8"?>
<!-- Generator: Adobe Illustrator 25.4.1, SVG Export Plug-In . SVG Version: 6.00 Build 0)  -->
<svg version="1.1" id="Capa_1" xmlns="http://www.w3.org/2000/svg" xmlns:xlink="http://www.w3.org/1999/xlink" x="0px" y="0px"
	 viewBox="0 0 30 30" style="enable-background:new 0 0 30 30;" xml:space="preserve">
<style type="text/css">
	.st0{fill:#0095C6;}
</style>
<g id="Capa_3">
	<path class="st0" d="M20,6.1c3.2,0,5.9,2.6,5.9,5.9s-2.6,5.9-5.9,5.9h-5.7h-1.9l-0.1,1.9l-0.1,1.9l-4.6-4.2l-0.2-0.2l-0.2-0.1
		c-1.9-1-3-3-3-5.1c0-1.6,0.6-3,1.7-4.2C6.9,6.7,8.4,6.1,10,6.1H20 M20,4.1H10c-4.4,0-7.9,3.6-7.8,7.9c0,2.8,1.6,5.5,4,6.8l7.7,7
		l0.4-6H20c4.4,0,7.9-3.5,7.9-7.9C27.9,7.6,24.3,4.1,20,4.1L20,4.1z"/>
</g>
</svg>
