<?xml version="1.0" encoding="utf-8"?>
<!-- Generator: Adobe Illustrator 25.4.1, SVG Export Plug-In . SVG Version: 6.00 Build 0)  -->
<svg version="1.1" id="Capa_1" xmlns="http://www.w3.org/2000/svg" xmlns:xlink="http://www.w3.org/1999/xlink" x="0px" y="0px"
	 viewBox="0 0 30 30" style="enable-background:new 0 0 30 30;" xml:space="preserve">
<style type="text/css">
	.st0{fill:#0095C6;}
</style>
<g>
	<polygon class="st0" points="15,5.5 15,5.5 15,5.5 	"/>
	<path class="st0" d="M15,5.5c6.2,0,11.2,5,11.2,11.2c0,0,0,0.1,0,0.1C26.2,23,21.2,28,15,28c0,0,0,0,0,0C8.8,28,3.8,23,3.8,16.8
		C3.8,10.6,8.8,5.6,15,5.5C15,5.5,15,5.5,15,5.5C15,5.5,15,5.5,15,5.5 M15,7.5c-2.5,0-4.8,1-6.5,2.7c-1.7,1.7-2.7,4.1-2.7,6.5
		c0,5.1,4.2,9.2,9.2,9.2c5.1,0,9.2-4.1,9.2-9.2l0-0.1C24.2,11.7,20.1,7.5,15,7.5L15,7.5z"/>
	<path class="st0" d="M13,5.1h2h2c0.3,0,0.5-0.1,0.5-0.5c0-0.7,0-1.4,0-2.2c0,0,0-0.1,0-0.1c0-0.2-0.2-0.3-0.4-0.3c0,0,0,0-0.1,0H13
		c-0.3,0-0.4,0.2-0.4,0.5v2.2C12.5,5,12.7,5.1,13,5.1z"/>
	<path class="st0" d="M23.4,8.4c0.7,0.7,1,1,1.3,1C25,9.4,25.3,9,26,8.2c0,0,0.1,0,0.1-0.1c0.1-0.2,0.1-0.4-0.1-0.6l-2.1-2.1
		c-0.1-0.1-0.2-0.1-0.3-0.2c-0.1,0-0.1,0.1-0.2,0.1c-0.4,0.4-0.8,0.8-1.2,1.2c-0.1,0.2,0,0.3,0,0.5C22.6,7.6,23,8,23.4,8.4z"/>
	<path class="st0" d="M14.4,9.4c-0.5,0-0.9,0.3-1,0.8c0,0.1,0,0.2,0,0.3c0,2.8,0,5.7,0,8.5c0,0.1,0,0.3,0,0.4h0l0.5-0.2l3.9-1.8
		c0.5-0.2,1-0.5,1.5-0.7c0.5-0.3,0.7-0.8,0.4-1.3c-0.2-0.3-0.5-0.6-0.9-0.6c-0.1,0-0.2,0-0.4,0.1c-0.3,0.1-0.6,0.3-0.9,0.4l-2.3,1
		v-5.7c0-0.7-0.3-1-0.8-1.1C14.6,9.4,14.5,9.4,14.4,9.4z"/>
</g>
</svg>
