<svg id="Capa_1" data-name="Capa 1" xmlns="http://www.w3.org/2000/svg" viewBox="0 0 50 50"><defs><style>.cls-1{fill:#fff;}</style></defs><path class="cls-1" d="M22.45,20.29v1.95H21.07V20.29h1.38m1-2H20.07a1,1,0,0,0-1,1v3.95a1,1,0,0,0,1,1h3.38a1,1,0,0,0,1-1V19.29a1,1,0,0,0-1-1Z"/><path class="cls-1" d="M15.43,20.29v1.95h-.85l.76-1.95h.09m1-2H14.65a1,1,0,0,0-.93.64l-1.67,4.31a1,1,0,0,0,1,1h3.38a1,1,0,0,0,1-1V19.29a1,1,0,0,0-1-1Z"/><path class="cls-1" d="M29.46,20.29v1.95H28.09V20.29h1.37m1-2H27.09a1,1,0,0,0-1,1v3.95a1,1,0,0,0,1,1h3.37a1,1,0,0,0,1-1V19.29a1,1,0,0,0-1-1Z"/><path class="cls-1" d="M36.48,20.29v1.95H35.1V20.29h1.38m1-2H34.1a1,1,0,0,0-1,1v3.95a1,1,0,0,0,1,1h3.38a1,1,0,0,0,1-1V19.29a1,1,0,0,0-1-1Z"/><path class="cls-1" d="M15.21,32a.5.5,0,0,1,.5.5.5.5,0,0,1-.5.5.51.51,0,0,1-.5-.5.5.5,0,0,1,.5-.5m0-2a2.5,2.5,0,1,0,2.5,2.5,2.5,2.5,0,0,0-2.5-2.5Z"/><path class="cls-1" d="M39.36,17l.09,0,.13,0a.34.34,0,0,1,.14.15l0,.05,0,.06v11h.95v3.06h-5.1a5.5,5.5,0,0,0-10.81,0H20.62a5.5,5.5,0,0,0-10.81,0H9.28V28.38h1v-4l.18-.35,0-.09,0-.07,3.28-6.58a.38.38,0,0,1,.35-.22H39.36m0-2H14.11A2.36,2.36,0,0,0,12,16.35L8.65,23l0,0-.4.78v2.54h-1v7.06h4.59a3.12,3.12,0,0,1-.15-1,3.5,3.5,0,1,1,7,0,3.13,3.13,0,0,1-.16,1h8.31a3.12,3.12,0,0,1-.15-1,3.5,3.5,0,0,1,7,0,3.46,3.46,0,0,1-.16,1h9.16V26.38h-.95v-9a2.17,2.17,0,0,0-.2-.92,2.27,2.27,0,0,0-1.63-1.39h0a1.88,1.88,0,0,0-.53-.07Z"/><path class="cls-1" d="M30.21,32a.5.5,0,0,1,.5.5.5.5,0,0,1-.5.5.51.51,0,0,1-.5-.5.5.5,0,0,1,.5-.5m0-2a2.5,2.5,0,1,0,2.5,2.5,2.5,2.5,0,0,0-2.5-2.5Z"/></svg>