<?xml version="1.0" encoding="utf-8"?>
<!-- Generator: Adobe Illustrator 25.4.1, SVG Export Plug-In . SVG Version: 6.00 Build 0)  -->
<svg version="1.1" id="Capa_1" xmlns="http://www.w3.org/2000/svg" xmlns:xlink="http://www.w3.org/1999/xlink" x="0px" y="0px"
	 viewBox="0 0 30 30" style="enable-background:new 0 0 30 30;" xml:space="preserve">
<style type="text/css">
	.st0{fill:#0095C6;}
</style>
<g id="Capa_3_00000114782345270063824970000004933089812143349666_">
	<path class="st0" d="M21.1,10.6c0,0.3,0,0.5-0.1,0.8c-0.4,4.8-0.9,9.6-1.3,14.4l0,0.1l0,0.1l0,0h0H11l0,0l0,0l0-0.1l0-0.1L9.5,10.6
		L21.1,10.6 M23.3,8.6l-15.9,0c0,0.4,0,0.8,0,1.2c0.5,5.4,1,10.8,1.5,16.2c0,0,0,0,0,0.1c0,1.1,0.9,1.9,2,1.9c0,0,0,0,0.1,0
		c2.9,0,5.8,0,8.6,0c0,0,0,0,0.1,0c0,0,0,0,0,0c1.1,0,2-0.9,2-2c0.5-4.8,0.9-9.6,1.3-14.4C23.1,10.6,23.2,9.6,23.3,8.6L23.3,8.6z"/>
	<path class="st0" d="M15.4,2h-0.9c-1.5,0-2.1,0.4-2.3,2.1h0H7.9c-0.6,0-1,0.2-1.1,0.8c0,0.5,0,1,0,1.5h16.5c0-0.3,0-0.6,0-0.9
		c0-1.1-0.3-1.4-1.3-1.4h-4.2C17.5,2.4,17.1,2,15.4,2L15.4,2z M15,3.1c0.2,0,0.4,0,0.6,0c0.1,0,0.1,0,0.2,0c0.6,0,0.8,0.3,0.6,1
		h-2.8c-0.2-0.7,0-1,0.8-1C14.6,3.1,14.8,3.1,15,3.1L15,3.1z"/>
</g>
<path class="st0" d="M18.9,12.1c-0.5,0-0.7,0.3-0.7,0.7l-0.8,10.2c0,0.3,0,0.6-0.1,0.8c0,0.3,0.1,0.6,0.6,0.6c0,0,0.1,0,0.1,0
	c0.3-0.1,0.6-0.3,0.7-0.6c0.3-3.7,0.6-7.3,0.9-11C19.6,12.5,19.6,12.1,18.9,12.1C19,12.1,18.9,12.1,18.9,12.1L18.9,12.1z"/>
<path class="st0" d="M11.8,12.1c-0.1,0-0.1,0-0.2,0c-0.3,0.1-0.5,0.3-0.6,0.6c0,0.6,0,1.2,0.1,1.8l0.7,9.1c0,0.4,0.1,0.7,0.7,0.7
	s0.7-0.4,0.7-0.8c-0.1-1.1-0.1-2.1-0.2-3.2c-0.2-2.6-0.4-5.2-0.6-7.8C12.4,12.4,12.2,12.1,11.8,12.1L11.8,12.1z"/>
<path class="st0" d="M15.3,12.1C15.3,12.1,15.3,12.1,15.3,12.1c-0.7,0-0.7,0.4-0.7,0.8v10.8c0,0.4,0,0.8,0.7,0.8
	c0.7,0,0.7-0.4,0.7-0.8c0-1.8,0-3.6,0-5.4c0-1.8,0-3.6,0-5.4C16,12.5,16,12.1,15.3,12.1L15.3,12.1z"/>
</svg>
