<?xml version="1.0" encoding="utf-8"?>
<!-- Generator: Adobe Illustrator 25.4.1, SVG Export Plug-In . SVG Version: 6.00 Build 0)  -->
<svg version="1.1" id="Capa_1" xmlns="http://www.w3.org/2000/svg" xmlns:xlink="http://www.w3.org/1999/xlink" x="0px" y="0px"
	 viewBox="0 0 30 30" style="enable-background:new 0 0 30 30;" xml:space="preserve" fill='#FCB23B'>
<path d="M18,26.2C18,26.2,18,26.2,18,26.2c-0.5,0-1.1,0-1.6,0c-0.5,0-1,0-1.5,0c-0.1,0-0.1,0-0.2,0c-0.3,0-0.3,0-0.4,0.4
	c-0.1,0.3-0.1,0.7,0,1c0.2,0.8,0.7,1.3,1.6,1.5c0.2,0,0.4,0.1,0.5,0.1c0.6,0,1.1-0.2,1.6-0.7c0.6-0.6,0.7-1.3,0.3-2.1
	C18.2,26.3,18.2,26.2,18,26.2L18,26.2z"/>
<path d="M14.7,4C14.7,4,14.7,4,14.7,4c0.6,0,1.1,0,1.6,0c0.5,0,1,0,1.5,0C17.9,4,18,4,18,4c0.3,0,0.3,0,0.4-0.4c0.1-0.3,0.1-0.7,0-1
	c-0.2-0.8-0.7-1.3-1.6-1.5c-0.2,0-0.4-0.1-0.5-0.1c-0.6,0-1.1,0.2-1.6,0.7c-0.6,0.6-0.7,1.3-0.3,2.1C14.5,4,14.6,4,14.7,4L14.7,4z"
	/>
<path d="M16.7,5c-0.3,0-0.7,0-1,0.1c-2.9,0.6-5.5,3.5-5.8,6.6c-0.1,1.4-0.2,2.7-0.3,4.1c0,0.4-0.1,0.9-0.2,1.2
	c-0.5,1.1-1.1,2.1-1.6,3.2c-0.4,0.9-0.9,1.7-1.1,2.7c-0.1,1,0.3,1.7,1.2,2c0.8,0.2,15.2,0.8,17.8,0c0.8-0.2,1.2-0.9,1.1-1.6
	c0-0.5-0.1-1-0.3-1.4c-0.6-1.3-1.3-2.6-2-3.9c-0.3-0.6-0.6-1.2-0.6-1.8c-0.1-1.2-0.2-2.3-0.2-3.5c-0.1-2.6-1.2-4.8-3.4-6.3
	C19.1,5.5,17.9,5,16.7,5L16.7,5z"/>
<path d="M4.2,7.1c0.9-2.1,2.7-3.9,5.1-5c0.3-0.1,0.5-0.1,0.8,0c0.2,0.2,0.2,0.3,0.2,0.6C10.2,2.9,10,3,9.8,3.1
	C8.2,3.8,6.9,4.9,6,6.3c-1.7,2.6-2,5.3-0.9,8.2c0.1,0.2,0.1,0.4,0,0.6c-0.1,0.2-0.3,0.3-0.5,0.3c-0.3,0-0.4-0.1-0.5-0.4
	c-0.2-0.5-0.4-1-0.5-1.6C3.1,11.4,3.2,9.4,4.2,7.1z"/>
<path d="M6.5,8.4c0.7-1.6,1.8-2.8,3.3-3.5c0.1,0,0.2-0.1,0.3-0.1c0.3-0.1,0.6,0,0.8,0.3c0.1,0.3,0,0.6-0.3,0.8
	c-0.3,0.2-0.7,0.3-1,0.6c-2.1,1.5-2.9,4.1-2,6.5c0.2,0.4,0,0.7-0.3,0.9c-0.3,0.1-0.7,0-0.8-0.4C5.8,11.8,5.9,10.1,6.5,8.4z"/>
</svg>
