<?xml version="1.0" encoding="utf-8"?>
<!-- Generator: Adobe Illustrator 25.4.1, SVG Export Plug-In . SVG Version: 6.00 Build 0)  -->
<svg version="1.1" id="Capa_1" xmlns="http://www.w3.org/2000/svg" xmlns:xlink="http://www.w3.org/1999/xlink" x="0px" y="0px"
	 viewBox="0 0 50 50" style="enable-background:new 0 0 50 50;" xml:space="preserve">
<style type="text/css">
	.st0{fill:#F1E323;}
</style>
<path class="st0" d="M25,5.6c3.9,0,7.2,3.2,7.2,7.2v11.8H18V12.8C17.8,8.8,21,5.7,25,5.6 M25,3c-5,0-9,4-9,9v13h18V12
	C34,7,30,3,25,3z"/>
<g>
	<path class="st0" d="M36.1,25.6c0.1,0,0.2,0.1,0.2,0.2v17.9c0,0.1-0.1,0.2-0.2,0.2H13.9c-0.1,0-0.2-0.1-0.2-0.2V25.8
		c0-0.1,0.1-0.2,0.2-0.2L36.1,25.6 M35.4,23.8H14.6c-1.4,0-2.6,1.2-2.6,2.6v16.9c0,1.4,1.2,2.6,2.6,2.6h20.7c1.4,0,2.6-1.2,2.6-2.6
		V26.4C38,25,36.8,23.8,35.4,23.8L35.4,23.8z"/>
</g>
<g>
	<g>
		<path class="st0" d="M25.1,29.1c0.9,0,1.7,0.8,1.7,1.8v1.2c0,0.6-0.4,1.2-0.7,1.5l-0.5,0.5l-0.1,0.7l-0.5,4.5l-0.5-4.5L24.5,34
			l-0.6-0.5c-0.4-0.3-0.6-0.9-0.6-1.4v-1.2C23.3,29.9,24.1,29.1,25.1,29.1 M25.1,27.1c-2.1,0-3.8,1.7-3.8,3.8v1.2
			c0,1.1,0.5,2.2,1.3,2.9l0.6,5.8c0.2,1,0.9,1.6,1.7,1.7c0.1,0,0.1,0,0.2,0c0.9,0,1.8-0.8,1.8-1.7l0.6-5.8c0.8-0.8,1.3-1.8,1.3-2.9
			v-1.2C28.8,28.8,27.1,27.1,25.1,27.1L25.1,27.1z"/>
	</g>
</g>
</svg>
