<svg id="Capa_1" data-name="Capa 1" xmlns="http://www.w3.org/2000/svg" viewBox="0 0 50 50"><defs><style>.cls-1{fill:#282828;}</style></defs><path class="cls-1" d="M44.37,17.63H5.63a3.06,3.06,0,0,0-3.06,3.06V44.31a3,3,0,0,0,3.06,3.06H44.37a3,3,0,0,0,3.06-3.06V20.69A3.06,3.06,0,0,0,44.37,17.63Zm-27.79,23H11.09V35.14h5.49Zm0-11H11.09V24.16h5.49Zm11.35,11H22.44V35.14h5.49Zm0-11H22.44V24.16h5.49Zm11.35,11H33.79V35.14h5.49Zm-2.75-9.2a4.53,4.53,0,1,1,4.52-4.53A4.52,4.52,0,0,1,36.53,31.43Z"/><path class="cls-1" d="M46,4.89H43V3.82a2.21,2.21,0,0,0-2.2-2.2H38.42a2.2,2.2,0,0,0-2.19,2.2V4.89h-22V3.72A2.2,2.2,0,0,0,12,1.53H9.66a2.2,2.2,0,0,0-2.2,2.19V4.89H4a2,2,0,0,0-2,2v5.69a2,2,0,0,0,2,2H46a2,2,0,0,0,2-2V6.89A2,2,0,0,0,46,4.89ZM37,3.82a1.45,1.45,0,0,1,1.44-1.45h2.34a1.45,1.45,0,0,1,1.45,1.45V10.5a1.44,1.44,0,0,1-1.45,1.44H38.42A1.44,1.44,0,0,1,37,10.5ZM8.21,3.72A1.44,1.44,0,0,1,9.66,2.28H12a1.44,1.44,0,0,1,1.44,1.44V10.4A1.45,1.45,0,0,1,12,11.85H9.66A1.45,1.45,0,0,1,8.21,10.4Z"/></svg>