<?xml version="1.0" encoding="utf-8"?>
<!-- Generator: Adobe Illustrator 25.4.1, SVG Export Plug-In . SVG Version: 6.00 Build 0)  -->
<svg version="1.1" id="Capa_1" xmlns="http://www.w3.org/2000/svg" xmlns:xlink="http://www.w3.org/1999/xlink" x="0px" y="0px"
	 viewBox="0 0 30 30" style="enable-background:new 0 0 30 30;" xml:space="preserve">
<style type="text/css">
	.st0{fill:#FCB23B;}
</style>
<g>
	<path class="st0" d="M27.73,8.91c0,1.8-0.7,3.49-1.98,4.77l-3.57,3.57l-1.64,1.65c-0.4,0.39-0.83,0.72-1.29,1
		c-1.05,0.63-2.24,0.98-3.49,0.98c-0.45,0-0.89-0.05-1.32-0.13c-0.72-0.15-1.41-0.41-2.05-0.78c-0.5-0.29-0.98-0.65-1.4-1.07
		c-0.43-0.43-0.78-0.91-1.07-1.41l2.27-2.27c0.18,0.57,0.47,1.11,0.92,1.56c0.44,0.44,0.99,0.73,1.58,0.89
		c0.76,0.22,1.57,0.2,2.32-0.05c0.52-0.17,1-0.44,1.4-0.84l1.68-1.68l3.54-3.54c0.71-0.71,1.1-1.65,1.1-2.65
		c0-1.01-0.39-1.95-1.1-2.66c-0.71-0.7-1.65-1.09-2.65-1.09s-1.94,0.39-2.65,1.09l-1.92,1.93c-0.93-0.33-1.92-0.52-2.93-0.52
		c-0.29,0-0.57,0.02-0.84,0.05l3.57-3.58c1.27-1.27,2.97-1.97,4.77-1.97c1.8,0,3.5,0.7,4.77,1.97C27.03,5.41,27.73,7.1,27.73,8.91z"
		/>
	<path class="st0" d="M6.27,18.31c-0.71,0.71-1.1,1.65-1.1,2.65s0.39,1.95,1.1,2.65c1.46,1.47,3.84,1.47,5.31,0l1.25-1.25
		c0.93,0.33,1.92,0.52,2.93,0.52c0.28,0,0.56-0.02,0.84-0.05l-2.9,2.91c-1.32,1.31-3.05,1.97-4.78,1.97c-1.72,0-3.45-0.66-4.77-1.97
		c-1.27-1.28-1.98-2.98-1.98-4.78c0-1.8,0.71-3.5,1.98-4.77l2.91-2.91l1.64-1.64c0.4-0.4,0.83-0.72,1.29-1
		c1.46-0.88,3.17-1.17,4.8-0.85c0.71,0.14,1.41,0.41,2.05,0.78c0.5,0.29,0.98,0.64,1.41,1.07c0.43,0.43,0.78,0.9,1.07,1.4
		l-2.28,2.28c-0.17-0.57-0.46-1.11-0.91-1.56c-0.45-0.45-0.99-0.74-1.56-0.92c-0.76-0.23-1.58-0.22-2.33,0.05
		c-0.52,0.18-1,0.46-1.42,0.87l-1.68,1.68l-1.61,1.62L6.27,18.31z"/>
</g>
</svg>
