<svg id="Capa_1" data-name="Capa 1" xmlns="http://www.w3.org/2000/svg" viewBox="0 0 50 50"><defs><style>.cls-1{fill:#f1e323;}</style></defs><path class="cls-1" d="M36.11,25.62a.23.23,0,0,1,.21.21V43.77a.23.23,0,0,1-.21.21H13.89a.23.23,0,0,1-.21-.21V25.83a.23.23,0,0,1,.21-.21H36.11M35.4,23.8H14.6A2.65,2.65,0,0,0,12,26.4V43.3a2.65,2.65,0,0,0,2.6,2.6H35.3a2.65,2.65,0,0,0,2.6-2.6V26.4a2.5,2.5,0,0,0-2.5-2.6Z"/><path class="cls-1" d="M25.1,29.1a1.77,1.77,0,0,1,1.7,1.8v1.2a2.22,2.22,0,0,1-.71,1.49l-.51.5-.07.7-.46,4.46-.46-4.46L24.51,34l-.59-.52a1.94,1.94,0,0,1-.62-1.39V30.9a1.81,1.81,0,0,1,1.8-1.8m0-2a3.8,3.8,0,0,0-3.8,3.8v1.2A3.93,3.93,0,0,0,22.6,35l.6,5.8a2,2,0,0,0,1.7,1.7h.15A2,2,0,0,0,26.9,40.8l.6-5.8a4.11,4.11,0,0,0,1.3-2.9V30.9a3.78,3.78,0,0,0-3.7-3.8Z"/><path class="cls-1" d="M34.45,12.34V25h-9.6v-.4h7.74V12.76A7.16,7.16,0,0,0,25.44,5.6a7.05,7.05,0,0,0-7,7.16v2.75a1,1,0,0,1-1,1h0a1,1,0,0,1-1-1V12a9,9,0,0,1,8.77-9A9.27,9.27,0,0,1,34.45,12.34Z"/></svg>