<svg id="Capa_1" data-name="Capa 1" xmlns="http://www.w3.org/2000/svg" viewBox="0 0 453.54 255.12"><defs><style>.cls-1{opacity:0.6;}.cls-2{opacity:0.7;}.cls-3{fill:#525252;}.cls-4{fill:none;stroke:#ff2929;stroke-miterlimit:10;stroke-width:2px;}</style></defs><g class="cls-1"><g class="cls-2"><path class="cls-3" d="M256.88,202.38Zm0-70.65ZM238,202.43ZM196,131.73Zm9.07,70.7Zm-24,0Z"/><path class="cls-3" d="M294.36,154.78V143.4l-11.3-22.69L256.88,131.6h0V112.54l-1.54-.64a78,78,0,0,0-57.72,0l-1.59.64v19.19h0l-25.77-10.89-10.39,22.69v11.25H136.41v56.81h180.5V154.78ZM159.87,202.52H145.48V163.86h14.39Zm45.37-83.67a68.64,68.64,0,0,1,42.7,0v9.71a77.34,77.34,0,0,0-21.33-3,79.22,79.22,0,0,0-21.37,3Zm0,21.46a79.14,79.14,0,0,1,21.42-2.95A77.59,77.59,0,0,1,248,140.31v14.47H205.1Zm0,23.5h42.7v38.71H238v-36.3H215.27v36.3H205.1ZM229,175v27.23h-4.54V175Zm-56.81,27.45h-3V145.39l3-6.58Zm9.07-67.2,11.44,4.86a9.49,9.49,0,0,0,3.54.68v61.71h-15Zm75.6,76.28Zm17.2-9.08h-17.2V140.81a9.27,9.27,0,0,0,3.49-.68L274,134.41Zm11.2,0h-2.13v-61.3l2.13,4.27Zm22.69,0H294.36V163.86H308Z"/><path class="cls-3" d="M257.24,45.34l-4.08-1.82-10,27.77c-3.31-2.4-7.16-5-11.61-7.94-14.48-9.44-20.69-14.7-25.68-14.7a8.41,8.41,0,0,0-5.36,2.22c-3,2.45.73,9.08,7.58,17-3,2.5-15.25,9.44-65.3,20.37h0c-.36,0-1.68-.72-6.3-7.12a20.84,20.84,0,0,0,6.8,10.8l53.64-8.12a126.4,126.4,0,0,1,19.51-1.91,43,43,0,0,1,7.08.5A48.79,48.79,0,0,0,229.06,86l-22,6.31L209.28,95l30.26-4.53a43.76,43.76,0,0,0,13.07,2.31c3,0,5.09-.54,5.77-1.45,1.77-2.31.95-5.58-3.54-10.39Z"/><path class="cls-3" d="M316.46,53.1h-.68a1,1,0,0,0-.41.27h-.32l-.45.41-.37.32-.5.54-.4.36-.64.68-.82.82-.45.45A11.21,11.21,0,0,1,310.33,58,9.91,9.91,0,0,1,305,61.22l-47.47,4.13L257,73.43,310.29,64c.77-1.09,1.54-2.31,2.31-3.49,2.31-3.68,4.54-7.44,4.54-7.44h-.68Z"/><polygon class="cls-3" points="243.27 66.53 239.18 66.53 242.4 68.8 243.27 66.53"/><path class="cls-3" d="M256.33,80.46h0a17.54,17.54,0,0,1,4.18,6.81h0l43.29-8.72-3.86-2.27Z"/></g><line class="cls-4" x1="124.78" y1="37.03" x2="328.76" y2="218.09"/><line class="cls-4" x1="331.43" y1="38.18" x2="122.11" y2="216.94"/></g></svg>