<?xml version="1.0" encoding="utf-8"?>
<!-- Generator: Adobe Illustrator 25.4.1, SVG Export Plug-In . SVG Version: 6.00 Build 0)  -->
<svg version="1.1" id="Capa_1" xmlns="http://www.w3.org/2000/svg" xmlns:xlink="http://www.w3.org/1999/xlink" x="0px" y="0px"
	 viewBox="0 0 30 30" style="enable-background:new 0 0 30 30;" xml:space="preserve">
<style type="text/css">
	.st0{fill:none;stroke:#FCB23B;stroke-miterlimit:10;}
	.st1{fill:#FCB23B;}
</style>
<g>
	<path class="st0" d="M15.3,23.5c0,0.5-0.2,1.1-0.4,1.5c-0.5,0.9-1.5,1.5-2.6,1.5s-2.1-0.6-2.6-1.5c-0.3-0.4-0.4-1-0.4-1.5
		s0.2-1.1,0.4-1.5c0.5-0.9,1.5-1.5,2.6-1.5s2.1,0.6,2.6,1.5C15.1,22.5,15.3,23,15.3,23.5z"/>
	<path class="st0" d="M23.7,15c0,0.5-0.2,1.1-0.4,1.5c-0.5,0.9-1.5,1.5-2.6,1.5s-2.1-0.6-2.6-1.5c-0.3-0.4-0.4-1-0.4-1.5
		s0.2-1.1,0.4-1.5c0.5-0.9,1.5-1.5,2.6-1.5s2.1,0.6,2.6,1.5C23.5,13.9,23.7,14.4,23.7,15z"/>
	<path class="st1" d="M28.4,6.5c0,0.8-0.7,1.5-1.5,1.5H10.8c0.3-0.4,0.4-1,0.4-1.5S11.1,5.4,10.8,5h16.1C27.8,5,28.4,5.7,28.4,6.5z"
		/>
	<path class="st1" d="M5.2,6.5C5.2,7,5.4,7.5,5.7,8H3.1C2.2,8,1.6,7.3,1.6,6.5S2.2,5,3.1,5h2.6C5.4,5.4,5.2,5.9,5.2,6.5z"/>
	<path class="st0" d="M11.2,6.5c0,0.5-0.2,1.1-0.4,1.5c-0.5,0.9-1.5,1.5-2.6,1.5S6.2,8.9,5.7,8C5.4,7.5,5.2,7,5.2,6.5S5.4,5.4,5.7,5
		c0.5-0.9,1.5-1.5,2.6-1.5s2.1,0.6,2.6,1.5C11.1,5.4,11.2,5.9,11.2,6.5z"/>
	<path class="st1" d="M28.4,15c0,0.8-0.7,1.5-1.5,1.5h-3.7c0.3-0.4,0.4-1,0.4-1.5s-0.2-1.1-0.4-1.5h3.7C27.8,13.5,28.4,14.2,28.4,15
		z"/>
	<path class="st1" d="M17.7,15c0,0.5,0.2,1.1,0.4,1.5h-15c-0.8,0-1.5-0.7-1.5-1.5s0.7-1.5,1.5-1.5h15C17.8,13.9,17.7,14.4,17.7,15z"
		/>
	<path class="st1" d="M9.3,23.5c0,0.5,0.2,1.1,0.4,1.5H3.1c-0.8,0-1.5-0.7-1.5-1.5S2.2,22,3.1,22h6.6C9.4,22.5,9.3,23,9.3,23.5z"/>
	<path class="st1" d="M28.4,23.5c0,0.8-0.7,1.5-1.5,1.5H14.9c0.3-0.4,0.4-1,0.4-1.5s-0.2-1.1-0.4-1.5h12.1
		C27.8,22,28.4,22.7,28.4,23.5z"/>
</g>
</svg>
