<?xml version="1.0" encoding="utf-8"?>
<!-- Generator: Adobe Illustrator 25.4.1, SVG Export Plug-In . SVG Version: 6.00 Build 0)  -->
<svg version="1.1" id="Capa_1" xmlns="http://www.w3.org/2000/svg" xmlns:xlink="http://www.w3.org/1999/xlink" x="0px" y="0px"
	 viewBox="0 0 30 30" style="enable-background:new 0 0 30 30;" xml:space="preserve" fill=''>
<style type="text/css">
	.st0{fill:#282828;}
</style>
<g>
	<path class="st0" d="M27,18.1c0,4.2-2.7,8.1-7.4,8.8c1-0.8,1.8-2.1,1.8-4.3c0-5.7-6.4-5.2-6.4-7.3c0-1.5,0.9-1.8,0.9-1.8
		s-5.4-1.3-5.4,3.6c0,3.3,1.8,3.6,1.8,3.6s-2.7,0-2.7-1.8c0,0-2.7,0.8-2.7,3.6c0,1.4,0.5,2.8,1.4,3.8C5.8,25.6,3,23.4,3,18.1
		c0-9.4,10.5-8.6,10.5-12c0-2.5-1.5-3-1.5-3s9-1.6,9,6c0,5.5-3,6-3,6s4.5,0,4.5-3C22.5,12.1,27,13.5,27,18.1z"/>
</g>
</svg>
