<?xml version="1.0" encoding="utf-8"?>
<!-- Generator: Adobe Illustrator 25.4.1, SVG Export Plug-In . SVG Version: 6.00 Build 0)  -->

<!-- <svg version="1.1" id="Capa_1" xmlns="http://www.w3.org/2000/svg" xmlns:xlink="http://www.w3.org/1999/xlink" x="0px" y="0px"
	 viewBox="0 0 30 30" style="enable-background:new 0 0 30 30;" xml:space="preserve" 
	 >
<g>
	<path d="M29.09,15.74c-8.36,4.35-16.73-3.35-25.09,1C4.17,12.31,4.33,7.89,4.5,3.46c8.03-3.54,16.07,4.5,24.11,0.96
		C28.76,8.19,28.93,11.97,29.09,15.74z" />
	<path d="M2.03,29.28H0.91l1-28.28c0.01-0.15,0.13-0.27,0.28-0.27h0.56c0.16,0,0.28,0.13,0.28,0.29L2.03,29.28z"/>
</g>
</svg> -->

<svg x='0' y='0' viewBox="0 0 30 30" style="enable-background:new 0 0 30 30;" xml:space="preserve" xmlns="http://www.w3.org/2000/svg"
fill='#1CBF59'>
	<path d="M29.09,15.74c-8.36,4.35-16.73-3.35-25.09,1C4.17,12.31,4.33,7.89,4.5,3.46c8.03-3.54,16.07,4.5,24.11,0.96
			C28.76,8.19,28.93,11.97,29.09,15.74z" />
	<path d="M2.03,29.28H0.91l1-28.28c0.01-0.15,0.13-0.27,0.28-0.27h0.56c0.16,0,0.28,0.13,0.28,0.29L2.03,29.28z"/>
</svg>