<?xml version="1.0" encoding="utf-8"?>
<!-- Generator: Adobe Illustrator 27.1.0, SVG Export Plug-In . SVG Version: 6.00 Build 0)  -->
<svg version="1.1" id="Capa_1" xmlns="http://www.w3.org/2000/svg" xmlns:xlink="http://www.w3.org/1999/xlink" x="0px" y="0px"
	 viewBox="0 0 50 50" style="enable-background:new 0 0 50 50;" xml:space="preserve">
<g>
</g>
<path d="M43.62,28.42c-0.54-0.13-1.08,0.2-1.21,0.74c-1.71,7.04-7.44,12.31-14.6,13.42c-4.72,0.74-9.43-0.41-13.29-3.23
	c-3.85-2.81-6.37-6.96-7.11-11.68C5.9,17.94,12.59,8.79,22.33,7.28c5.7-0.89,11.31,1.09,15.23,4.93l-3.3,1.97
	c-0.72,0.44-0.71,1.49,0.03,1.91l8.46,4.72c0.17,0.1,0.36,0.14,0.53,0.14c0.58,0,1.11-0.47,1.11-1.12l-0.14-9.69
	c-0.01-0.63-0.54-1.08-1.11-1.08c-0.18,0-0.38,0.05-0.56,0.16l-3.24,1.93c-4.38-4.5-10.8-6.86-17.32-5.85
	C11.2,6.98,3.76,17.15,5.44,27.98c0.81,5.24,3.62,9.85,7.9,12.99c3.44,2.51,7.5,3.83,11.69,3.83c1.02,0,2.05-0.08,3.09-0.24
	c7.96-1.24,14.33-7.1,16.23-14.93C44.48,29.09,44.15,28.55,43.62,28.42z M40.68,12.68l1.59-0.95l0.05,3.39l0.04,3.18l-0.95-0.53
	l-4.78-2.67l2.31-1.38L40.68,12.68z"/>
</svg>
