<?xml version="1.0" encoding="utf-8"?>
<!-- Generator: Adobe Illustrator 25.4.1, SVG Export Plug-In . SVG Version: 6.00 Build 0)  -->
<svg version="1.1" id="Capa_1" xmlns="http://www.w3.org/2000/svg" xmlns:xlink="http://www.w3.org/1999/xlink" x="0px" y="0px"
	 viewBox="0 0 50 50" style="enable-background:new 0 0 50 50;" xml:space="preserve">

<g>
	<path class="st0" d="M25,12.9c5.2,0,9.4,4.2,9.4,9.5c0,2.9-1.3,5.6-3.7,7.4c-1.8,1.4-2.8,3.6-2.7,5.8v0.7h-6.1l0-0.9
		c0-2.3-1.1-4.4-2.9-5.7c-2.2-1.8-3.5-4.5-3.5-7.3c0.1-5.1,4-9.2,9.1-9.5C24.8,12.9,24.9,12.9,25,12.9L25,12.9 M25,10.9
		C25,10.9,25,10.9,25,10.9c-0.2,0-0.3,0-0.5,0c-6.1,0.3-10.9,5.3-11,11.5c0,3.5,1.6,6.7,4.3,8.9c1.3,1,2.1,2.6,2.1,4.2v2.8h10.1
		v-2.7c0-1.7,0.7-3.2,2-4.3c2.8-2.2,4.4-5.5,4.4-9C36.4,16.1,31.3,10.9,25,10.9L25,10.9z"/>
</g>
<path class="st0" d="M21.1,40.1h7.8c0.6,0,1.1,0.5,1.1,1.1l0,0c0,0.6-0.5,1.1-1.1,1.1h-7.8c-0.6,0-1.1-0.5-1.1-1.1l0,0
	C20,40.6,20.5,40.1,21.1,40.1z"/>
<path class="st0" d="M21.1,44h7.8c0.6,0,1.1,0.5,1.1,1.1v0.4c0,0.6-0.5,1.1-1.1,1.1h-7.8c-0.6,0-1.1-0.5-1.1-1.1v-0.4
	C20,44.5,20.5,44,21.1,44z"/>
<path class="st0" d="M9.3,23.1H4.4c-0.6,0-1-0.4-1-1s0.4-1,1-1h4.9c0.6,0,1,0.4,1,1S9.9,23.1,9.3,23.1z"/>
<path class="st0" d="M45.8,23.1h-5.3c-0.6,0-1-0.4-1-1s0.4-1,1-1h5.3c0.6,0,1,0.4,1,1S46.4,23.1,45.8,23.1z"/>
<path class="st0" d="M14,12c-0.3,0-0.5-0.1-0.7-0.3L9.8,8.2C9.4,7.8,9.4,7.1,9.9,6.8c0.4-0.3,0.9-0.3,1.3,0l3.5,3.5
	c0.4,0.4,0.4,1,0,1.4c0,0,0,0,0,0C14.5,11.9,14.3,12,14,12z"/>
<path class="st0" d="M39.7,37.8c-0.3,0-0.5-0.1-0.7-0.3l-3.8-3.8c-0.4-0.4-0.3-1.1,0.1-1.4c0.4-0.3,0.9-0.3,1.3,0l3.8,3.7
	c0.4,0.4,0.4,1,0,1.4c0,0,0,0,0,0C40.3,37.6,40,37.7,39.7,37.8z"/>
<path class="st0" d="M10.5,37.8c-0.6,0-1-0.4-1-1c0-0.3,0.1-0.6,0.3-0.8l3.5-3.5c0.4-0.4,1.1-0.4,1.5,0s0.4,1.1,0,1.5l-3.5,3.5
	C11,37.7,10.7,37.8,10.5,37.8z"/>
<path class="st0" d="M36,12.2c-0.6,0-1-0.4-1-1c0-0.3,0.1-0.5,0.3-0.7L39,6.8c0.4-0.4,1-0.4,1.4,0c0,0,0,0,0,0c0.4,0.4,0.4,1,0,1.4
	L36.7,12C36.5,12.2,36.2,12.3,36,12.2z"/>
<path class="st0" d="M25.1,7.8c-0.6,0-1-0.4-1-1V4.3c0-0.6,0.4-1,1-1s1,0.4,1,1v2.4C26.1,7.3,25.7,7.8,25.1,7.8z"/>
</svg>
