<?xml version="1.0" encoding="utf-8"?>
<!-- Generator: Adobe Illustrator 25.4.1, SVG Export Plug-In . SVG Version: 6.00 Build 0)  -->
<svg version="1.1" id="Capa_1" xmlns="http://www.w3.org/2000/svg" xmlns:xlink="http://www.w3.org/1999/xlink" x="0px" y="0px"
	 viewBox="0 0 50 50" style="enable-background:new 0 0 50 50;" xml:space="preserve">
<style type="text/css">
	.st0{fill:none;stroke:#000000;stroke-width:1.25;stroke-linecap:round;stroke-linejoin:round;}
</style>
<polyline class="st0" points="37.1,25.4 41.2,25.4 41.2,31.5 8.8,31.5 8.8,25.4 13,25.4 "/>
<path class="st0" d="M30.1,17.7c-3.3-1.3-7-1.3-10.3,0l-0.3,0.1v3.4l0.3-0.1c3.3-1.3,7-1.3,10.3,0l0.3,0.1v-3.4L30.1,17.7z"/>
<path class="st0" d="M30.4,21.3v10.2H19.5V21.3l0.3-0.1c3.3-1.3,7-1.3,10.3,0L30.4,21.3z"/>
<polyline class="st0" points="30.4,21.3 35.1,19.3 35.1,31.5 "/>
<polyline class="st0" points="37.1,31.5 37.1,23.4 35.1,19.3 "/>
<polyline class="st0" points="19.5,21.3 14.9,19.3 14.9,31.5 "/>
<polyline class="st0" points="13,31.5 13,23.4 14.9,19.3 "/>
<rect x="23" y="27.4" class="st0" width="4" height="4"/>
</svg>
