<svg xmlns="http://www.w3.org/2000/svg" viewBox="0 0 928 150"><defs><style>.cls-1,.cls-33{fill:#43413f;}.cls-2,.cls-54,.cls-6{opacity:0.6;}.cls-2,.cls-30,.cls-33,.cls-6{font-size:12px;}.cls-2,.cls-21,.cls-3,.cls-6{fill:#bcb9b9;}.cls-2,.cls-30{font-family:Poppins-Regular, Poppins;}.cls-4{fill:#656262;}.cls-5{fill:#a4a09f;}.cls-33,.cls-6{font-family:MyriadPro-Regular, Myriad Pro;}.cls-7{letter-spacing:-0.01em;}.cls-10,.cls-13,.cls-20,.cls-22,.cls-34,.cls-39,.cls-40,.cls-48,.cls-49,.cls-8,.cls-9{font-size:8px;}.cls-10,.cls-13,.cls-19,.cls-20,.cls-22,.cls-49,.cls-9{fill:#fffdfd;}.cls-25,.cls-34,.cls-9{letter-spacing:0em;}.cls-11{letter-spacing:0em;}.cls-12{letter-spacing:-0.01em;}.cls-13,.cls-39,.cls-48,.cls-49{letter-spacing:0em;}.cls-14{letter-spacing:-0.04em;}.cls-15{letter-spacing:0.01em;}.cls-16{letter-spacing:-0.01em;}.cls-17{letter-spacing:0em;}.cls-18{letter-spacing:0em;}.cls-20,.cls-40{letter-spacing:0em;}.cls-21{stroke:#f1e232;}.cls-21,.cls-41{stroke-miterlimit:10;}.cls-23{letter-spacing:-0.01em;}.cls-24{letter-spacing:0em;}.cls-26{letter-spacing:-0.01em;}.cls-27{letter-spacing:0em;}.cls-28{letter-spacing:-0.01em;}.cls-29{letter-spacing:-0.01em;}.cls-30{fill:#606060;}.cls-31,.cls-41{fill:#2c2926;}.cls-32{fill:#53504f;}.cls-35,.cls-36,.cls-37,.cls-38,.cls-42{font-size:10.53px;font-family:Dia-Regular, Dia;fill:#000;}.cls-35{letter-spacing:-0.01em;}.cls-37{letter-spacing:-0.01em;}.cls-38{letter-spacing:0em;}.cls-41{stroke:#3866ad;}.cls-42{letter-spacing:0em;}.cls-43{letter-spacing:-0.01em;}.cls-44{letter-spacing:0.01em;}.cls-45{letter-spacing:0em;}.cls-46{letter-spacing:-0.01em;}.cls-47{letter-spacing:0.01em;}.cls-48{fill:#fcfafa;}.cls-50{fill:#f1e232;}.cls-51{fill:#fff;}.cls-52{fill:#3866ad;}.cls-53{fill:#f7af3c;}</style></defs><g id="Capa_2" data-name="Capa 2"><rect class="cls-1" width="471" height="150"/></g><g id="Capa_3" data-name="Capa 3"><text class="cls-2" transform="translate(7.85 19.73)">Colores a usar (Modo Oscuro)</text><circle class="cls-3" cx="15.5" cy="44.77" r="6.5"/><circle class="cls-4" cx="14.5" cy="95.77" r="6.5"/><circle class="cls-5" cx="14.5" cy="118.77" r="6.5"/><text class="cls-6" transform="translate(27.28 48.61)"><tspan class="cls-7">T</tspan><tspan x="5.82" y="0">iendas </tspan><tspan class="cls-8" x="41.15" y="0"> </tspan><tspan class="cls-9" x="42.84" y="0">h</tspan><tspan class="cls-10" x="47.25" y="0">tml #bcb9b9</tspan></text><text class="cls-6" transform="translate(25.77 99.33)"><tspan class="cls-11">Á</tspan><tspan class="cls-12" x="7.31" y="0">r</tspan><tspan x="11.11" y="0">ea de la plaza </tspan><tspan class="cls-13" x="80.84" y="0">h</tspan><tspan class="cls-10" x="85.25" y="0">tml #656262</tspan><tspan class="cls-8" x="126.75" y="0"> </tspan></text><text class="cls-6" transform="translate(24.58 124.28)"><tspan class="cls-14"> </tspan><tspan class="cls-7" x="2.05" y="0">T</tspan><tspan x="7.87" y="0">iendas </tspan><tspan class="cls-11" x="43.2" y="0">e</tspan><tspan class="cls-15" x="49.18" y="0">x</tspan><tspan class="cls-16" x="54.89" y="0">t</tspan><tspan class="cls-17" x="58.79" y="0">e</tspan><tspan class="cls-18" x="64.8" y="0">r</tspan><tspan x="68.77" y="0">nas a la plaza</tspan><tspan class="cls-19" x="134.36" y="0"> </tspan><tspan class="cls-13" x="136.91" y="0">h</tspan><tspan class="cls-20" x="141.31" y="0">tml #a4a09f</tspan></text><circle class="cls-21" cx="14.5" cy="67.77" r="6.5"/><text class="cls-6" transform="translate(26.01 71.77)"><tspan class="cls-7">T</tspan><tspan x="5.82" y="0">iendas ancla </tspan><tspan class="cls-8" x="70.13" y="0"> </tspan><tspan class="cls-9" x="71.82" y="0">h</tspan><tspan class="cls-10" x="76.23" y="0">tml #bcb9b9 </tspan><tspan class="cls-22"><tspan class="cls-23" x="0" y="9.6">C</tspan><tspan class="cls-24" x="4.55" y="9.6">o</tspan><tspan class="cls-25" x="8.94" y="9.6">n</tspan><tspan class="cls-26" x="13.35" y="9.6">t</tspan><tspan x="15.95" y="9.6">o</tspan><tspan class="cls-27" x="20.34" y="9.6">r</tspan><tspan x="22.99" y="9.6">no </tspan><tspan class="cls-25" x="33.52" y="9.6">h</tspan><tspan x="37.93" y="9.6">tml #f1e232 t</tspan><tspan class="cls-28" x="81.91" y="9.6">r</tspan><tspan x="84.49" y="9.6">a</tspan><tspan class="cls-29" x="88.34" y="9.6">z</tspan><tspan x="91.71" y="9.6">o 1 pt </tspan></tspan></text><text class="cls-30" transform="translate(488.96 19.73)">Colores a usar (Modo Claro)</text><circle class="cls-31" cx="496.88" cy="44.77" r="6.5"/><circle class="cls-5" cx="495.88" cy="95.77" r="6.5"/><circle class="cls-32" cx="495.88" cy="118.77" r="6.5"/><text class="cls-33" transform="translate(505.97 48.61)"><tspan class="cls-7">T</tspan><tspan x="5.82" y="0">iendas </tspan><tspan class="cls-8" x="41.15" y="0"> </tspan><tspan class="cls-34" x="42.84" y="0">h</tspan><tspan class="cls-8" x="47.25" y="0">tml #</tspan><tspan class="cls-35" x="64.13" y="0">2</tspan><tspan class="cls-36" x="69.59" y="0">4</tspan><tspan class="cls-37" x="75.33" y="0">2</tspan><tspan class="cls-36" x="80.78" y="0">4</tspan><tspan class="cls-38" x="86.52" y="0">2</tspan><tspan class="cls-36" x="92.05" y="0">3</tspan></text><text class="cls-33" transform="translate(505.96 100.33)"><tspan class="cls-11">Á</tspan><tspan class="cls-12" x="7.31" y="0">r</tspan><tspan x="11.11" y="0">ea de la plaza </tspan><tspan class="cls-39" x="80.84" y="0">h</tspan><tspan class="cls-8" x="85.25" y="0">tml a4a09f</tspan></text><text class="cls-33" transform="translate(505.96 124.28)"><tspan class="cls-14"> </tspan><tspan class="cls-7" x="2.05" y="0">T</tspan><tspan x="7.87" y="0">iendas </tspan><tspan class="cls-11" x="43.2" y="0">e</tspan><tspan class="cls-15" x="49.18" y="0">x</tspan><tspan class="cls-16" x="54.89" y="0">t</tspan><tspan class="cls-17" x="58.79" y="0">e</tspan><tspan class="cls-18" x="64.8" y="0">r</tspan><tspan x="68.77" y="0">nas a la plaza </tspan><tspan class="cls-39" x="136.91" y="0">h</tspan><tspan class="cls-40" x="141.31" y="0">tml #a4a09f</tspan></text><circle class="cls-41" cx="495.88" cy="67.77" r="6.5"/><text class="cls-33" transform="translate(505.97 71.77)"><tspan class="cls-7">T</tspan><tspan x="5.82" y="0">iendas ancla </tspan><tspan class="cls-8" x="70.13" y="0"> </tspan><tspan class="cls-34" x="71.82" y="0">h</tspan><tspan class="cls-8" x="76.23" y="0">tml #</tspan><tspan class="cls-35" x="93.11" y="0">2</tspan><tspan class="cls-36" x="98.57" y="0">4</tspan><tspan class="cls-37" x="104.31" y="0">2</tspan><tspan class="cls-36" x="109.76" y="0">4</tspan><tspan class="cls-42" x="115.5" y="0">2</tspan><tspan class="cls-36" x="121.03" y="0">3</tspan><tspan class="cls-8" x="126.64" y="0"> </tspan><tspan class="cls-8"><tspan class="cls-23" x="0" y="9.6">C</tspan><tspan class="cls-24" x="4.55" y="9.6">o</tspan><tspan class="cls-25" x="8.94" y="9.6">n</tspan><tspan class="cls-26" x="13.35" y="9.6">t</tspan><tspan x="15.95" y="9.6">o</tspan><tspan class="cls-27" x="20.34" y="9.6">r</tspan><tspan x="22.99" y="9.6">no </tspan><tspan class="cls-25" x="33.52" y="9.6">h</tspan><tspan x="37.93" y="9.6">tml #3866ad t</tspan><tspan class="cls-28" x="83.93" y="9.6">r</tspan><tspan x="86.51" y="9.6">a</tspan><tspan class="cls-43" x="90.37" y="9.6">z</tspan><tspan class="cls-24" x="93.73" y="9.6">o 1 pt </tspan></tspan></text><text class="cls-33" transform="translate(758.81 42.06)">I<tspan class="cls-16" x="2.87" y="0">c</tspan><tspan x="8.17" y="0">onos ubicación de </tspan><tspan class="cls-44" x="102.01" y="0">I</tspan><tspan class="cls-17" x="105" y="0">ndoors </tspan><tspan class="cls-39"><tspan x="0" y="9.6">h</tspan><tspan class="cls-45" x="4.41" y="9.6">tml #3866ad i</tspan><tspan class="cls-46" x="49.64" y="9.6">c</tspan><tspan class="cls-24" x="53.18" y="9.6" xml:space="preserve">ono        0.759 cm      1.185 cm </tspan></tspan></text><text class="cls-33" transform="translate(759.03 74.27)">Ubicación de <tspan class="cls-44" x="67.86" y="0">I</tspan><tspan class="cls-17" x="70.85" y="0">ndoor</tspan><tspan class="cls-39"><tspan x="0" y="9.6">h</tspan><tspan class="cls-45" x="4.41" y="9.6">tml #f7af3c</tspan></tspan></text><text class="cls-33" transform="translate(770.31 109.49)"><tspan class="cls-47">M</tspan><tspan x="9.72" y="0">apa a p</tspan><tspan class="cls-12" x="45.81" y="0">r</tspan><tspan x="49.62" y="0">opo</tspan><tspan class="cls-12" x="69.62" y="0">r</tspan><tspan x="73.43" y="0">ción </tspan><tspan x="33.81" y="14.4">16 - 9 </tspan></text><text class="cls-6" transform="translate(292.81 44.9)">I<tspan class="cls-16" x="2.87" y="0">c</tspan><tspan x="8.17" y="0">onos ubicación de </tspan><tspan class="cls-44" x="102.01" y="0">I</tspan><tspan class="cls-17" x="105" y="0">ndoors </tspan><tspan class="cls-48"><tspan x="0" y="9.6">h</tspan><tspan class="cls-45" x="4.41" y="9.6">tml #ebd40c i</tspan><tspan class="cls-46" x="49.72" y="9.6">c</tspan><tspan class="cls-24" x="53.26" y="9.6" xml:space="preserve">ono        0.759 cm     1.185 cm </tspan></tspan></text><text class="cls-6" transform="translate(293.03 77.11)">Ubicación de <tspan class="cls-44" x="67.86" y="0">I</tspan><tspan class="cls-17" x="70.85" y="0">ndoors</tspan><tspan class="cls-49"><tspan x="0" y="9.6">h</tspan><tspan class="cls-45" x="4.41" y="9.6">tml #f7af3c</tspan></tspan></text><text class="cls-6" transform="translate(304.31 112.32)"><tspan class="cls-47">M</tspan><tspan x="9.72" y="0">apa a p</tspan><tspan class="cls-12" x="45.81" y="0">r</tspan><tspan x="49.62" y="0">opo</tspan><tspan class="cls-12" x="69.62" y="0">r</tspan><tspan x="73.43" y="0">ción </tspan><tspan x="33.81" y="14.4">16 - 9 </tspan></text><ellipse class="cls-50" cx="277.94" cy="33.44" rx="10.76" ry="11"/><path class="cls-50" d="M271.82,43.67,278,56l6.1-12.36a11.93,11.93,0,0,1-6.25,1.85A16.69,16.69,0,0,1,271.82,43.67Z"/><path class="cls-51" d="M283.76,32.94V32l-1-1.95-2.25.94h0V29.31l-.13,0a6.65,6.65,0,0,0-5,0l-.14,0V31h0L273.09,30,272.2,32v1h-2v4.88H285.7V32.94ZM272.2,37.05H271V33.72h1.23Zm3.9-7.2a5.9,5.9,0,0,1,3.67,0v.84a6.63,6.63,0,0,0-1.83-.26,7.17,7.17,0,0,0-1.84.26Zm0,1.85a6.9,6.9,0,0,1,3.68,0v1.24h-3.69Zm0,2h3.67V37h-.86V33.92h-2V37h-.87Zm2,1V37h-.39V34.69ZM273.26,37H273V32.13l.26-.56Zm.78-5.78,1,.43a.76.76,0,0,0,.3,0v5.31H274Zm6.5,6.56M282,37h-1.48v-5.3a.61.61,0,0,0,.3,0l1.17-.5Zm1,0h-.18V31.78l.18.37Zm1.95,0h-1.17V33.72h1.17Z"/><ellipse class="cls-52" cx="743.03" cy="33.44" rx="10.76" ry="11"/><path class="cls-52" d="M736.9,43.67,743.07,56l6.11-12.36a12,12,0,0,1-6.26,1.85A16.69,16.69,0,0,1,736.9,43.67Z"/><path class="cls-51" d="M748.84,32.94V32l-1-1.95-2.25.94h0V29.31l-.13,0a6.65,6.65,0,0,0-5,0l-.14,0V31h0L738.18,30l-.9,1.95v1h-2v4.88h15.51V32.94Zm-11.56,4.11h-1.23V33.72h1.23Zm3.9-7.2a5.9,5.9,0,0,1,3.67,0v.84a6.63,6.63,0,0,0-1.83-.26,7.17,7.17,0,0,0-1.84.26Zm0,1.85a6.77,6.77,0,0,1,1.85-.25,6.68,6.68,0,0,1,1.83.25v1.24h-3.69Zm0,2h3.67V37H744V33.92h-2V37h-.88Zm2.05,1V37h-.39V34.69ZM738.35,37h-.27V32.13l.27-.56Zm.78-5.78,1,.43a.76.76,0,0,0,.3,0v5.31h-1.28Zm6.49,6.56M747.1,37h-1.48v-5.3a.6.6,0,0,0,.3,0l1.17-.5Zm1,0h-.18V31.78l.18.37Zm2,0h-1.17V33.72H750Z"/><ellipse class="cls-53" cx="277.04" cy="78.51" rx="9.3" ry="9.51"/><path d="M274.25,75.26a2.49,2.49,0,0,1,1.69.48,1.7,1.7,0,0,1,.53,1.34,2.36,2.36,0,0,1-.12.75,1.65,1.65,0,0,1-.4.62,1.92,1.92,0,0,1-.73.42,3.23,3.23,0,0,1-1.1.16h-.68v2.35h-.84V75.26Zm-.07.72h-.74v2.33H274a2.73,2.73,0,0,0,.87-.12,1.06,1.06,0,0,0,.53-.38,1.23,1.23,0,0,0,.18-.7,1,1,0,0,0-.35-.85A1.75,1.75,0,0,0,274.18,76Z"/><path d="M277.69,75.26h1.74a3.36,3.36,0,0,1,1.71.35,1.24,1.24,0,0,1,.58,1.17,1.47,1.47,0,0,1-.13.64,1.16,1.16,0,0,1-.36.46,1.36,1.36,0,0,1-.6.25v0a2.14,2.14,0,0,1,.66.23,1.17,1.17,0,0,1,.45.46,1.6,1.6,0,0,1,.16.77,1.7,1.7,0,0,1-.25,1,1.59,1.59,0,0,1-.73.59,2.78,2.78,0,0,1-1.13.21h-2.1Zm.84,2.58h1a1.58,1.58,0,0,0,1-.25.88.88,0,0,0,.27-.7.77.77,0,0,0-.33-.7,2,2,0,0,0-1-.21h-.94Zm0,.7v2.11h1.14a1.48,1.48,0,0,0,1.05-.29,1.09,1.09,0,0,0,.3-.8,1,1,0,0,0-.14-.55.83.83,0,0,0-.44-.35,2.29,2.29,0,0,0-.82-.12Z"/><ellipse class="cls-53" cx="741.57" cy="74.59" rx="9.3" ry="9.51"/><path d="M738.77,71.34a2.49,2.49,0,0,1,1.69.47,1.67,1.67,0,0,1,.53,1.34,2.36,2.36,0,0,1-.12.75,1.54,1.54,0,0,1-.4.62,1.94,1.94,0,0,1-.72.43,3.55,3.55,0,0,1-1.11.15H738v2.35h-.84V71.34Zm-.07.72H738v2.32h.59a2.68,2.68,0,0,0,.87-.12,1,1,0,0,0,.54-.38,1.22,1.22,0,0,0,.18-.69,1,1,0,0,0-.35-.85A1.71,1.71,0,0,0,738.7,72.06Z"/><path d="M742.22,71.34H744a3.44,3.44,0,0,1,1.72.34,1.26,1.26,0,0,1,.57,1.17,1.62,1.62,0,0,1-.12.64,1.2,1.2,0,0,1-.37.46,1.38,1.38,0,0,1-.59.26v0a1.92,1.92,0,0,1,.65.22,1.2,1.2,0,0,1,.45.47,1.53,1.53,0,0,1,.17.76,1.68,1.68,0,0,1-.26,1,1.62,1.62,0,0,1-.73.6,2.91,2.91,0,0,1-1.12.2h-2.1Zm.83,2.57h1.05a1.57,1.57,0,0,0,1-.24.89.89,0,0,0,.28-.71.76.76,0,0,0-.33-.69,2,2,0,0,0-1-.21h-1Zm0,.71v2.11h1.15a1.45,1.45,0,0,0,1-.3,1.08,1.08,0,0,0,.31-.8,1,1,0,0,0-.14-.54.81.81,0,0,0-.45-.35,2.25,2.25,0,0,0-.82-.12Z"/><path d="M831,48.51h4.73l-.16-.18c-.1-.11-.21-.2-.3-.31a.36.36,0,0,1,0-.49.37.37,0,0,1,.49,0l1.09,1.09a.33.33,0,0,1,0,.5c-.36.37-.72.74-1.09,1.09a.34.34,0,0,1-.48,0,.36.36,0,0,1,0-.5,2.39,2.39,0,0,1,.22-.23l.25-.17-.06-.08H831l.39.4c.19.2.22.41.07.57a.39.39,0,0,1-.57-.06c-.32-.31-.64-.63-.95-.95s-.24-.41,0-.64l1-1a.36.36,0,1,1,.51.5Z"/><path d="M874,47V51l.15-.13a2,2,0,0,1,.26-.25.29.29,0,0,1,.4.42l-.9.91a.29.29,0,0,1-.42,0l-.91-.9a.3.3,0,0,1,.42-.42,1.62,1.62,0,0,1,.19.18l.14.21.06,0V47l-.33.32c-.16.16-.34.18-.47,0a.3.3,0,0,1,0-.46c.26-.27.52-.53.79-.79a.31.31,0,0,1,.53,0l.81.81a.3.3,0,1,1-.42.42Z"/><g class="cls-54"><path class="cls-3" d="M363.23,52.05H368l-.16-.18c-.1-.1-.21-.2-.3-.31a.34.34,0,0,1,0-.48.36.36,0,0,1,.49,0c.37.36.73.73,1.09,1.1a.33.33,0,0,1,0,.5L368,53.76a.35.35,0,0,1-.48,0,.36.36,0,0,1,0-.5,2.39,2.39,0,0,1,.22-.23l.25-.17-.06-.07h-4.68l.38.39c.19.2.22.42.07.57a.39.39,0,0,1-.57-.06l-.95-.95a.38.38,0,0,1,0-.64l1-1a.36.36,0,1,1,.51.5Z"/><path class="cls-3" d="M406.22,50.57v3.92l.15-.13.26-.25a.29.29,0,0,1,.4.42l-.9.91a.29.29,0,0,1-.42,0l-.91-.9a.3.3,0,0,1,.42-.42l.19.19c0,.06.09.13.14.2l.06,0V50.57l-.33.33a.33.33,0,0,1-.47.05.31.31,0,0,1,.05-.47l.79-.79a.31.31,0,0,1,.53,0l.81.81a.31.31,0,0,1,0,.45.31.31,0,0,1-.46,0Z"/></g></g></svg>