<?xml version="1.0" encoding="utf-8"?>
<!-- Generator: Adobe Illustrator 25.4.1, SVG Export Plug-In . SVG Version: 6.00 Build 0)  -->
<svg version="1.1" id="Capa_1" xmlns="http://www.w3.org/2000/svg" xmlns:xlink="http://www.w3.org/1999/xlink" x="0px" y="0px"
	 viewBox="0 0 30 30" style="enable-background:new 0 0 30 30;" xml:space="preserve">
<style type="text/css">
	.st0{fill:#FCB23B;}
</style>
<path class="st0" d="M20.5,10.5h2.1c0.2,0,0.4,0.2,0.4,0.4v14.1c0,0.2-0.2,0.4-0.4,0.4h-2.1c-0.2,0-0.4-0.2-0.4-0.4V10.9
	C20.1,10.7,20.3,10.5,20.5,10.5z"/>
<path class="st0" d="M7.7,4.5h2.1c0.2,0,0.4,0.2,0.4,0.4v14.1c0,0.2-0.2,0.4-0.4,0.4H7.7c-0.2,0-0.4-0.2-0.4-0.4V4.9
	C7.3,4.7,7.5,4.5,7.7,4.5z"/>
<path class="st0" d="M15.8,10.1l5.5-5.5c0.2-0.2,0.4-0.2,0.6,0l5.5,5.5c0.1,0.2,0.1,0.4,0,0.6c-0.1,0.1-0.2,0.1-0.3,0.1h-11
	c-0.2,0-0.4-0.2-0.4-0.4C15.7,10.3,15.7,10.2,15.8,10.1z"/>
<path class="st0" d="M14.6,19.9l-5.5,5.5c-0.2,0.2-0.4,0.2-0.6,0L3,19.9c-0.2-0.1-0.2-0.4,0-0.5c0.1-0.1,0.2-0.1,0.3-0.1h11
	c0.2,0,0.4,0.1,0.4,0.3C14.7,19.7,14.7,19.8,14.6,19.9z"/>
</svg>
