<?xml version="1.0" encoding="utf-8"?>
<!-- Generator: Adobe Illustrator 25.4.1, SVG Export Plug-In . SVG Version: 6.00 Build 0)  -->
<svg version="1.1" id="Capa_1" xmlns="http://www.w3.org/2000/svg" xmlns:xlink="http://www.w3.org/1999/xlink" x="0px" y="0px"
	 viewBox="0 0 50 50" style="enable-background:new 0 0 50 50;" xml:space="preserve">
<g>
	<path d="M24.6,33c-4.6,0-8.4-3.8-8.3-8.5c0-4.6,3.8-8.4,8.5-8.3c4.6,0,8.3,3.8,8.3,8.4C33.1,29.2,29.3,33,24.6,33
		C24.7,33,24.6,33,24.6,33z M35.3,31.5L33.8,30c3-5.1,1.4-11.7-3.7-14.7S18.4,13.9,15.3,19S14,30.7,19.1,33.7c3.4,2,7.6,2,11,0
		l1.5,1.5c1.1,1,2.8,0.9,3.8-0.2C36.2,34,36.2,32.5,35.3,31.5z"/>
</g>
<g>
	<path d="M25,42.2c-2.1,0-4.1-0.3-6.2-0.8c-7.7-2.1-13.8-8.2-15.9-15.9L2.8,25l0.1-0.4C6.3,12.4,19,5.2,31.1,8.6
		c7.7,2.1,13.8,8.2,15.9,15.9l0.1,0.4l-0.1,0.4c-1.6,5.9-5.5,10.8-10.8,13.8C32.8,41.2,28.9,42.2,25,42.2z M6.2,25
		c1.9,6.4,7.1,11.5,13.6,13.3c5.1,1.4,10.4,0.8,14.9-1.8c4.4-2.5,7.7-6.6,9.1-11.4c-1.9-6.4-7.1-11.5-13.6-13.3
		C20,8.9,9.3,14.8,6.2,25z"/>
</g>
</svg>
