<svg id="Capa_1" data-name="Capa 1" xmlns="http://www.w3.org/2000/svg" viewBox="0 0 720 1000"><defs><style>.cls-1{opacity:0.8;}.cls-2{fill:#8b6e58;}.cls-3{fill:#7d5b42;}.cls-4{fill:#967c68;}.cls-5{fill:#e23030;}.cls-6{fill:#c3e6ec;}.cls-7{fill:#91d3df;}.cls-8{fill:#e2f4f6;}.cls-9{fill:#f6ce55;}.cls-10{fill:#f6cd55;}.cls-11{fill:#ffe892;}.cls-12{fill:#f9f3d1;}.cls-13{fill:#e2f3f5;}.cls-14{fill:#fee692;}.cls-15{fill:#c2e4e9;}.cls-16{fill:#e0f1f2;}.cls-17{fill:#fde58e;}.cls-18{fill:#cbe7ed;}.cls-19{fill:#fbe390;}.cls-20{fill:#f6ecc4;}.cls-21{fill:#cbe7ec;}.cls-22{fill:#b0cfd2;}.cls-23{fill:#b2d4d9;}.cls-24{fill:#f1d681;}.cls-25{fill:#f6da7e;}.cls-26{fill:#fff;}.cls-27{fill:#92d2dd;}.cls-28{fill:#ceecf2;}.cls-29{fill:#f8eab7;}.cls-30{fill:#7b4f37;}.cls-31{fill:#eaa8b8;}.cls-32{fill:#edb3c1;}.cls-33{fill:#ebadbc;}.cls-34{fill:#e09fad;}.cls-35{fill:#edce75;}.cls-36{fill:#c0e2e6;}.cls-37{fill:#caad60;}.cls-38{fill:#b8dbe2;}.cls-39{fill:#add1d7;}.cls-40{fill:#91d3de;}.cls-41{fill:#91d2de;}.cls-42{fill:#746f5f;}</style></defs><g class="cls-1"><path d="M142.35,421.62c-2,.35-3.1,1.73-3.94,3.39a49.89,49.89,0,0,0-3.49,9.77,104.11,104.11,0,0,0-3.39,25.92c-.23,15.81-.28,31.63.55,47.43a203.91,203.91,0,0,0,2.1,22.76c.65,3.94,1.24,8,3.39,11.49a.83.83,0,0,1,.62.94c.78-.4.82-1.19,1-1.91a.7.7,0,0,0-.22-.67,1.48,1.48,0,0,1-.57-1.89h0a174.24,174.24,0,0,1-1.28-30.71c.43-7.2.44-14.41.75-21.61.47-10.95.84-21.9,1.5-32.83.57-9.29,1.6-18.51,4.55-27.41a13.71,13.71,0,0,0,.64-2.82A1.81,1.81,0,0,0,142.35,421.62Z"/><path d="M176.7,532.27A58.53,58.53,0,0,1,172.88,517a156.35,156.35,0,0,1-.92-17.83c0-6.51.16-13,.44-19.54.33-7.74.82-15.48,1.3-23.21.34-5.53.84-11.05,1.15-16.57a18.15,18.15,0,0,0-.54-6.6,2,2,0,0,0-2.16-1.54,2.31,2.31,0,0,0-2,1.85c-.2,1.51-.22,3.05-.45,4.55-1.38,8.64-1.59,17.38-2,26.08a344.85,344.85,0,0,0,.61,40.28,102,102,0,0,0,2.24,16c1.14,4.72,2.46,9.38,5.19,13.5C176.54,533.65,176.51,532.91,176.7,532.27Z"/><path class="cls-2" d="M176.7,532.27c.36.91.59,1.76-.87,1.76a15.12,15.12,0,0,0,2.44,4.63c.29.44.73.87,1.29.46.36-.26.22-.71.05-1.1A28.75,28.75,0,0,0,176.7,532.27Z"/><path class="cls-2" d="M176.7,532.27c-.19.64-.16,1.38-.87,1.76C177.29,534,177.06,533.18,176.7,532.27Z"/><path class="cls-3" d="M138.19,543.32h0a3.88,3.88,0,0,0,1.67,2.46l1.13-1.15a9.76,9.76,0,0,0-1.79-3.23C139.6,542.45,139.69,543.31,138.19,543.32Z"/><path class="cls-3" d="M138.19,543.32h0c1.5,0,1.41-.87,1-1.91C139,542.13,139,542.92,138.19,543.32Z"/><path class="cls-4" d="M139.85,545.79a2.58,2.58,0,0,0,1.36,1.48,1,1,0,0,0,.77,0,.69.69,0,0,0,.23-1,17.69,17.69,0,0,0-1.23-1.62C141.17,545.58,140.78,546,139.85,545.79Z"/><path class="cls-4" d="M141,544.64l-1.13,1.15C140.78,546,141.17,545.58,141,544.64Z"/><path class="cls-3" d="M138.4,538.85c.27.61.2,1.31.57,1.89A2,2,0,0,0,138.4,538.85Z"/><path class="cls-3" d="M139,540.74c-.37-.58-.3-1.28-.57-1.89h0A1.48,1.48,0,0,0,139,540.74Z"/><path class="cls-3" d="M138.18,543.32c-.19-.32-.39-.64-.61-.94a.79.79,0,0,0,.61,1Z"/><path class="cls-3" d="M138.19,543.32a.83.83,0,0,0-.62-.94c.22.3.42.62.61.94Z"/><polygon class="cls-3" points="138.18 543.32 138.18 543.33 138.19 543.33 138.18 543.32"/><polygon class="cls-3" points="138.18 543.32 138.18 543.32 138.18 543.32 138.18 543.32"/><polygon class="cls-3" points="138.19 543.33 138.19 543.33 138.19 543.32 138.18 543.32 138.19 543.33"/><polygon class="cls-3" points="138.18 543.32 138.19 543.32 138.19 543.32 138.18 543.32 138.18 543.32"/><polygon class="cls-3" points="138.18 543.32 138.19 543.33 138.19 543.33 138.18 543.32 138.18 543.32"/><path class="cls-5" d="M716.44,782.66a329.68,329.68,0,0,1-58.06,16.16c-9,1.66-18.08,2.78-27.19,3.8-16.75,1.89-33.54,1.85-50.33,1.32-8-.25-16-1.17-24-2.12A318.32,318.32,0,0,1,401,738.35a310.44,310.44,0,0,1-36.21-32.54,285.77,285.77,0,0,1-46.72-66.11c-.89-1.71-1.94-3.34-2.91-5h0c-.23.14-.46.4-.67.37s-.4-.31-.52-.53c-3-5.48-5.52-11.16-8-16.87a278.77,278.77,0,0,1-9.74-26.87c-1.64-5.26-3.08-10.58-4.61-15.88h0c-1.46-7-3.37-13.94-4.26-21.08-.35-2.72-1-5.41-1.55-8.11,0-1.09-.05-2.18-.07-3.28h0c-.9-.65-.78-1.6-.77-2.53-.08-1.93.13-3.89-.68-5.74a3.61,3.61,0,0,1-.15-1.24,51.5,51.5,0,0,0-.74-9.08c-.49-2.26-.11-4.7-.15-7.06a26.79,26.79,0,0,0-.6-7,9.89,9.89,0,0,1-.09-4.95c1-3.84.56-7.72.73-11.58,0-.28,0-.55,0-.83h0c.58-4.67,1.16-9.34,1.77-14,.05-.36.42-.67.65-1h0c.8-5.77,1.58-11.54,2.4-17.31a264.69,264.69,0,0,1,7.22-33.32,305.77,305.77,0,0,1,24-60.67,314,314,0,0,1,30.91-47.87,329.8,329.8,0,0,1,119.6-95,339.43,339.43,0,0,1,59.88-21.46,347.2,347.2,0,0,1,37.53-7.42,172.34,172.34,0,0,1,21.52-2.14c2.63,0,5.27-.59,7.88-.45,6.25.32,12.46-.44,18.69-.34s12.22,0,18.33.25c4.57.16,9.12.65,13.68,1.06,4.28.39,8.57.76,12.83,1.32,5.63.75,11.28,1.51,16.86,2.59,10.21,2,20.35,4.26,30.36,7.13q6.54,1.88,13,4v-39c-.94-.25-1.87-.52-2.81-.76a400.67,400.67,0,0,0-51-9.8c-8.67-1.08-17.39-2-26.11-2.52-10.53-.63-21.08-1.12-30.89-.78-7.28-.08-13.8.27-20.31.59a372.4,372.4,0,0,0-56.58,6.9c-3.25.67-6.53,1.09-9.75,2-11.85,3.47-23.64,7.15-35.28,11.28-37.37,13.23-72.54,30.79-105,53.65A392.25,392.25,0,0,0,327,276.94a364.92,364.92,0,0,0-43.23,53.86,340.66,340.66,0,0,0-34.33,66.94,328.23,328.23,0,0,0-16.87,62.58,316.15,316.15,0,0,0-4,36.82c-.36,7.48-.42,15-.32,22.48s.53,15.26,1.25,22.86a330.58,330.58,0,0,0,7.86,47.18,325,325,0,0,0,26.53,71.68c21.43,41.88,50.59,77.58,86.75,107.56,44.06,36.52,94.21,60.89,149.71,74.45a394.66,394.66,0,0,0,55,9.38q18.25,1.78,36.58,2c11.65.15,23.3-.48,34.94-1.29a373.07,373.07,0,0,0,37.59-4.63,394.23,394.23,0,0,0,56.08-14.07h0V781.07C719.11,781.6,717.79,782.14,716.44,782.66ZM268.74,496.28a47.62,47.62,0,0,1-2.55,6.08c-.93,1.82-2.2,2.39-4.13,1.66s-3.34-1-5,.31a1.28,1.28,0,0,1-1.92-.84c-.28-1.35-.42-2.72-.67-4.48a20.14,20.14,0,0,1,.38-3.29c.67-2.53,2-4.52,4.87-5a32.67,32.67,0,0,0,3.24-.67c1.91-.49,3.5.39,5.09,1.2A1.82,1.82,0,0,1,269,493,11,11,0,0,1,268.74,496.28Zm-1.86-45.42a14.76,14.76,0,0,0,.34,6.6c.94,2.74,0,5.18-1.36,7.52a1.76,1.76,0,0,1-2.83.44,8.09,8.09,0,0,1-2.94-6.19,108.13,108.13,0,0,1,1-17.43c2.69-16,7.87-31.2,13.77-46.2a395.29,395.29,0,0,1,38.1-73,235,235,0,0,1,21.15-27.84c5-5.6,10.39-10.82,16.8-14.85a15.62,15.62,0,0,1,5.6-2.65h0c1.35-1.15,3-.94,4.59-1,.48,0,1.13.08,1.09.85s-.52.9-1.05,1a5.89,5.89,0,0,1-1.19,0c-5.73,2.2-10.14,6.24-14.31,10.53a177.56,177.56,0,0,0-17.86,22c-14.64,20.87-26.7,43.2-37.29,66.34a337.51,337.51,0,0,0-18.19,47.82A159.83,159.83,0,0,0,266.88,450.86Z"/><path class="cls-6" d="M290.56,217a9.67,9.67,0,0,0,1.12-.55c8.87-4.58,17.77-9.1,26.61-13.74q11-5.8,21.95-11.83c6.56-3.59,13-7.38,19.58-10.93,2.3-1.23,4.72-2.29,7.1-3.37,4.91-2.23,9.66-4.75,14.36-7.39.36-.2.74-.38,1.11-.57,5.64-3,11.33-5.86,16.92-8.92,6.19-3.39,12.26-7,18.46-10.38,4.25-2.31,8.64-4.37,12.94-6.59,5.42-2.79,11.05-5.18,16.24-8.41,1.53-1,3.19-1.68,4.81-2.48a40.09,40.09,0,0,0,7.59-5,99.17,99.17,0,0,1,8.89-6.11c2.43-1.59,5-3,7.38-4.64q10.83-7.35,22.32-13.62c4.14-2.25,8.22-4.59,12.3-6.92,2.53-1.45,5.27-2.43,7.87-3.72,3.59-1.78,7.19-3.58,10.85-5.23.88-.4,1.81-.66,2.72-1,0-.26,0-.53,0-.8h0c-1.62.15-2.94-.66-4.31-1.34-4.71-2.36-9.4-4.79-14.16-7a124.22,124.22,0,0,0-15.34-6.36A116.22,116.22,0,0,0,479,65.55c-4.5-.63-9-1.56-13.54-1.6-3.7-1.43-7.74-.2-11.48-1.48a8.94,8.94,0,0,0-2.89-.15c-4.59,0-9.17.09-13.75,0-6.13-.18-12.09,1-18.06,2.09-9.28,1.71-18.14,4.9-27.12,7.68-3.83,1.19-7.67,2.35-11.5,3.56a75,75,0,0,0-12.29,5c-6.26,3.27-12.6,6.42-18.77,9.87a109.32,109.32,0,0,0-15.73,10.75,185.06,185.06,0,0,0-18.19,17.66c-6.32,6.75-12.35,13.83-17.09,21.86s-8.65,16.4-10.27,25.69c-.82,4.75-1.12,9.59-1.79,14.35-.8,5.68-.51,11.33-.7,17a8.73,8.73,0,0,1-.3,2.46,6.91,6.91,0,0,0,0,3.23c.57,4.37,1.55,8.71,1.22,13.18-.09,1.33-.29,2.48-1.6,3.12h0c-.07.29-.13.57-.2.86h0l.24,1a1.37,1.37,0,0,1,.67,1.49h0l0,.1c.25-.33.69-.65.7-1A5.42,5.42,0,0,1,290.56,217ZM369.45,91.85A3.28,3.28,0,0,0,372,89.43c.16-.68.89-1,1.56-1.23a11.77,11.77,0,0,1,5.65-.86c1.6-1.16,1.89-1.14,3.17.19a.75.75,0,0,0,.23.6,2.68,2.68,0,0,1,1.36,3.51,38.05,38.05,0,0,1-1.87,4.59A3.33,3.33,0,0,1,379.89,98c-.66.18-1.38.18-2,.41-5.07,1.89-7.34-1-9-5.2A1,1,0,0,1,369.45,91.85Zm-69.11,71.56a179.3,179.3,0,0,1,8.43-17.64c6.26-11.75,14.69-21.85,23.69-31.54A58.8,58.8,0,0,1,348,101.82a36.71,36.71,0,0,1,10-4,14.62,14.62,0,0,1,2.88-.25c.79,0,1.18.62,1.45,1.3a2.08,2.08,0,0,0,1.54,1.72c3.93,1.19,3.94,1.65,3,5.55s-3.62,6.11-6.43,8.33c-4.24,3.35-8.63,6.57-12,10.75-2.44,3-5,5.9-7.54,8.81a147.66,147.66,0,0,0-11.43,15.76,29.77,29.77,0,0,0-1.92,3.2c-2.09,4.36-4.65,8.48-6.55,12.95a203.8,203.8,0,0,0-7.73,21.45c-1.34,4.49-2.16,9.16-4.55,13.31A11.49,11.49,0,0,1,306.2,204c-1.24,1-2.64,1.26-3.77.19s-2.87-1.58-4.07-2.72h0a7.77,7.77,0,0,1-2.21-5.68C295.89,184.79,296.18,173.85,300.34,163.41Z"/><path class="cls-7" d="M556.79,81.94a17.14,17.14,0,0,0-6-2.07c-1.41-.11-1,.86-.75,1.61h0a2.61,2.61,0,0,1,1.65,2.19,5,5,0,0,1-.83,3.53,2.52,2.52,0,0,1-2.17,1c-4.68.18-9.34.15-13.81-1.59a31.69,31.69,0,0,0-3.06-.91,6.06,6.06,0,0,1-3.08,2.21c-20.84,9.63-41.08,20.45-59.68,33.87-17,12.29-36.18,20.52-54.34,30.63-16.37,9.11-32.86,18-49.6,26.45-24.91,12.57-48.93,26.84-74,39-2.63,1.28-2.56,4.53-5.24,5.37h0c-.06,1.47.83,2.62,1.32,3.9s1.31,2.76,1.93,4.15c.54,1.2,1,2.42,1.59,3.8,1.12-.61,2-1.05,2.79-1.52,9.64-5.52,19.28-11,29.1-16.22q32.37-17.13,64.67-34.42c10-5.37,20.41-10.06,30-16.2a8.59,8.59,0,0,1,1.47-.77c2.59-1,5.21-1.88,7.77-2.92s5.54-1.9,7.82-3.82a30.44,30.44,0,0,1,10.62-5.58,45,45,0,0,0,9.63-4.84c4.85-2.94,9.68-6,14.7-8.58C484.1,132.38,499,124.73,514,117.06c8.89-4.57,17.83-9,26.71-13.59,8.14-4.2,16.24-8.49,24.32-12.79,1.14-.6,2.51-1,3.34-2.39a47.17,47.17,0,0,0-9.08-6.85h0A1.76,1.76,0,0,1,556.79,81.94Z"/><path class="cls-7" d="M291.05,217.84c25.1-12.19,49.12-26.46,74-39,16.74-8.45,33.23-17.34,49.6-26.45C432.84,142.25,452,134,469,121.73c18.6-13.42,38.84-24.24,59.68-33.87a6.06,6.06,0,0,0,3.08-2.21l-.1,0h0c-.91.32-1.84.58-2.72,1-3.66,1.65-7.26,3.45-10.85,5.23-2.6,1.29-5.34,2.27-7.87,3.72-4.08,2.33-8.16,4.67-12.3,6.92q-11.49,6.27-22.32,13.62c-2.4,1.63-4.95,3-7.38,4.64a99.17,99.17,0,0,0-8.89,6.11,40.09,40.09,0,0,1-7.59,5c-1.62.8-3.28,1.53-4.81,2.48-5.19,3.23-10.82,5.62-16.24,8.41-4.3,2.22-8.69,4.28-12.94,6.59-6.2,3.38-12.27,7-18.46,10.38-5.59,3.06-11.28,5.95-16.92,8.92-.37.19-.75.37-1.11.57-4.7,2.64-9.45,5.16-14.36,7.39-2.38,1.08-4.8,2.14-7.1,3.37-6.57,3.55-13,7.34-19.58,10.93q-10.92,6-21.95,11.83c-8.84,4.64-17.74,9.16-26.61,13.74a9.67,9.67,0,0,1-1.12.55,5.42,5.42,0,0,0-4.05,5.2c0,.34-.45.66-.7,1h0C288.49,222.37,288.42,219.12,291.05,217.84Z"/><path class="cls-8" d="M284.28,219.15l.54.45c0-.07,0-.15.06-.22a15.87,15.87,0,0,0,.51-7.42c-2.09-14.16-.53-28.22,1.13-42.25a65,65,0,0,1,10.21-28c13.51-20.8,29.93-38.89,51.49-51.78a201.33,201.33,0,0,1,50.47-21.29c8.7-2.38,17.27-5.23,26.23-6.52,12.59-1.81,25.19-1.26,37.76.17a230.35,230.35,0,0,1,23.05,3.28,130.29,130.29,0,0,1,29.32,10.5c5.5,2.67,11,5.34,16.39,8.18a1.43,1.43,0,0,1,.39.54,6,6,0,0,0,2.61-.56,34,34,0,0,1,11.15-3.76c.79-.09,1-.83,1.09-1.53h0c-.26-.29-.57-.54-.84-.82Q534.3,71.4,522.75,64.68c-1.66-1-3.41-1.77-5.08-2.72-1.18-.67-2.62-.92-3.49-2.1a38.28,38.28,0,0,0-7.49-2.42A192.64,192.64,0,0,0,461,51.5a209.94,209.94,0,0,0-72.39,11.64C362.35,72.22,339,86.06,319,105.44A142,142,0,0,0,290.28,144a104.4,104.4,0,0,0-11,45.33c0,2.62.36,5.25.5,7.88A82,82,0,0,0,284.28,219.15Z"/><path class="cls-8" d="M285.06,219.8c1.31-.64,1.51-1.79,1.6-3.12.33-4.47-.65-8.81-1.22-13.18a6.91,6.91,0,0,1,0-3.23,8.73,8.73,0,0,0,.3-2.46c.19-5.66-.1-11.31.7-17,.67-4.76,1-9.6,1.79-14.35,1.62-9.29,5.53-17.66,10.27-25.69s10.77-15.11,17.09-21.86a185.06,185.06,0,0,1,18.19-17.66,109.32,109.32,0,0,1,15.73-10.75c6.17-3.45,12.51-6.6,18.77-9.87a75,75,0,0,1,12.29-5c3.83-1.21,7.67-2.37,11.5-3.56,9-2.78,17.84-6,27.12-7.68,6-1.11,11.93-2.27,18.06-2.09,4.58.14,9.16,0,13.75,0a8.94,8.94,0,0,1,2.89.15c3.74,1.28,7.78.05,11.48,1.48,4.57,0,9,1,13.54,1.6a116.22,116.22,0,0,1,18.91,4.53,124.22,124.22,0,0,1,15.34,6.36c4.76,2.25,9.45,4.68,14.16,7,1.37.68,2.69,1.49,4.31,1.34h.16a1.43,1.43,0,0,0-.39-.54c-5.41-2.84-10.89-5.51-16.39-8.18a130.29,130.29,0,0,0-29.32-10.5,230.35,230.35,0,0,0-23.05-3.28c-12.57-1.43-25.17-2-37.76-.17-9,1.29-17.53,4.14-26.23,6.52A201.33,201.33,0,0,0,348.22,90c-21.56,12.89-38,31-51.49,51.78a65,65,0,0,0-10.21,28c-1.66,14-3.22,28.09-1.13,42.25a15.87,15.87,0,0,1-.51,7.42c0,.07,0,.15-.06.22l.24.2Z"/><path class="cls-7" d="M446.8,843.39l-.12-6.83h0a13.21,13.21,0,0,0-1.4-.83c-10.43-4.51-20.92-8.88-31.06-14a3,3,0,0,0-.81-.12h0l-.06,7.51h0c.9.7.83,1.71.78,2.67a4.38,4.38,0,0,0,1.41,3.32,13.18,13.18,0,0,0,7.08,4.07,53,53,0,0,1,9.31,3.48c1,.43,1.15,1.12.48,2-2.13,2.71-4.33,5.37-6.44,8.1-3.55,4.58-7,9.22-10.58,13.81-.59.76-1.32,1.42-2,2.12a99.33,99.33,0,0,0-13.19,17.53l-2.74,4.64h0c-1.39,2.49-2.22,5.29-4.12,7.51h0c0,.55-.05,1.1-.08,1.66-.25.28-.5.56-.77.83l.77-.83-.77.83c0,.28,0,.56,0,.84l-.4.44.4-.44-.4.44c-.12.13-.25.26-.37.4-.14,2.94-1.5,5.58-2,8.45-.49,2.71-.28,5.55-1.33,8.16.41,3.63-.57,7.16-1,10.71a64.65,64.65,0,0,1-1.63,10.2c-1.61,5.82-5.29,9.89-10.15,13.18a22.85,22.85,0,0,1-10.54,3.4,22.06,22.06,0,0,1-6.62-.25,17.73,17.73,0,0,1-8.42-4.23,3.57,3.57,0,0,0-2.53-1.23h0c0,2,0,4,0,6a2.74,2.74,0,0,1-.73,2.22h0c1.24,2.17,3.35,3.25,5.49,4.22a39.78,39.78,0,0,0,12,3.32,33.88,33.88,0,0,0,9.54,0,26.85,26.85,0,0,0,19.7-13.86c2.66-4.7,3.72-9.46,1.77-14.7a20.86,20.86,0,0,1-1.17-8.19,10.33,10.33,0,0,0-.05-2.49c-.76-3.37.07-6.62.73-9.85a45.53,45.53,0,0,1,7.15-16.28,220.32,220.32,0,0,1,16.95-22.12c8-9.23,15.77-18.64,23.1-28.41,1.41-1.87,3-3.64,3.87-5.88C445.86,844.18,446.06,843.59,446.8,843.39Z"/><path class="cls-9" d="M671.34,857.16a4.22,4.22,0,0,0-1.22.12c-5.19.86-10.36,1.84-15.57,2.55-6,.83-12.09,1.39-18.13,2.12-8.94,1.1-17.92,1.68-26.91,1.95-8,.25-16.07.13-24.1.15a95.25,95.25,0,0,1-9.54-.41c-3.85-.38-7.74-.37-11.62-.47-1.54,0-2,.27-2.45,1.7a27.31,27.31,0,0,0-1.39,7.71c0,.23.25.47.39.7h0a6.94,6.94,0,0,1,2.68.91c2.77,1.14,5.68,1.85,8.52,2.76a3.12,3.12,0,0,0,3.84-1.17h0c.36-.41.67-1.1,1.09-1.18,2.39-.42,4.62-1.26,7.26-.72,6.08,1.24,12.22,2.21,18.41,2.86a65.72,65.72,0,0,0,6.57.76h0c2.64,0,5.28,0,7.92,0,2.06,0,4.14.13,6.17-.61a7.52,7.52,0,0,1,2.89-.18c5.74.35,11.27-1,16.83-2a158.66,158.66,0,0,0,20.49-5.14c1.24-.41,2.43-.67,3.41.54h0c3.17-3.39,4-7.79,5.15-12A.75.75,0,0,0,671.34,857.16Z"/><path class="cls-6" d="M375,922.31a5.53,5.53,0,0,1-2.17,2.44,11.06,11.06,0,0,1-1.84,1c-6.51,2.26-11.6,6.88-17.34,10.42a11.21,11.21,0,0,0-5.28,9c-.14,1.69-.67,3.23-.94,4.86h0l0,.73c1.44-.82,2.57.21,3.73.93,14.64,9.08,31.93.86,34.31-16.21,1-7.27,1.55-14.6,2.59-21.87a43.17,43.17,0,0,1,2.46-10.08,16,16,0,0,1,.74-1.63c.15-.34.32-.67.5-1,.22-.5.48-1,.65-1.49A4.77,4.77,0,0,1,393,898l-.53-.51a1.36,1.36,0,0,1-.91,1.61,1.06,1.06,0,0,1-.64.94l0,.07a1.52,1.52,0,0,1-.92,1.56h0c-2.85,3.87-5.54,7.88-8.9,11.36a4.24,4.24,0,0,0-.89,1.39,11.66,11.66,0,0,1-6.18,6.32C374.85,920.89,375.6,921.12,375,922.31Z"/><path class="cls-6" d="M393,898a4.77,4.77,0,0,0-.51,1.38c-.17.51-.43,1-.65,1.49-.18.33-.35.66-.5,1a16,16,0,0,0-.74,1.63,43.17,43.17,0,0,0-2.46,10.08c-1,7.27-1.58,14.6-2.59,21.87-2.38,17.07-19.67,25.29-34.31,16.21-1.16-.72-2.29-1.75-3.73-.93v.18h0a3.57,3.57,0,0,1,2.53,1.23,17.73,17.73,0,0,0,8.42,4.23,22.06,22.06,0,0,0,6.62.25,22.85,22.85,0,0,0,10.54-3.4c4.86-3.29,8.54-7.36,10.15-13.18a64.65,64.65,0,0,0,1.63-10.2c.39-3.55,1.37-7.08,1-10.71,1-2.61.84-5.45,1.33-8.16.51-2.87,1.87-5.51,2-8.45.12-.14.25-.27.37-.4-.13.13-.25.27-.37.4.12-.13.24-.27.37-.4l.4-.44c0-.28,0-.56,0-.84.27-.27.52-.55.77-.83,0-.56.06-1.11.08-1.66h0C393.23,898.18,393.11,898.06,393,898Z"/><path class="cls-6" d="M419.79,859.18c3.35-4.25,6.25-8.85,9.93-12.84,1.64-1.76,1.57-3.1-.94-3.93a44.75,44.75,0,0,0-4.68-1.75c-5.3-1.11-9.14-3.56-10.81-8.06a24.64,24.64,0,0,1-.81,7.68,115.57,115.57,0,0,1-5.19,16.59,29.85,29.85,0,0,1-1.77,3.23s-.44-.21-.68-.32h0a16.71,16.71,0,0,0-.6,1.94,92.24,92.24,0,0,1-2.41,10.5c-1.54,5-2.94,10.07-4.41,15.11a1.56,1.56,0,0,1-.75,1.81h0a3.64,3.64,0,0,0,.18.94C402.53,878.32,411.85,869.26,419.79,859.18Z"/><path class="cls-6" d="M413.29,832.48v.12c1.67,4.5,5.51,6.95,10.81,8.06a44.75,44.75,0,0,1,4.68,1.75c2.51.83,2.58,2.17.94,3.93-3.68,4-6.58,8.59-9.93,12.84-7.94,10.08-17.26,19.14-22.94,30.91a1.3,1.3,0,0,0,.62.7h0l2.74-4.64a99.33,99.33,0,0,1,13.19-17.53c.66-.7,1.39-1.36,2-2.12,3.54-4.59,7-9.23,10.58-13.81,2.11-2.73,4.31-5.39,6.44-8.1.67-.84.54-1.53-.48-2a53,53,0,0,0-9.31-3.48,13.18,13.18,0,0,1-7.08-4.07,4.38,4.38,0,0,1-1.41-3.32c.05-1,.12-2-.78-2.67h0C413.32,830.22,413.31,831.35,413.29,832.48Z"/><path class="cls-9" d="M355.61,56.24a28.69,28.69,0,0,1-3.94,3,37.73,37.73,0,0,0-5.47,3.65,4.58,4.58,0,0,1-1.44.6c-1.31-1.27.08-3.12-1.19-4.26h0c0,1.8-.11,3.59-.1,5.39,0,3.84,1.06,7.64.17,11.49,1.51.22,2.32-.65,3.24-1.2a209.19,209.19,0,0,1,30.82-15.34c1.93-.75,3.85-1.56,5.74-2.42a1.12,1.12,0,0,0,.48-1.74c-1.88-2.89-3.65-5.87-6.27-8.2-1.55,1.32-3.54,1.51-5.38,1.69A28.45,28.45,0,0,0,355.61,56.24Z"/><path class="cls-10" d="M452.41,158.8a1.92,1.92,0,0,0-2.32-.21c-.62.31-1.25.61-1.86.93l-19.59,10.19a24.35,24.35,0,0,0-2.19,1.2,1.1,1.1,0,0,0-.3,1.77,32.43,32.43,0,0,0,7.05,6.38c.13-.68.2-1.44.81-1.84,5-3.42,10.22-6.46,16.31-7.59.4-.08.88-.16.95.31a1.37,1.37,0,0,1-.45,1.05,48.29,48.29,0,0,1-7.85,5.27c-1,.53-2,1-2.9,1.57-1.81,1.23-2.09,2.41-1.1,4.6.28.64.77,1.14.06,1.76h0c.53.67,1.15.56,1.83.26l22.47-9.55c-.2-.33-.66-.8-.57-1,.77-1.38,1.22-3.08,3.15-3.38h0a17.83,17.83,0,0,0-5.12-4.63,5.79,5.79,0,0,1-.83.88,2.09,2.09,0,0,1-2.64.17c-1-.88.08-1.69.45-2.48.1-.23.38-.37.58-.55h0C456.81,161.72,454.39,160.52,452.41,158.8Z"/><path class="cls-11" d="M354.47,39.66c-7.19,11-6.87,10.33-9.89,17.77l-1.06-1.64h0c0,1.14,0,2.28,0,3.42h0c2.11.29,1.13,2.1,1.61,3.23,9.86-7.11,19-15.78,32.46-15.25-2-3.57-5-6.2-7.91-8.95a7.54,7.54,0,0,0-6.1-2,23.16,23.16,0,0,0-9.4,2.74C354.32,39.19,354.56,39.53,354.47,39.66Z"/><path class="cls-11" d="M343.57,59.21c1.27,1.14-.12,3,1.19,4.26a4.58,4.58,0,0,0,1.44-.6,37.73,37.73,0,0,1,5.47-3.65,28.69,28.69,0,0,0,3.94-3,28.45,28.45,0,0,1,16.65-7.36c1.84-.18,3.83-.37,5.38-1.69-13.46-.53-22.6,8.14-32.46,15.25C344.7,61.31,345.68,59.5,343.57,59.21Z"/><path class="cls-12" d="M646.93,879.11c-8.17,0-16.33,0-24.5,0a31,31,0,0,1-6.57-.56q-3.2.06-6.39.06c-1.24-.09-2.48-.22-3.73-.34-2.72,0-5.45,0-8.17,0a40.58,40.58,0,0,0-7.83.6,16.25,16.25,0,0,1-8.24-.28,7.5,7.5,0,0,0-3.7-.21c-.79.15-1,.85-1.14,1.56.31.78.91,1.46.8,2.39h0a59.78,59.78,0,0,0,9.91.91c5,0,10,.64,14.92,1.06,5.66.47,11.31,1,17,1.45,4.18.32,8.31-.31,12.43-.83a70.73,70.73,0,0,0,19.22-5.15C649.73,878.74,648.28,879.11,646.93,879.11Z"/><path class="cls-12" d="M609.23,878.26h0l-3.49,0c1.25.12,2.49.25,3.73.34q3.19,0,6.39-.06h0C613.72,878.09,611.44,878.33,609.23,878.26Z"/><path class="cls-13" d="M346.87,949.48c0-7.35,3-12.88,9.66-16.6,4.79-2.69,9-6.31,14.25-8.32,1.65-.64,3.27-1.65,3.2-3.87-4.43.29-8.85.59-13.27.86a16.5,16.5,0,0,0-7.86,2.45,39.22,39.22,0,0,0-11.13,10.5c-1,1.32-2,2.7-1.8,4.53A18,18,0,0,0,346.87,949.48Z"/><path class="cls-13" d="M370.78,924.56c-5.22,2-9.46,5.63-14.25,8.32-6.63,3.72-9.63,9.25-9.66,16.6l.59.47h0c.27-1.63.8-3.17.94-4.86a11.21,11.21,0,0,1,5.28-9c5.74-3.54,10.83-8.16,17.34-10.42a11.06,11.06,0,0,0,1.84-1,5.53,5.53,0,0,0,2.17-2.44c.57-1.19-.18-1.42-1-1.62C374.05,922.91,372.43,923.92,370.78,924.56Z"/><path class="cls-14" d="M628,878c5.71-.12,11.41-.25,17.12-.11,2.06,0,4.54-.67,5.79,2a44.79,44.79,0,0,0,11.78-5.41,10.46,10.46,0,0,0,4.2-4.34h0c-8.69,2.19-17.27,4.77-26.13,6.29C636.51,877.09,632.25,877.59,628,878Z"/><path class="cls-14" d="M663.47,869.52A158.66,158.66,0,0,1,643,874.66c-5.56,1-11.09,2.36-16.83,2a7.52,7.52,0,0,0-2.89.18c-2,.74-4.11.57-6.17.61-2.64,0-5.28,0-7.92,0l0,.38h.17c6.21.29,12.41.18,18.62.06,4.26-.36,8.52-.86,12.76-1.6,8.86-1.52,17.44-4.1,26.13-6.29C665.9,868.85,664.71,869.11,663.47,869.52Z"/><path class="cls-14" d="M645.11,877.84c-5.71-.14-11.41,0-17.12.11-4,.33-8.08.52-12.13.61a31,31,0,0,0,6.57.56c8.17,0,16.33,0,24.5,0,1.35,0,2.8-.37,4,.7C649.65,877.17,647.17,877.89,645.11,877.84Z"/><path class="cls-14" d="M609.23,878.26c2.21.07,4.49-.17,6.62.29h0c4-.09,8.09-.28,12.13-.61-6.21.12-12.41.23-18.62-.06h-.17l0,.38Z"/><path class="cls-15" d="M546.94,78.61a2.16,2.16,0,0,1,.18.66,3.59,3.59,0,0,1,1.24,1.3,1.57,1.57,0,0,0,.89.75c-.66-2.59,1.4-2.25,3.19-2.13,2.46.18,4.29,2.29,6.83,2.25h0c-.64-.52-1.24-1.09-1.92-1.56C544.57,71.05,530.54,64.79,515.82,60a8,8,0,0,0-1.64-.15c11.43,4.52,21.52,11.47,32,17.72A4,4,0,0,1,546.94,78.61Z"/><path class="cls-15" d="M549.25,81.32a2.94,2.94,0,0,0,.75.16c-.2-.75-.66-1.72.75-1.61a17.14,17.14,0,0,1,6,2.07,1.76,1.76,0,0,0,2.48-.5c-2.54,0-4.37-2.07-6.83-2.25C550.65,79.07,548.59,78.73,549.25,81.32Z"/><path class="cls-15" d="M522.75,64.68q11.57,6.7,23.09,13.47c.27.28.58.53.84.82h0a3.41,3.41,0,0,1,.44.3,2.16,2.16,0,0,0-.18-.66,4,4,0,0,0-.76-1c-10.48-6.25-20.57-13.2-32-17.72.87,1.18,2.31,1.43,3.49,2.1C519.34,62.91,521.09,63.72,522.75,64.68Z"/><path class="cls-16" d="M405.54,855.27c.07-.15.13-.29.21-.43A1.9,1.9,0,0,0,405.54,855.27Z"/><path class="cls-16" d="M412.24,831.76a3.41,3.41,0,0,0-1.83-1.23c-.74.8-.09,2.21-1.29,2.75h0c-1.43,3.92-1.69,8.08-2.23,12.15-.41,3.13-1.36,6.21-1.14,9.41.05,1.19.45,2.44-.66,3.41h0c-.08.51-.16,1-.25,1.53,3.8-8.85,7-17.85,7.37-27.61Z"/><path class="cls-16" d="M405.52,860.1a29.85,29.85,0,0,0,1.77-3.23,115.57,115.57,0,0,0,5.19-16.59,24.64,24.64,0,0,0,.81-7.68,1,1,0,0,0,0-.14,3.06,3.06,0,0,1-1-.7l0,.41c-.35,9.76-3.57,18.76-7.37,27.61h0C405.08,859.89,405.51,860.12,405.52,860.1Z"/><path class="cls-16" d="M413.25,832.46a1,1,0,0,1,0,.14v-.12Z"/><path class="cls-17" d="M441.39,176c1.44-.82,2.89-1.61,4.28-2.52s2.46-1.79,3.78-2.56c-6,1.52-11.27,4.58-16.25,8.18a28.78,28.78,0,0,0,5.83,5.13h0C436.74,179.81,437.13,178.37,441.39,176Z"/><path class="cls-17" d="M439,182.43c-1-2.19-.71-3.37,1.1-4.6.9-.62,1.94-1,2.9-1.57a48.29,48.29,0,0,0,7.85-5.27,1.37,1.37,0,0,0,.45-1.05c-.07-.47-.55-.39-.95-.31-6.09,1.13-11.29,4.17-16.31,7.59-.61.4-.68,1.16-.81,1.84,5-3.6,10.24-6.66,16.25-8.18-1.32.77-2.51,1.72-3.78,2.56s-2.84,1.7-4.28,2.52c-4.26,2.41-4.65,3.85-2.36,8.23C439.74,183.57,439.25,183.07,439,182.43Z"/><path class="cls-18" d="M347.12,950.91a2.61,2.61,0,0,1,.28-.17,2.16,2.16,0,0,1-.54-.89v-.12c-4.15-1.38-7-5.67-6.94-10.7a5.53,5.53,0,0,0-.67,4,39.67,39.67,0,0,0,.82,4.48c1.22,4.43,3,8.58,6.66,11.63h0C346.2,956.36,345.84,953.6,347.12,950.91Z"/><path class="cls-18" d="M347.5,950.86s-.06-.09-.1-.12a2.61,2.61,0,0,0-.28.17c-1.28,2.69-.92,5.45-.39,8.22a2.74,2.74,0,0,0,.73-2.22C347.47,954.89,347.49,952.88,347.5,950.86Z"/><path class="cls-18" d="M347.46,950h0c-.21-.06-.4-.15-.6-.22v.12a2.16,2.16,0,0,0,.54.89l.09-.06Z"/><path class="cls-18" d="M347.49,950.68l-.09.06s.06.08.1.12h0Z"/><path class="cls-18" d="M346.86,949.73c0-.08,0-.16,0-.25A18,18,0,0,1,339.92,939C339.87,944.06,342.71,948.35,346.86,949.73Z"/><path class="cls-18" d="M346.87,949.48c0,.09,0,.17,0,.25.2.07.39.16.6.22Z"/><path class="cls-19" d="M576.15,879.35a3.65,3.65,0,0,1-.3-2.12,5.14,5.14,0,0,1-4.72.61c-3.62-1.13-7.54-1.56-10.33-4.56h0l.17.93a1.42,1.42,0,0,1,.65,1.53,8.91,8.91,0,0,0,.91,1.33c4.09,4.26,9.36,5.21,14.93,5.3h0A3.37,3.37,0,0,1,576.15,879.35Z"/><path class="cls-19" d="M575.85,877.23a6.38,6.38,0,0,0,0-1.45h0A3.12,3.12,0,0,1,572,877c-2.84-.91-5.75-1.62-8.52-2.76a6.94,6.94,0,0,0-2.68-.91c2.79,3,6.71,3.43,10.33,4.56A5.14,5.14,0,0,0,575.85,877.23Z"/><path class="cls-19" d="M576.66,880a2.44,2.44,0,0,1-.51-.63,3.37,3.37,0,0,0,1.31,3h0C577.57,881.44,577,880.76,576.66,880Z"/><path class="cls-20" d="M343.52,55.79c1.16.34,1-.54,1.29-1.23,2.34-5.68,5.13-11.11,9.42-15.62a16.93,16.93,0,0,0-5.75,3.16,10.61,10.61,0,0,0-4.23,5.95c-.61,2.53-1.23,5.09-.73,7.74Z"/><path class="cls-20" d="M343.52,55.79l1.06,1.64c3-7.44,2.7-6.75,9.89-17.77.09-.13-.15-.47-.24-.72-4.29,4.51-7.08,9.94-9.42,15.62C344.52,55.25,344.68,56.13,343.52,55.79Z"/><path class="cls-21" d="M410.51,829.93a1.72,1.72,0,0,1,1.85,1,3.53,3.53,0,0,1,.28-.85,18,18,0,0,1-.25-1.87c-.15-2.28-.85-4.63,1-6.59h0l0,0-1.65.07,0,.07c0,.86.12,1.74-.74,2.32h0c-.9,3-1.95,6-1.82,9.27C410.25,832.41,408.7,830.24,410.51,829.93Z"/><path class="cls-21" d="M412.39,828.17a18,18,0,0,0,.25,1.87,2.52,2.52,0,0,1,.7-.95l.06-7.51C411.54,823.54,412.24,825.89,412.39,828.17Z"/><path class="cls-21" d="M412.64,830a3.53,3.53,0,0,0-.28.85c.31.47.57,1,.86,1.48A13.69,13.69,0,0,1,412.64,830Z"/><path class="cls-21" d="M413.22,832.37a.67.67,0,0,1,.07.11c0-1.13,0-2.26,0-3.39h0a2.52,2.52,0,0,0-.7.95A13.69,13.69,0,0,0,413.22,832.37Z"/><path class="cls-21" d="M410.41,830.53a3.41,3.41,0,0,1,1.83,1.23q0-.45.12-.87a1.72,1.72,0,0,0-1.85-1c-1.81.31-.26,2.48-1.39,3.35h0C410.32,832.74,409.67,831.33,410.41,830.53Z"/><path class="cls-21" d="M412.36,830.89q-.08.42-.12.87a3.06,3.06,0,0,0,1,.7l0-.09C412.93,831.91,412.67,831.36,412.36,830.89Z"/><path class="cls-21" d="M413.22,832.37l0,.09,0,0A.67.67,0,0,0,413.22,832.37Z"/><path class="cls-22" d="M446.68,836.56h0c1.81,2.24,1.1,4.53.15,6.82h0s0,0,0,.06a4.74,4.74,0,0,0,1.84-2C450.66,838.32,452.28,837.86,446.68,836.56Z"/><polygon class="cls-22" points="446.86 843.37 446.86 843.37 446.86 843.37 446.86 843.37"/><path class="cls-22" d="M446.83,843.38c.95-2.29,1.66-4.58-.15-6.82l.12,6.83Z"/><path class="cls-23" d="M392.45,897.43a1,1,0,0,1,.77,0c1.07-2.31,2.24-4.56,3.37-6.83-.45-.26-.35-.78.08-1.47a33.63,33.63,0,0,0-4.22,8.27h0Z"/><path class="cls-23" d="M393.22,897.45c.2.12.27.38.13.85,1.9-2.22,2.73-5,4.12-7.51h0a1.89,1.89,0,0,1-.88-.17C395.46,892.89,394.29,895.14,393.22,897.45Z"/><path class="cls-23" d="M393.22,897.45a1,1,0,0,0-.77,0h0l.53.51.08-.16Z"/><path class="cls-23" d="M393.22,897.45l-.16.34L393,898c.13.11.25.23.37.35h0C393.49,897.83,393.42,897.57,393.22,897.45Z"/><path class="cls-23" d="M396.59,890.62l.21-.44a.41.41,0,0,0,.05-.09,3.64,3.64,0,0,1-.18-.94C396.24,889.84,396.14,890.36,396.59,890.62Z"/><path class="cls-23" d="M396.85,890.09a.41.41,0,0,1-.05.09l-.21.44a1.89,1.89,0,0,0,.88.17A1.3,1.3,0,0,1,396.85,890.09Z"/><path class="cls-24" d="M468,173a4.22,4.22,0,0,0-2.11-2.41h0c-.6,1.6-2.07,2.69-2.58,4.34A11.21,11.21,0,0,0,468,173Z"/><path class="cls-24" d="M462.76,173.94c-.09.16.37.63.57,1,.51-1.65,2-2.74,2.58-4.34C464,170.86,463.53,172.56,462.76,173.94Z"/><path class="cls-25" d="M460.79,165.93a6.8,6.8,0,0,0-2.44-2h0C458.14,165.86,459.1,166.34,460.79,165.93Z"/><path class="cls-25" d="M457.77,164.5c-.37.79-1.45,1.6-.45,2.48a2.09,2.09,0,0,0,2.64-.17,5.79,5.79,0,0,0,.83-.88c-1.69.41-2.65-.07-2.44-2C458.15,164.13,457.87,164.27,457.77,164.5Z"/><path class="cls-6" d="M405.54,855.27a4.91,4.91,0,0,0-.45,3h0C405.71,857.34,405.22,856.23,405.54,855.27Z"/><path class="cls-6" d="M405.75,854.84c-.08.14-.14.28-.21.43-.32,1,.17,2.07-.45,3h0C406.2,857.28,405.8,856,405.75,854.84Z"/><path class="cls-7" d="M411.68,821.69a2.21,2.21,0,0,0-.74,2.32h0C411.56,823.35,410.92,822.3,411.68,821.69Z"/><path class="cls-7" d="M411.68,821.69c-.76.61-.12,1.66-.74,2.31h0C411.8,823.43,411.7,822.55,411.68,821.69Z"/><path class="cls-22" d="M446.8,843.41c-.64.27-.47,1.11-1,1.46a1.73,1.73,0,0,0,1.05-1.44l-.05,0Z"/><path class="cls-22" d="M446.8,843.41v0c-.74.2-.94.79-1,1.48C446.33,844.52,446.16,843.68,446.8,843.41Z"/><path class="cls-22" d="M446.8,843.41v.05l0-.07Z"/><path class="cls-22" d="M446.8,843.46l.05,0s0,0,0-.06Z"/><path class="cls-22" d="M446.86,843.37h0Z"/><path class="cls-22" d="M446.8,843.46l.06-.09h0l0,0Z"/><path class="cls-22" d="M446.8,843.41l0,0h0Z"/><path class="cls-7" d="M285.1,221.62a1.32,1.32,0,0,0,.67,1.49h0C285.39,222.69,285.42,222.08,285.1,221.62Z"/><path class="cls-7" d="M285.1,221.62c.32.46.29,1.07.67,1.49h0A1.37,1.37,0,0,0,285.1,221.62Z"/><path class="cls-9" d="M561,874.21a1.28,1.28,0,0,0,.65,1.53h0C561.25,875.29,561.31,874.67,561,874.21Z"/><path class="cls-9" d="M561,874.21c.34.46.28,1.08.65,1.53h0A1.42,1.42,0,0,0,561,874.21Z"/><path class="cls-7" d="M284.8,219.68a1,1,0,0,1-.52-.53,1.37,1.37,0,0,0,.58,1.51h0A1.34,1.34,0,0,1,284.8,219.68Z"/><path class="cls-7" d="M285.06,219.8h0a1.23,1.23,0,0,1-.26-.12,1.34,1.34,0,0,0,.06,1h0C284.93,220.37,285,220.09,285.06,219.8Z"/><path class="cls-7" d="M284.8,219.68s0-.05,0-.08l-.54-.45A1,1,0,0,0,284.8,219.68Z"/><path class="cls-7" d="M285.06,219.8l-.24-.2s0,.06,0,.08A1.23,1.23,0,0,0,285.06,219.8Z"/><path class="cls-23" d="M396.67,889.14c.51-.5.36-1.26.75-1.81A1.93,1.93,0,0,0,396.67,889.14Z"/><path class="cls-23" d="M397.42,887.33c-.39.55-.24,1.31-.75,1.81A1.56,1.56,0,0,0,397.42,887.33Z"/><path class="cls-23" d="M391.55,899c.62-.34.48-1.13.9-1.6h0a1.77,1.77,0,0,0-.94,1.61l.05,0A0,0,0,0,0,391.55,899Z"/><path class="cls-23" d="M391.55,899v0a1.36,1.36,0,0,0,.91-1.61h0C392,897.9,392.17,898.69,391.55,899Z"/><polygon class="cls-23" points="392.45 897.43 392.45 897.42 392.44 897.43 392.45 897.43"/><polygon class="cls-23" points="392.45 897.42 392.45 897.42 392.44 897.43 392.45 897.42"/><polygon class="cls-23" points="392.44 897.43 392.44 897.43 392.44 897.43 392.44 897.43"/><polygon class="cls-23" points="392.45 897.42 392.44 897.43 392.44 897.43 392.45 897.42"/><polygon class="cls-23" points="392.44 897.43 392.44 897.43 392.45 897.44 392.45 897.43 392.44 897.43"/><path class="cls-7" d="M413.35,821.55c-.58-.62-1.16-1.28-1.65.07h0A1.22,1.22,0,0,1,413.35,821.55Z"/><path class="cls-7" d="M411.7,821.62h0l1.65-.07A1.22,1.22,0,0,0,411.7,821.62Z"/><path class="cls-23" d="M390,901.62c.53-.39.36-1.19.92-1.56A1.72,1.72,0,0,0,390,901.62Z"/><path class="cls-23" d="M390.87,900.06c-.56.37-.39,1.17-.92,1.56h0A1.52,1.52,0,0,0,390.87,900.06Z"/><path class="cls-23" d="M391.51,899.06h0v0a.92.92,0,0,0-.61,1c.19-.33.53-.55.64-.94Z"/><path class="cls-23" d="M391.54,899.05h0c-.11.39-.45.61-.64.94A1.06,1.06,0,0,0,391.54,899.05Z"/><path class="cls-23" d="M391.55,899a0,0,0,0,1,0,0l0,0Z"/><path class="cls-23" d="M391.51,899.06h0v0Z"/><path class="cls-23" d="M391.56,899l-.05,0v0Z"/><path class="cls-23" d="M391.56,899l-.05.06h0l0,0Z"/><path class="cls-23" d="M391.54,899v0h0v0Z"/><path class="cls-7" d="M355.19,106.31c-2.51,1.73-4.95,3.56-7.47,5.29-5.3,3.63-9.65,8.31-14.11,12.86-.87.89-1.66,1.87-2.52,2.77-10.24,10.62-17.53,23.17-23.66,36.45a63.77,63.77,0,0,0-5.51,22.9c-.22,3.59-.64,7.17-.93,10.76a7,7,0,0,1-1.15,3.5c-.38.55-1,.45-1.48.62h0c1.2,1.14,2.85,1.55,4.07,2.72s2.53.83,3.77-.19a11.49,11.49,0,0,0,2.52-3.26c2.39-4.15,3.21-8.82,4.55-13.31A203.8,203.8,0,0,1,321,166c1.9-4.47,4.46-8.59,6.55-12.95a29.77,29.77,0,0,1,1.92-3.2,147.66,147.66,0,0,1,11.43-15.76c2.52-2.91,5.1-5.81,7.54-8.81,3.41-4.18,7.8-7.4,12-10.75,2.81-2.22,5.52-4.47,6.43-8.33s.91-4.36-3-5.55a2.08,2.08,0,0,1-1.54-1.72A26.32,26.32,0,0,1,355.19,106.31Z"/><path class="cls-26" d="M298.36,201.46h0c3-5.79,2.12-12.23,2.77-18.36,1.05-9.88,4.54-18.8,8.95-27.5,7-13.73,16.29-25.72,27.1-36.6a70.44,70.44,0,0,1,10.58-8.7c4.38-3,8.69-6,12.21-10,.62-.72,1.25-1.53,2.38-1.43-.27-.68-.66-1.29-1.45-1.3a14.62,14.62,0,0,0-2.88.25,36.71,36.71,0,0,0-10,4,58.8,58.8,0,0,0-15.54,12.41c-9,9.69-17.43,19.79-23.69,31.54a179.3,179.3,0,0,0-8.43,17.64c-4.16,10.44-4.45,21.38-4.19,32.37A7.77,7.77,0,0,0,298.36,201.46Z"/><path class="cls-26" d="M360,100.33c-3.52,4-7.83,7-12.21,10a70.44,70.44,0,0,0-10.58,8.7c-10.81,10.88-20.14,22.87-27.1,36.6-4.41,8.7-7.9,17.62-8.95,27.5-.65,6.13.25,12.57-2.77,18.36.51-.17,1.1-.07,1.48-.62a7,7,0,0,0,1.15-3.5c.29-3.59.71-7.17.93-10.76a63.77,63.77,0,0,1,5.51-22.9c6.13-13.28,13.42-25.83,23.66-36.45.86-.9,1.65-1.88,2.52-2.77,4.46-4.55,8.81-9.23,14.11-12.86,2.52-1.73,5-3.56,7.47-5.29a26.32,26.32,0,0,0,7.16-7.41C361.22,98.8,360.59,99.61,360,100.33Z"/><path class="cls-27" d="M377.87,98.43c.64-.23,1.36-.23,2-.41a3.33,3.33,0,0,0,2.18-1.79,38.05,38.05,0,0,0,1.87-4.59,2.68,2.68,0,0,0-1.36-3.51,13.63,13.63,0,0,1-.5,2.4,1.65,1.65,0,0,1-2.95.4c-1-1.12-1-1.73.06-3.57h0l0,0a11.77,11.77,0,0,0-5.65.86c-.67.25-1.4.55-1.56,1.23a3.28,3.28,0,0,1-2.52,2.42,1,1,0,0,0-.58,1.38C370.53,97.46,372.8,100.32,377.87,98.43Z"/><path class="cls-28" d="M546.33,87c3.84-.21,4.34-1.05,3.1-5.06,0-.1,0-.17-.08-.26-1.51.35-1.75-1-2.22-2a1.2,1.2,0,0,1,0,.19A2.48,2.48,0,0,1,545,81.61a51,51,0,0,0-9.39,3.22,5.74,5.74,0,0,1-1.24.39c.7.18,1.39.48,2.07.67A30,30,0,0,0,546.33,87Z"/><path class="cls-28" d="M531.87,85.52a2.84,2.84,0,0,1,.72-.32,4.25,4.25,0,0,1-.74-.3,1.46,1.46,0,0,1,.09.52S531.89,85.48,531.87,85.52Z"/><path class="cls-28" d="M531.87,85.52s0-.06.07-.1a1.46,1.46,0,0,0-.09-.52,1.42,1.42,0,0,1-.18-.08c0,.27,0,.54,0,.8h0Z"/><path class="cls-28" d="M549.35,81.69c0,.09,0,.16.08.26,1.24,4,.74,4.85-3.1,5.06a30,30,0,0,1-9.88-1.12c-.68-.19-1.37-.49-2.07-.67a3.74,3.74,0,0,1-1.79,0,2.84,2.84,0,0,0-.72.32,1,1,0,0,1-.09.13,31.69,31.69,0,0,1,3.06.91c4.47,1.74,9.13,1.77,13.81,1.59a2.52,2.52,0,0,0,2.17-1,5,5,0,0,0,.83-3.53A2.61,2.61,0,0,0,550,81.48h0A3.72,3.72,0,0,1,549.35,81.69Z"/><path class="cls-28" d="M531.68,85.62h0l.1,0a1,1,0,0,0,.09-.13Z"/><path class="cls-28" d="M532.59,85.2a3.3,3.3,0,0,1,1.79,0,5.74,5.74,0,0,0,1.24-.39A51,51,0,0,1,545,81.61a2.48,2.48,0,0,0,2.12-1.73,1.2,1.2,0,0,0,0-.19,2.38,2.38,0,0,0-.45-.72c-.11.7-.3,1.44-1.09,1.53a34,34,0,0,0-11.15,3.76,6,6,0,0,1-2.61.56s0,.05,0,.08A4.25,4.25,0,0,0,532.59,85.2Z"/><path class="cls-28" d="M531.67,84.82a1.42,1.42,0,0,0,.18.08s0-.06,0-.08Z"/><path class="cls-28" d="M534.38,85.22a3.3,3.3,0,0,0-1.79,0A3.74,3.74,0,0,0,534.38,85.22Z"/><path class="cls-28" d="M549.35,81.69l-.1-.37a1.57,1.57,0,0,1-.89-.75,3.59,3.59,0,0,0-1.24-1.3,2,2,0,0,1,0,.42C547.6,80.72,547.84,82,549.35,81.69Z"/><path class="cls-28" d="M550,81.48h0a2.94,2.94,0,0,1-.75-.16l.1.37A3.72,3.72,0,0,0,550,81.48Z"/><path class="cls-28" d="M547.12,79.27a3.41,3.41,0,0,0-.44-.3,2.38,2.38,0,0,1,.45.72A2,2,0,0,0,547.12,79.27Z"/><path class="cls-26" d="M382.58,88.13a.75.75,0,0,1-.23-.6l-3.15-.17C379.73,90.18,381,89.91,382.58,88.13Z"/><path class="cls-26" d="M379.2,87.36h0c-1.05,1.84-1.06,2.45-.06,3.57a1.65,1.65,0,0,0,2.95-.4,13.63,13.63,0,0,0,.5-2.4C381,89.91,379.73,90.18,379.2,87.36Z"/><path class="cls-27" d="M382.35,87.53c-1.28-1.33-1.57-1.35-3.17-.19h0C380.27,86.78,381.35,86.51,382.35,87.53Z"/><path class="cls-27" d="M379.16,87.36h0v0Z"/><path class="cls-27" d="M379.16,87.36l0,0h0l0,0Z"/><path class="cls-27" d="M379.19,87.34h0v0l3.15.17C381.35,86.51,380.27,86.78,379.19,87.34Z"/><path class="cls-27" d="M379.2,87.34h0l0,0h0l0,0v0h0Z"/><path class="cls-29" d="M576.35,878.73c.93-1.59,2.55-1.57,4.12-1.45,5.88.45,11.77.15,17.66.11-4.19-.57-8.37-1.27-12.54-2-3.07-.57-6.07-.75-8.82,1.13-.09.09-.19.16-.28.24A7.61,7.61,0,0,1,576.35,878.73Z"/><path class="cls-29" d="M576.77,876.49c2.75-1.88,5.75-1.7,8.82-1.13,4.17.76,8.35,1.46,12.54,2a92.64,92.64,0,0,1,10.79.46s0-.05,0-.08.17-.27.26-.27h0a65.72,65.72,0,0,1-6.57-.76c-6.19-.65-12.33-1.62-18.41-2.86-2.64-.54-4.87.3-7.26.72-.42.08-.73.77-1.09,1.18h0a1.53,1.53,0,0,1,.65,1C576.58,876.65,576.68,876.58,576.77,876.49Z"/><path class="cls-29" d="M580.47,877.28c-1.57-.12-3.19-.14-4.12,1.45a1.67,1.67,0,0,0,.31,1.25c.13-.71.35-1.41,1.14-1.56a7.5,7.5,0,0,1,3.7.21,16.25,16.25,0,0,0,8.24.28,40.58,40.58,0,0,1,7.83-.6c2.72,0,5.45,0,8.17,0-2.54-.25-5.08-.54-7.61-.89C592.24,877.43,586.35,877.73,580.47,877.28Z"/><path class="cls-29" d="M609.23,878.26c-.25-.13-.33-.26-.31-.41a92.64,92.64,0,0,0-10.79-.46c2.53.35,5.07.64,7.61.89l3.49,0Z"/><path class="cls-29" d="M608.91,877.77s0,.05,0,.08a2.66,2.66,0,0,1,.28,0l0-.38h0C609.08,877.5,609,877.59,608.91,877.77Z"/><path class="cls-29" d="M609.23,878.26l0-.38a2.66,2.66,0,0,0-.28,0C608.9,878,609,878.13,609.23,878.26Z"/><path class="cls-29" d="M576.35,878.73a7.61,7.61,0,0,0,.14-2,5.84,5.84,0,0,1-.64.5,3.65,3.65,0,0,0,.3,2.12,2.33,2.33,0,0,1,0-.36A2.26,2.26,0,0,1,576.35,878.73Z"/><path class="cls-29" d="M575.85,877.23a5.84,5.84,0,0,0,.64-.5,1.53,1.53,0,0,0-.65-1A6.38,6.38,0,0,1,575.85,877.23Z"/><path class="cls-29" d="M576.35,878.73a2.26,2.26,0,0,0-.16.26,2.33,2.33,0,0,0,0,.36,2.44,2.44,0,0,0,.51.63A1.67,1.67,0,0,1,576.35,878.73Z"/><path class="cls-26" d="M327.81,310.66a177.56,177.56,0,0,1,17.86-22c4.17-4.29,8.58-8.33,14.31-10.53-.89-1.27-2.29-.6-3.44-.89h0a15.62,15.62,0,0,0-5.6,2.65c-6.41,4-11.78,9.25-16.8,14.85A235,235,0,0,0,313,322.63a395.29,395.29,0,0,0-38.1,73c-5.9,15-11.08,30.22-13.77,46.2a108.13,108.13,0,0,0-1,17.43,8.09,8.09,0,0,0,2.94,6.19,1.76,1.76,0,0,0,2.83-.44c1.37-2.34,2.3-4.78,1.36-7.52a14.76,14.76,0,0,1-.34-6.6,159.83,159.83,0,0,1,5.45-26A337.51,337.51,0,0,1,290.52,377C301.11,353.86,313.17,331.53,327.81,310.66Z"/><path class="cls-26" d="M268.06,491.29c-1.59-.81-3.18-1.69-5.09-1.2a32.67,32.67,0,0,1-3.24.67c-2.87.44-4.2,2.43-4.87,5a20.14,20.14,0,0,0-.38,3.29c.25,1.76.39,3.13.67,4.48a1.28,1.28,0,0,0,1.92.84c1.65-1.35,3.19-1,5-.31s3.2.16,4.13-1.66a47.62,47.62,0,0,0,2.55-6.08A11,11,0,0,0,269,493,1.82,1.82,0,0,0,268.06,491.29Z"/><path class="cls-30" d="M360,278.18a5.89,5.89,0,0,0,1.19,0c.53-.11,1-.38,1.05-1s-.61-.86-1.09-.85c-1.58.05-3.24-.16-4.59,1C357.82,277.07,359.34,276,360,278.18Z"/><path class="cls-30" d="M360,278.18c-.64-2.23-2.16-1.11-3.44-.89h0C357.69,277.58,359.09,276.91,360,278.18Z"/><path class="cls-26" d="M677.1,196.67c-5.58-1.08-11.23-1.84-16.86-2.59-4.26-.56-8.55-.93-12.83-1.32-4.56-.41-9.11-.9-13.68-1.06-6.11-.23-12.22-.15-18.33-.25s-12.44.66-18.69.34c-2.61-.14-5.25.42-7.88.45a172.34,172.34,0,0,0-21.52,2.14,347.2,347.2,0,0,0-37.53,7.42,339.43,339.43,0,0,0-59.88,21.46,329.61,329.61,0,0,0-119.6,95,314,314,0,0,0-30.91,47.87,305.77,305.77,0,0,0-24,60.67,264.69,264.69,0,0,0-7.22,33.32c-.82,5.77-1.6,11.54-2.4,17.31h0c.44,4-.47,8-.59,11.93-.28,8.53-.39,17.06-.14,25.59,0,1.1-.08,2.2-.13,3.29q.51,7.37,1,14.71s0,0,0,0a11.38,11.38,0,0,1,.6,5.24c.07.72.15,1.44.22,2.16h0c1.12,2.45.82,5.16,1.25,7.73,1.06,6.28,2.18,12.54,3.53,18.76a14,14,0,0,1,.18,2.06h0a3.42,3.42,0,0,1,.67,2.62c.09.46.17.92.26,1.38h0c1,3.57,2.11,7.13,3.11,10.71a288.37,288.37,0,0,0,15.2,41.61c1.42,3.14,2.81,6.3,4.22,9.44h0c1,1.68,2,3.31,2.91,5a285.77,285.77,0,0,0,46.72,66.11A310.44,310.44,0,0,0,401,738.35a320,320,0,0,0,155.83,63.47c8,.95,16,1.87,24,2.12,16.79.53,33.58.57,50.33-1.32,9.11-1,18.19-2.14,27.19-3.8a329.68,329.68,0,0,0,58.06-16.16c1.35-.52,2.67-1.06,4-1.59V760.76c-6.84,2.92-13.76,5.65-20.79,8.14a351.28,351.28,0,0,1-37.49,10.71c-5,1.16-10,1.93-15.06,2.82-4.21.75-8.49,1.17-12.69,1.87-3.55.58-7.2.21-10.68,1.35a12.16,12.16,0,0,1-3.32.14,20.88,20.88,0,0,0-6.18.6,10.67,10.67,0,0,1-3.31.2c-5.28,0-10.55,0-15.83,0h-15a15.9,15.9,0,0,1-5.77-.6,4.89,4.89,0,0,0-2.06-.18c-4.6.38-9.14-.42-13.64-1-9.45-1.19-18.87-2.5-28.19-4.57-7.69-1.71-15.42-3.29-23-5.52a261.39,261.39,0,0,1-25.12-8.68c-9.11-3.73-18.14-7.64-26.9-12.15-7.28-3.74-14.34-7.85-21.36-12.06a245.07,245.07,0,0,1-23.87-16.55q-8.7-6.7-17-14c-5.64-5-10.82-10.35-16.15-15.61-3.64-3.59-6.73-7.7-10.14-11.51a215.21,215.21,0,0,1-13.33-17,237.86,237.86,0,0,1-14.12-21.52c-4.14-7.22-8.19-14.48-11.78-22a190.19,190.19,0,0,1-8.66-20.25c-1.4-4.05-3.15-8-4.49-12-1.64-5-3.05-10.07-4.51-15.12-2.29-8-4-16.09-5.57-24.23-.86-4.47-1-9.09-2.13-13.48s-.29-8.56-1.37-12.78c-.61-2.35-.16-5-.2-7.48a18.2,18.2,0,0,0-.55-5.77,4.73,4.73,0,0,1,0-2.86,18.19,18.19,0,0,0,.53-5.77c0-4.58,0-9.17.05-13.75a58.08,58.08,0,0,1,.62-9.1c.47-2.83.62-5.75,1-8.63.9-7.12,1.85-14.23,3.39-21.25,1.49-6.75,3.12-13.46,4.95-20.12,1.88-6.82,4.14-13.52,6.64-20.13,2.19-5.83,4.6-11.58,7-17.32,1-2.43,2.41-4.7,3.43-7.13,2.32-5.5,5.4-10.62,8.09-15.93,2-3.94,4.47-7.65,6.78-11.43a212.21,212.21,0,0,1,14.19-20.45,141.21,141.21,0,0,1,11.56-13.6c3.15-3.12,5.55-7,9-9.75s6.39-6.48,9.62-9.69c2.67-2.63,5.24-5.37,8-7.92,4-3.78,8.28-7.35,12.41-11,4.66-4.16,9.65-7.88,14.57-11.69,5.46-4.22,11.28-8,17.09-11.79a231.1,231.1,0,0,1,21.56-12.51c4.33-2.18,8.68-4.32,13-6.51,7.06-3.59,14.41-6.48,21.75-9.38s14.55-5.36,22-7.56a298.12,298.12,0,0,1,30.18-7.48c5.16-1,10.28-2.1,15.45-3,3-.53,6-.74,9-1.1,4-.49,7.93-1,11.9-1.46,1-.12,1.94-.16,2.91-.2,3.17-.12,6.37.24,9.5-.72a10.42,10.42,0,0,1,2.91-.09l25.83,0a26.48,26.48,0,0,1,4.52.49,36.66,36.66,0,0,0,6.63.32,82,82,0,0,1,14.41,1.47c2.86.47,5.77.64,8.63,1.06,3.55.53,7.11,1,10.62,1.82,7.14,1.58,14.37,2.78,21.43,4.79,9.46,2.68,18.89,5.37,28.12,8.84l.89.35V207.8q-6.44-2.13-13-4C697.45,200.93,687.31,198.63,677.1,196.67Z"/><path class="cls-31" d="M292.31,574.11a1.54,1.54,0,0,1-.67.79c1.53,5.3,3,10.62,4.61,15.88A278.77,278.77,0,0,0,306,617.65c2.46,5.71,5,11.39,8,16.87.12.22.33.51.52.53s.44-.23.67-.37h0c-3.65-5-5.54-10.82-8-16.37C300.9,604,296.27,589.18,292.31,574.11Z"/><path class="cls-31" d="M295.74,583.63c-1-3.58-2.07-7.14-3.11-10.71h0a6.5,6.5,0,0,1-.32,1.19c4,15.07,8.59,29.92,14.87,44.2,2.44,5.55,4.33,11.4,8,16.37-1.41-3.14-2.8-6.3-4.22-9.44A288.37,288.37,0,0,1,295.74,583.63Z"/><path class="cls-32" d="M286,541a12.87,12.87,0,0,1-.18-2.77,10,10,0,0,0,0-1.55,4.09,4.09,0,0,1-.07-.6,21.75,21.75,0,0,0-.72-3.37c.37-5-1.15-9.86-.9-14.84-.19-7.12-.27-14.23,0-21.34v-.58c0-1.2.36-2.53-.78-3.5h0c0,.28,0,.55,0,.83-.17,3.86.3,7.74-.73,11.58a9.89,9.89,0,0,0,.09,4.95,26.79,26.79,0,0,1,.6,7c0,2.36-.34,4.8.15,7.06a51.5,51.5,0,0,1,.74,9.08,3.61,3.61,0,0,0,.15,1.24c.81,1.85.6,3.81.68,5.74,1,.63.78,1.61.77,2.53h0c0,1.1,0,2.19.07,3.28a2,2,0,0,0,.74-1.31C286.38,543.25,286.19,542.1,286,541Z"/><path class="cls-32" d="M284.16,515.08c0-6.19,0-12.39-.06-18.59-.24,7.11-.16,14.22,0,21.34-.25,5,1.27,9.85.9,14.84a21.75,21.75,0,0,1,.72,3.37c0-1,.2-2.09.14-3.11l0,0s0,0,0,0q-.5-7.35-1-14.71C283.92,517.34,284.16,516.17,284.16,515.08Z"/><path class="cls-32" d="M285.81,538.19A12.87,12.87,0,0,0,286,541c.2,1.14.39,2.29.58,3.44a3,3,0,0,0,.05-.44c0-1.19.07-2.39.11-3.59h0c-.07-.72-.15-1.44-.22-2.16a3.29,3.29,0,0,1-.69-1.56A10,10,0,0,1,285.81,538.19Z"/><path class="cls-33" d="M292.14,573.48h0a4.84,4.84,0,0,1-.48-1.87,6.86,6.86,0,0,0-.69-3.18c-1.76-7.75-3-15.6-4.3-23.44a3.09,3.09,0,0,1-.84.73c.52,2.7,1.2,5.39,1.55,8.11.89,7.14,2.8,14.06,4.26,21.08h0C292.09,574.56,292,574,292.14,573.48Z"/><path class="cls-33" d="M286.67,545c1.31,7.84,2.54,15.69,4.3,23.44a6.86,6.86,0,0,1,.69,3.18,4.84,4.84,0,0,0,.48,1.87h0a.89.89,0,0,1,.49-.56c-.09-.46-.17-.92-.26-1.38-.92-.69-.72-1.68-.68-2.62h0a14,14,0,0,0-.18-2.06c-1.35-6.22-2.47-12.48-3.53-18.76-.43-2.57-.13-5.28-1.25-7.73h0C286.68,541.9,287.76,543.62,286.67,545Z"/><path class="cls-33" d="M292.31,574.11c-.05-.21-.11-.42-.17-.63-.15.48-.05,1.08-.5,1.42h0A1.54,1.54,0,0,0,292.31,574.11Z"/><path class="cls-33" d="M292.14,573.48c.06.21.12.42.17.63a6.5,6.5,0,0,0,.32-1.19h0A.89.89,0,0,0,292.14,573.48Z"/><path class="cls-33" d="M286.67,545c0-.19-.06-.38-.1-.58a2,2,0,0,1-.74,1.31A3.09,3.09,0,0,0,286.67,545Z"/><path class="cls-33" d="M286.57,544.4c0,.2.07.39.1.58,1.09-1.36,0-3.08.06-4.61,0,1.2-.08,2.4-.11,3.59A3,3,0,0,1,286.57,544.4Z"/><path class="cls-34" d="M285.74,477.4c-.23.33-.6.64-.65,1-.61,4.67-1.19,9.34-1.77,14h0a2.06,2.06,0,0,1,.94.39C284.52,487.66,285,482.52,285.74,477.4Z"/><path class="cls-34" d="M284.48,495.69c.31,7.5-.37,15,.4,22.52.05-1.09.16-2.19.13-3.29-.25-8.53-.14-17.06.14-25.59.12-4,1-7.92.59-11.93h0c-.75,5.12-1.22,10.26-1.48,15.4C285.14,493.5,284.45,494.8,284.48,495.69Z"/><path class="cls-34" d="M284.1,495.91v.58c0-1.23.09-2.46.16-3.69a2.06,2.06,0,0,0-.94-.39C284.46,493.38,284.09,494.71,284.1,495.91Z"/><path class="cls-34" d="M284.48,495.69c0-.89.66-2.19-.22-2.89-.07,1.23-.11,2.46-.16,3.69,0,6.2,0,12.4.06,18.59,0,1.09-.24,2.26.72,3.13C284.11,510.71,284.79,503.19,284.48,495.69Z"/><path class="cls-33" d="M285.76,542.43c-.68-.71,0-1.83-.77-2.53C285,540.83,284.86,541.78,285.76,542.43Z"/><path class="cls-33" d="M285,539.9c.75.7.09,1.82.77,2.53h0C285.77,541.51,286,540.53,285,539.9Z"/><path class="cls-33" d="M286.51,538.2a11.38,11.38,0,0,0-.6-5.24C286.61,534.65,285.77,536.52,286.51,538.2Z"/><path class="cls-33" d="M285.82,536.64c0-.2-.05-.4-.07-.6A4.09,4.09,0,0,0,285.82,536.64Z"/><path class="cls-33" d="M285.75,536c0,.2.06.4.07.6a3.29,3.29,0,0,0,.69,1.56c-.74-1.68.1-3.55-.6-5.24l0,0C286,534,285.71,535,285.75,536Z"/><path class="cls-31" d="M291.7,568.92c.58.78.06,1.85.67,2.62A3.42,3.42,0,0,0,291.7,568.92Z"/><path class="cls-31" d="M292.37,571.54c-.61-.77-.09-1.84-.67-2.62h0C291.65,569.86,291.45,570.85,292.37,571.54Z"/><path class="cls-9" d="M670,762.72c-1.33.35-2.71.53-4.07.78-4.6,1.6-9.39,2.33-14.14,3.25-7.63,1.48-15.33,2.52-23.06,3.41a253.55,253.55,0,0,1-27.4,1.76c-2.49,0-5,.44-7.46.37a347.85,347.85,0,0,1-46-3.78,291.9,291.9,0,0,1-64.06-17.73,269.75,269.75,0,0,1-83.45-53.28,263.39,263.39,0,0,1-55.64-74.82,255.55,255.55,0,0,1-26.5-93.16,266.27,266.27,0,0,1-.54-37A250.77,250.77,0,0,1,321,462.7,310.47,310.47,0,0,1,334.06,412a20.77,20.77,0,0,1,2.06-4.53,33.23,33.23,0,0,0,2.2-4.48,288.73,288.73,0,0,1,36.14-60.21q8.71-11.19,18.46-21.48a296.89,296.89,0,0,1,57.08-47,310.65,310.65,0,0,1,57.78-28.53A93.58,93.58,0,0,1,520,241.64h0a27.05,27.05,0,0,1,5.48-1.87,309.2,309.2,0,0,1,42.9-9.74,33,33,0,0,1,3.31-.19.49.49,0,0,1,.65-.07,3.59,3.59,0,0,1,.76-.26,15.82,15.82,0,0,1,5.27-.58c3.91-1,8-1.08,12-1.41q14.71-1.22,29.5-1a301.33,301.33,0,0,1,32.32,2.27,295,295,0,0,1,43.54,8.94,7.27,7.27,0,0,1,.75.35h0a8.41,8.41,0,0,1,4.05.65q10.13,3.06,20,6.85V232.32l-.89-.35c-9.23-3.47-18.66-6.16-28.12-8.84-7.06-2-14.29-3.21-21.43-4.79-3.51-.77-7.07-1.29-10.62-1.82-2.86-.42-5.77-.59-8.63-1.06A82,82,0,0,0,636.34,214a36.66,36.66,0,0,1-6.63-.32,26.48,26.48,0,0,0-4.52-.49l-25.83,0a10.42,10.42,0,0,0-2.91.09c-3.13,1-6.33.6-9.5.72-1,0-2,.08-2.91.2-4,.47-7.93,1-11.9,1.46-3,.36-6.06.57-9,1.1-5.17.91-10.29,2-15.45,3a298.12,298.12,0,0,0-30.18,7.48q-11.16,3.3-22,7.56c-7.34,2.9-14.69,5.79-21.75,9.38-4.32,2.19-8.67,4.33-13,6.51a231.1,231.1,0,0,0-21.56,12.51c-5.81,3.77-11.63,7.57-17.09,11.79-4.92,3.81-9.91,7.53-14.57,11.69-4.13,3.68-8.36,7.25-12.41,11-2.74,2.55-5.31,5.29-8,7.92-3.23,3.21-6,6.82-9.62,9.69s-5.88,6.63-9,9.75a141.21,141.21,0,0,0-11.56,13.6,212.21,212.21,0,0,0-14.19,20.45c-2.31,3.78-4.78,7.49-6.78,11.43-2.69,5.31-5.77,10.43-8.09,15.93-1,2.43-2.41,4.7-3.43,7.13-2.42,5.74-4.83,11.49-7,17.32-2.5,6.61-4.76,13.31-6.64,20.13-1.83,6.66-3.46,13.37-4.95,20.12-1.54,7-2.49,14.13-3.39,21.25-.37,2.88-.52,5.8-1,8.63a58.08,58.08,0,0,0-.62,9.1c-.05,4.58,0,9.17-.05,13.75a18.19,18.19,0,0,1-.53,5.77,4.73,4.73,0,0,0,0,2.86,18.2,18.2,0,0,1,.55,5.77c0,2.5-.41,5.13.2,7.48,1.08,4.22.31,8.54,1.37,12.78s1.27,9,2.13,13.48c1.55,8.14,3.28,16.26,5.57,24.23,1.46,5.05,2.87,10.12,4.51,15.12,1.34,4.06,3.09,8,4.49,12a190.19,190.19,0,0,0,8.66,20.25c3.59,7.51,7.64,14.77,11.78,22a237.86,237.86,0,0,0,14.12,21.52,215.21,215.21,0,0,0,13.33,17c3.41,3.81,6.5,7.92,10.14,11.51,5.33,5.26,10.51,10.65,16.15,15.61s11.18,9.52,17,14a245.07,245.07,0,0,0,23.87,16.55c7,4.21,14.08,8.32,21.36,12.06,8.76,4.51,17.79,8.42,26.9,12.15a261.39,261.39,0,0,0,25.12,8.68c7.55,2.23,15.28,3.81,23,5.52,9.32,2.07,18.74,3.38,28.19,4.57,4.5.58,9,1.38,13.64,1a4.89,4.89,0,0,1,2.06.18,15.9,15.9,0,0,0,5.77.6h15c5.28,0,10.55,0,15.83,0a10.67,10.67,0,0,0,3.31-.2,20.88,20.88,0,0,1,6.18-.6,12.16,12.16,0,0,0,3.32-.14c3.48-1.14,7.13-.77,10.68-1.35,4.2-.7,8.48-1.12,12.69-1.87,5-.89,10.09-1.66,15.06-2.82a351.28,351.28,0,0,0,37.49-10.71c7-2.49,14-5.22,20.79-8.14V744.67A302.5,302.5,0,0,1,670,762.72ZM323.68,425c2.13-5.83,4.21-11.67,6.38-17.49.77-2.05,1.73-4,2.61-6,0-.07.25-.06.38-.09-.3.46.85.05.33.25A37.07,37.07,0,0,1,330.6,411c-2.35,5.69-4.53,11.44-6.79,17.16A3.16,3.16,0,0,1,323.68,425Z"/><path class="cls-35" d="M330.6,411a37.07,37.07,0,0,0,2.78-9.36c.52-.2-.63.21-.33-.25-.13,0-.34,0-.38.09-.88,2-1.84,4-2.61,6-2.17,5.82-4.25,11.66-6.38,17.49a3.16,3.16,0,0,0,.13,3.15C326.07,422.42,328.25,416.67,330.6,411Z"/><path class="cls-7" d="M669.47,761.71c3.95-1.22,7.94-2.31,11.91-3.46,2.38-.7,4.79-1.34,7.13-2.14,7.44-2.56,14.79-5.32,22-8.45,3.36-1.45,6.64-3,9.91-4.65V723.38c-2.5,1.34-5,2.66-7.59,3.87-9.15,4.32-18.41,8.39-28,11.78q-5.08,1.82-10.18,3.61A198.58,198.58,0,0,1,646.24,750c-5.16,1-10.25,2.33-15.44,3-3.14.41-6.24,1.32-9.46,1.1-2.37-.16-4.58,1-7,.86a27.71,27.71,0,0,0-7,.56c-2.56.48-5.26.19-7.9.25a26.39,26.39,0,0,0-7,.59,9.33,9.33,0,0,1-5.36-.1,14.76,14.76,0,0,0-4.52-.48c-4.31,0-8.62,0-12.92,0-2.76,0-5.5-.29-8.26-.57-3.56-.36-7.11-1.23-10.71-1.06-1.87.09-3.53-.67-5.32-.87A166.76,166.76,0,0,1,515,747c-6.36-1.94-12.8-3.59-19.12-5.62a126.6,126.6,0,0,1-12-4.63c-4.71-2-9.32-4.3-13.95-6.5-11.18-5.3-21.63-11.83-31.94-18.63-7.4-4.88-14.4-10.29-21.39-15.73-2.73-2.12-5.05-4.78-7.86-6.77-3.41-2.42-5.93-5.84-9.47-8.07a13.78,13.78,0,0,1-2.13-2c-2.66-2.65-5.3-5.31-8-8a111.9,111.9,0,0,1-8.63-10.08c-2.76-3.46-5.63-6.83-8.4-10.29a182.88,182.88,0,0,1-16-24.25c-3.22-5.68-6.1-11.52-9-17.36a157.49,157.49,0,0,1-6.95-16.46,284.28,284.28,0,0,1-9.82-33.86c-.88-3.89-1.46-7.86-2-11.82a46.93,46.93,0,0,0-1-5.28c-.91-3.53-.26-7.2-1.38-10.69a14,14,0,0,1-.14-3.73c-.07-2.21.13-4.42-.62-6.59a10.68,10.68,0,0,1-.19-3.31c0-6.67,0-13.34,0-20a47.14,47.14,0,0,1,.6-7.84,73.37,73.37,0,0,0,.93-8.64c.15-3.06.8-6,1.16-9,.61-5.05,2.07-10,2.85-15a121.07,121.07,0,0,1,4-15.67,190.74,190.74,0,0,1,8.95-25c1.83-4,3.45-8.17,5.37-12.16,1.68-3.5,3.58-6.89,5.5-10.26q6.48-11.39,13.95-22.15,5.43-7.84,11.44-15.27c3.22-4,6.66-7.78,9.93-11.7,6-7.17,13-13.31,19.39-20,3.17-1.8,5.34-4.79,8.29-6.9,2.45-1.76,4.54-4,7-5.9,9.77-7.5,19.45-15.12,29.93-21.64,4.59-2.85,9.15-5.75,14-8.17,2.35-1.18,4.55-2.66,6.92-3.81q11-5.36,22.43-9.89c4.77-1.88,9.52-3.8,14.31-5.61,8.68-3.29,17.5-6.16,26.4-8.81,7-2.1,14.15-3.78,21.35-5.18a22.17,22.17,0,0,1,5.36-.46,25.33,25.33,0,0,0,9-1.22,29,29,0,0,1,9.83-1.34,17.08,17.08,0,0,0,6.18-.59,10.61,10.61,0,0,1,3.3-.21c4.17,0,8.36.2,12.5-.09,4.7-.34,9.37.16,14.05.08s9.17,0,13.75,0a12.78,12.78,0,0,1,4.12.43,7.53,7.53,0,0,0,2.45.35c5.15-.09,10.17.91,15.24,1.52a238.7,238.7,0,0,1,26.82,5.21,159.05,159.05,0,0,1,16.29,4.83c3.65,1.29,7.41,2.27,11,3.69s7.3,2.85,10.92,4.32V248.45l-.53-.2c-5-1.76-9.92-3.55-14.92-5.18a221.94,221.94,0,0,0-29.31-7.45c-3-.54-6-1.15-8.94-1.77-3.24-.67-6.54-1-9.78-1.65-2.72-.5-5.51-.42-8.19-1.21a13.27,13.27,0,0,0-3.29-.31,15.07,15.07,0,0,1-4.11-.5,11,11,0,0,0-2.88-.32c-2.34-.1-4.7.11-7-.69a9.23,9.23,0,0,0-2.89-.15q-14.79,0-29.59,0a10.77,10.77,0,0,0-4.5.57,1.79,1.79,0,0,1-.82.16c-5.14-.35-10.17,1.15-15.31.95h0a1.75,1.75,0,0,1-1.69.78l-1.67,0-.85-.78.85.78-.85-.78h-.8a2.14,2.14,0,0,1-1.41.78,90.06,90.06,0,0,0-14.18,2.81c-2.25.62-4.59.93-6.88,1.37-9.34,1.83-18.71,3.52-27.81,6.39-1.09.34-2.17.57-3.09-.39h0a93.58,93.58,0,0,0-12.22,4.06A310.65,310.65,0,0,0,450,274.23a296.89,296.89,0,0,0-57.08,47q-9.74,10.31-18.46,21.48A288.73,288.73,0,0,0,338.32,403a33.23,33.23,0,0,1-2.2,4.48,20.77,20.77,0,0,0-2.06,4.53A310.47,310.47,0,0,0,321,462.7a250.77,250.77,0,0,0-3.35,29.78,266.27,266.27,0,0,0,.54,37,255.55,255.55,0,0,0,26.5,93.16,263.39,263.39,0,0,0,55.64,74.82,269.75,269.75,0,0,0,83.45,53.28,291.9,291.9,0,0,0,64.06,17.73,347.85,347.85,0,0,0,46,3.78c2.48.07,5-.36,7.46-.37a253.55,253.55,0,0,0,27.4-1.76c7.73-.89,15.43-1.93,23.06-3.41,4.75-.92,9.54-1.65,14.14-3.25C666.66,762.05,668.22,762.1,669.47,761.71Z"/><path class="cls-36" d="M572.48,230.52l1-.31a6.75,6.75,0,0,1,1.79.16,8.45,8.45,0,0,0,1.74,0c.81-.16,1.59-.43,2.41-.58A247.34,247.34,0,0,1,628.78,228c31.58,2.16,62.34,7.89,91.66,19.18V247q-2.84-1.09-5.72-2.15c-5.22-1.9-10.48-3.65-15.72-5.47-.9-.32-1.93-.38-2.56-1.25h0a7.27,7.27,0,0,0-.75-.35,295,295,0,0,0-43.54-8.94,301.33,301.33,0,0,0-32.32-2.27q-14.77-.24-29.5,1c-4,.33-8,.37-12,1.41a2,2,0,0,1-1.67.88c-1.45,0-2.91,0-4.36,0,.25-.11.51-.17.76-.26a3.59,3.59,0,0,0-.76.26.49.49,0,0,0-.65.07A1.41,1.41,0,0,0,572.48,230.52Z"/><path class="cls-36" d="M628.78,228a247.34,247.34,0,0,0-49.38,1.77c-.82.15-1.6.42-2.41.58a8.45,8.45,0,0,1-1.74,0,6.75,6.75,0,0,0-1.79-.16l-1,.31a2.81,2.81,0,0,0,.89.16h.8l.85.78,1.67,0a1.69,1.69,0,0,1,1.69-.78h0c5.14.2,10.17-1.3,15.31-.95a1.79,1.79,0,0,0,.82-.16A10.77,10.77,0,0,1,599,229q14.79,0,29.59,0a9.23,9.23,0,0,1,2.89.15c2.3.8,4.66.59,7,.69a11,11,0,0,1,2.88.32,15.07,15.07,0,0,0,4.11.5,13.27,13.27,0,0,1,3.29.31c2.68.79,5.47.71,8.19,1.21,3.24.6,6.54,1,9.78,1.65,3,.62,6,1.23,8.94,1.77A221.94,221.94,0,0,1,705,243.07c5,1.63,10,3.42,14.92,5.18l.53.2v-1.27C691.12,235.89,660.36,230.16,628.78,228Z"/><path class="cls-37" d="M696.43,238.11h0q12.19,3.66,24,8.24v-.74q-9.84-3.78-20-6.85A8.41,8.41,0,0,0,696.43,238.11Z"/><path class="cls-37" d="M714.72,244.83q2.88,1,5.72,2.15v-.63q-11.81-4.59-24-8.24c.63.87,1.66.93,2.56,1.25C704.24,241.18,709.5,242.93,714.72,244.83Z"/><path class="cls-38" d="M571.78,230.66a1.88,1.88,0,0,1-.09-.82,33,33,0,0,0-3.31.19,309.2,309.2,0,0,0-42.9,9.74,27.05,27.05,0,0,0-5.48,1.87h0c5.76-.77,11.19-2.91,16.85-4.12C548.46,235,560,232.25,571.78,230.66Z"/><path class="cls-38" d="M523.09,242c9.1-2.87,18.47-4.56,27.81-6.39,2.29-.44,4.63-.75,6.88-1.37A90.06,90.06,0,0,1,572,231.46a2.14,2.14,0,0,0,1.41-.78c-.73.38-1.37.59-1.59,0-11.78,1.59-23.32,4.37-34.93,6.86-5.66,1.21-11.09,3.35-16.85,4.12C520.92,242.6,522,242.37,523.09,242Z"/><path class="cls-38" d="M572.27,230.59l.21-.07a1.41,1.41,0,0,1-.79-.68,1.88,1.88,0,0,0,.09.82Z"/><path class="cls-38" d="M572.48,230.52l-.21.07-.49.07c.22.61.86.4,1.59,0h0A2.81,2.81,0,0,1,572.48,230.52Z"/><path class="cls-39" d="M689.08,756.48c-7.68,2.5-15.53,4.39-23.17,7,1.36-.25,2.74-.43,4.07-.78a302.5,302.5,0,0,0,50.46-18.05v-.87A265.94,265.94,0,0,1,689.08,756.48Z"/><path class="cls-39" d="M720.44,743.8V743c-3.27,1.61-6.55,3.2-9.91,4.65-7.23,3.13-14.58,5.89-22,8.45-2.34.8-4.75,1.44-7.13,2.14-4,1.15-8,2.24-11.91,3.46-1.25.39-2.81.34-3.56,1.79,7.64-2.63,15.49-4.52,23.17-7A265.94,265.94,0,0,0,720.44,743.8Z"/><path class="cls-38" d="M578.37,228.93a15.82,15.82,0,0,0-5.27.58C574.83,229.12,576.73,230,578.37,228.93Z"/><path class="cls-38" d="M576.7,229.81a2,2,0,0,0,1.67-.88c-1.64,1.07-3.54.19-5.27.58-.25.09-.51.15-.76.26C573.79,229.79,575.25,229.82,576.7,229.81Z"/><path class="cls-6" d="M598.34,502.41a.64.64,0,0,0,0,.07l.08-.07-.08,0,0,.05Z"/><path class="cls-6" d="M698.51,257.19a159.05,159.05,0,0,0-16.29-4.83,238.7,238.7,0,0,0-26.82-5.21c-5.07-.61-10.09-1.61-15.24-1.52a7.53,7.53,0,0,1-2.45-.35,12.78,12.78,0,0,0-4.12-.43c-4.58,0-9.17-.08-13.75,0s-9.35-.42-14.05-.08c-4.14.29-8.33.06-12.5.09a10.61,10.61,0,0,0-3.3.21,17.08,17.08,0,0,1-6.18.59A29,29,0,0,0,574,247a25.33,25.33,0,0,1-9,1.22,22.17,22.17,0,0,0-5.36.46c-7.2,1.4-14.31,3.08-21.35,5.18-8.9,2.65-17.72,5.52-26.4,8.81-4.79,1.81-9.54,3.73-14.31,5.61q-11.4,4.51-22.43,9.89c-2.37,1.15-4.57,2.63-6.92,3.81-4.84,2.42-9.4,5.32-14,8.17-10.48,6.52-20.16,14.14-29.93,21.64-2.42,1.86-4.51,4.14-7,5.9-2.95,2.11-5.12,5.1-8.29,6.9-6.41,6.72-13.4,12.86-19.39,20-3.27,3.92-6.71,7.72-9.93,11.7q-6,7.43-11.44,15.27-7.45,10.77-13.95,22.15c-1.92,3.37-3.82,6.76-5.5,10.26-1.92,4-3.54,8.12-5.37,12.16a190.74,190.74,0,0,0-8.95,25,121.07,121.07,0,0,0-4,15.67c-.78,5-2.24,10-2.85,15-.36,3-1,6-1.16,9a73.37,73.37,0,0,1-.93,8.64,47.14,47.14,0,0,0-.6,7.84c0,6.67,0,13.34,0,20a10.68,10.68,0,0,0,.19,3.31c.75,2.17.55,4.38.62,6.59a14,14,0,0,0,.14,3.73c1.12,3.49.47,7.16,1.38,10.69a46.93,46.93,0,0,1,1,5.28c.57,4,1.15,7.93,2,11.82a284.28,284.28,0,0,0,9.82,33.86,157.49,157.49,0,0,0,6.95,16.46c2.9,5.84,5.78,11.68,9,17.36a182.88,182.88,0,0,0,16,24.25c2.77,3.46,5.64,6.83,8.4,10.29a111.9,111.9,0,0,0,8.63,10.08c2.66,2.64,5.3,5.3,8,8a13.78,13.78,0,0,0,2.13,2c3.54,2.23,6.06,5.65,9.47,8.07,2.81,2,5.13,4.65,7.86,6.77,7,5.44,14,10.85,21.39,15.73,10.31,6.8,20.76,13.33,31.94,18.63,4.63,2.2,9.24,4.46,13.95,6.5a126.6,126.6,0,0,0,12,4.63c6.32,2,12.76,3.68,19.12,5.62a166.76,166.76,0,0,0,30.39,6.23c1.79.2,3.45,1,5.32.87,3.6-.17,7.15.7,10.71,1.06,2.76.28,5.5.54,8.26.57,4.3,0,8.61,0,12.92,0a14.76,14.76,0,0,1,4.52.48,9.33,9.33,0,0,0,5.36.1,26.39,26.39,0,0,1,7-.59c2.64-.06,5.34.23,7.9-.25a27.71,27.71,0,0,1,7-.56c2.41.15,4.62-1,7-.86,3.22.22,6.32-.69,9.46-1.1,5.19-.66,10.28-2,15.44-3a198.58,198.58,0,0,0,28.48-7.39q5.1-1.78,10.18-3.61c9.54-3.39,18.8-7.46,28-11.78,2.57-1.21,5.09-2.53,7.59-3.87V694.46a11.9,11.9,0,0,1-3.08-3.16c-2.67-4-5.15-8.19-7.49-12.43a89.66,89.66,0,0,1-5.33-10.76c-.5-1.28-1-2.58-1.51-3.85-.48-1.11-.6-2.15.42-3a3.18,3.18,0,0,1,4.17-.43c.81.51,1.5,1.21,2.27,1.79.39.3.76.13,1.06-.21h0a2.35,2.35,0,0,1,2-1.78,6.42,6.42,0,0,1,4,.67,17.92,17.92,0,0,1,3.44,2.43V546.58l-32,32a10.66,10.66,0,0,1-3.28,2.52,1.86,1.86,0,0,1-2.26-.4,3.72,3.72,0,0,1-.43-5.25c2-3,4.12-5.9,6.24-8.8,3.52-4.8,7.35-9.34,11.23-13.85,4.59-5.34,8.89-10.93,13.27-16.45,2.25-2.83,4.68-5.49,7.19-8.07V321.53a13.39,13.39,0,0,1-1.79,0,4.22,4.22,0,0,1-1.59-.38c-1.66-.9-3.15-5.25-2.45-7a2.74,2.74,0,0,1,.36-.75c1.82-2.18,3.26-4.68,5.47-6.53V265.2c-3.62-1.47-7.28-2.88-10.92-4.32S702.16,258.48,698.51,257.19Zm-95.83,16.17c0-.34.42-.68.64-1a105.45,105.45,0,0,0,.93-15c0-.13,0-.27,0-.41,0-4,.92-5.26,4.56-6.23a23,23,0,0,1,2.8-.71,16,16,0,0,1,3.31-.16,9.16,9.16,0,0,1,5.21,2.36c1.18,1,.73,2.59.75,4a19,19,0,0,1-.6,6.17,12.34,12.34,0,0,0-.21,3.71c0,5.41-.06,10.81,0,16.22A39.23,39.23,0,0,1,615.32,301c-2.08,4-4,3.44-6.82,1.08-1.81-1.55-5.83-8.85-5.88-11.24C602.5,285,602.61,279.18,602.68,273.36Zm-93.58,4.87a5,5,0,0,1,2,0,20.84,20.84,0,0,0,6.12.8c.35,0,.68.41,1,.63h0c1.26,1.07,2.59,2.06,3.75,3.22,4.38,4.39,8.74,8.79,13,13.26,2,2.08,4.13,4.08,5,7,1.06,1.23,1.65,2.57.82,4.17h0c.08,2.37-1.16,4.24-2.39,6-1.07,1.56-2.27,1.81-4,.72a48.46,48.46,0,0,1-5.9-4.48c-2.36-2.12-4.53-4.46-6.77-6.71a10.56,10.56,0,0,1-1.38-1.54c-3.67-5.66-7.65-11.13-10.77-17.15-.63-1.22-1.44-2.35-2-3.59A1.7,1.7,0,0,1,509.1,278.23ZM541.61,417.3a4.27,4.27,0,0,1-.67,2.36,121.94,121.94,0,0,1-7.27,13.52q-5.58,8.74-11.37,17.34a142.27,142.27,0,0,1-9.73,12.35,93.8,93.8,0,0,1-10,10.54c-5,4.36-9.51,9.29-14.52,13.63-3.15,2.72-6.11,5.61-9.11,8.46a9.54,9.54,0,0,1-1.54,1.39c-.91.55-1.84,1.49-3,.9a3.3,3.3,0,0,1-1.92-3.38,3.45,3.45,0,0,1,.74-2.34c3.43-4.5,6.52-9.23,10.12-13.62,2.63-3.2,5.83-5.91,8.06-9.45a10.8,10.8,0,0,1,1.7-1.82c3-2.91,5.34-6.32,8-9.45,2.17-2.51,4.11-5.19,6.41-7.6,3.33-3.49,6.35-7.28,9.5-10.93.55-.63,1.11-1.24,1.7-1.83q9.69-9.72,19.4-19.42a15.25,15.25,0,0,1,1.85-1.66,1.23,1.23,0,0,1,1.13-.08A1.7,1.7,0,0,1,541.61,417.3ZM343.86,460.66c-2.06.71-2.94.33-4.16-1.51a12.48,12.48,0,0,1-1.19-2.18,5,5,0,0,1,1.4-6c.81-.73,1.75-1.32,2.64-2h0c.18-.64.59-1.28,0-1.93a15.34,15.34,0,0,1-1.35-1.57,1.84,1.84,0,0,1,.48-2.57,11,11,0,0,1,1.8-1,54.54,54.54,0,0,1,13-4.18c3.89-.67,7.87-1.5,11.91-1.16,5.41.46,10.25,2.07,13.72,6.62a8.12,8.12,0,0,1,1.88,3.63c.72,3.27-.69,6-2.48,8.46a7.9,7.9,0,0,1-5.13,3.22,45.16,45.16,0,0,1-10.31.6c-4.14-.15-8.28-.19-12.43-.06A32.72,32.72,0,0,0,343.86,460.66Zm52.65,103.71c-2.4-.85-2.44-.89-4.08.28-3.59,2.56-7.18,5.14-10.72,7.77A40.77,40.77,0,0,1,366,579.56a11.11,11.11,0,0,1-1.64.13c-1.89.38-3.89,0-5.73.79a2.55,2.55,0,0,1-2-.19,5.74,5.74,0,0,1-3.49-7.67,28.72,28.72,0,0,1,8.1-11.85A12.19,12.19,0,0,1,366,558.3c6.48-1.93,13-3.83,19.49-5.64,1.84-.51,3.85-.3,5.69-1a2.57,2.57,0,0,1,1.23,0c4.12.67,4.9,2.11,3.3,6-.32.76-.53,1.56-.79,2.34h0C396.21,561.18,397.05,562.51,396.51,564.37ZM426,373a6.19,6.19,0,0,1-7.11,4.18,26.94,26.94,0,0,1-12.13-6,46.56,46.56,0,0,1-10.06-12c-1.39-2.39-2.75-4.8-4-7.24a15.89,15.89,0,0,1-1.17-3.08,2.21,2.21,0,0,1,2.73-2.89c1.92.66,3.82.47,5.73.65h0a19,19,0,0,1,9.08,2.39,76.92,76.92,0,0,1,12.23,8.41,12.91,12.91,0,0,1,5.24,9.87h0A11.58,11.58,0,0,1,426,373Zm17,109.2a29.08,29.08,0,0,1-4.27,3.27,11.12,11.12,0,0,1-2,.93,4,4,0,0,1-3-2.38,3.19,3.19,0,0,1,.32-3.52c1.21-1.5,2.34-3.08,3.66-4.49s2.57-3.3,4-4.74c3.05-3,5.67-6.44,8.57-9.59,2.34-2.54,4.66-5.12,6.81-7.81,2.33-2.92,4.55-5.9,7.1-8.64,2.15-2.32,4-4.9,6-7.37a4.58,4.58,0,0,1,.5-.66c3.24-2.85,5.55-6.53,8.61-9.55,5.24-5.16,10.42-10.38,15.61-15.59a66.21,66.21,0,0,1,9-7.28,25.87,25.87,0,0,1,4-2.12,1.84,1.84,0,0,1,2.25.57,1.76,1.76,0,0,1,.36,1.93,5.85,5.85,0,0,1-1.46,2.46c-3.21,2.2-4.65,5.77-6.89,8.69-3.53,4.61-6.68,9.5-10.12,14.17-1.72,2.33-3.85,4.35-5.57,6.68-3.16,4.26-7.37,7.54-10.69,11.59-4.58,5.61-9.92,10.44-14.93,15.61-1.54,1.6-2.52,3.63-4.23,5.11C452,473.52,447.41,477.72,443,482.17Zm44.87,204.47c-3.19,6.28-6,12.76-10.1,18.57a34.23,34.23,0,0,0-4.73,8.27,1.84,1.84,0,0,1-1.09,1.11c-.75.16-1.28-.49-1.53-1.14-.47-1.15-.82-2.34-1.21-3.52a21.35,21.35,0,0,1-6.25,2.15,1.06,1.06,0,0,1-1.34-.67c-.86-2.59-2.27-5.1-1.3-8a5.45,5.45,0,0,0,.4-1.6c0-3.85,1.9-6.85,4.13-9.73,1.61-2.07,3.07-4.27,4.78-6.25,2.56-3,6-4.32,9.79-4.92,1.45-.24,2.75,1,3,2.69.13.82.08,1.67.86,2.23h0c1.13-.48,2.06-1.39,3.37-1.53a1.33,1.33,0,0,1,1.45,1.55A3.61,3.61,0,0,1,487.91,686.64Zm122.47,26.23c-.3,8.75-2.07,17.32-3.07,26-.22,1.92-.38,3.85-.52,5.78-.1,1.38-.07,2.78-.23,4.15s-.53,3.05-1.87,3.49c-1.61.54-2.28-1.13-3-2.27-.23-.34-.51-.64-.77-1h0a2.36,2.36,0,0,0-1.71,1,6.43,6.43,0,0,1-2.94,2.82,6.62,6.62,0,0,1-2.86-2.92,50.54,50.54,0,0,1-4.64-11,9.11,9.11,0,0,1-.35-2.44c0-4.26-.25-8.52.76-12.76,1.05-4.4,1.69-8.9,2.64-13.32a25.43,25.43,0,0,1,1.65-4.67,3.79,3.79,0,0,1,3.11-2.44c1.64-.17,3.14-1.13,4.86-.83a7.3,7.3,0,0,1,3-1.28,4.47,4.47,0,0,1,5.67,3.44A32.68,32.68,0,0,1,610.38,712.87ZM634.76,343c-.69,2-1.42,3.92-3.11,5.31a5.32,5.32,0,0,0-.78,2.77c.18,1.87-.6,3.54-1.2,5.22-.77,2.14-1.88,4-4.43,4.5-1.49.29-1.86,1.48-1.86,2.85,0,3.33,0,6.66,0,10,0,2.07.23,4.17-.64,6.17a2.8,2.8,0,0,0-.14,1.23,109.44,109.44,0,0,1-.9,17c-.55,4.54-.53,9.12-1,13.63a79.72,79.72,0,0,0-.59,10.33c.05,2.54-1,4.88-.9,7.41a41.49,41.49,0,0,1-.11,7.48c-.82,6-1.14,12.1-2.76,18-.28,1,.19,1.53,1,2,1.56.9,3.1,1.82,4.65,2.75,3.31,2,5.83,4.59,6.82,8.5a29,29,0,0,1,1.33,8.57,13.46,13.46,0,0,0,.61,5.76,4.41,4.41,0,0,1,.16,2c-.69,5.75-1,11.59-4,16.81-.62,1.08-1.11,2.23-1.69,3.34a11.42,11.42,0,0,1-4.29,4.43c-4.41,2.66-9,4.72-14.29,5.12a52.91,52.91,0,0,0-6.46,1.41,4.89,4.89,0,0,0-3.26,2.37c-1.46,2.35-3,4.65-4.34,7.08-4,7.45-8.65,14.5-13.3,21.55-2.9,4.39-5.62,8.89-8.35,13.39-2.59,4.26-5.61,8.22-8.58,12.21-3.14,4.21-6.46,8.28-9.62,12.48-5.9,7.85-11.47,15.93-17.11,24-6,8.61-11.75,17.45-17.63,26.18-1.31,1.94-1.25,2,.05,3.5s2.64,3.2,3.91,4.84a8.59,8.59,0,0,1,1.52,4.65c.61,5.93-2.08,10.77-4.84,15.6-2.66,4.64-7.08,7.33-11.45,10a28.12,28.12,0,0,1-8.77,3.68,29,29,0,0,1-5.79.35,3.56,3.56,0,0,1-2.23-1c-2.2-1.66-3.16-4.14-4.5-6.41a13.29,13.29,0,0,1-1.64-8,13,13,0,0,1,1.55-5.14c.64-1.2.61-2.75,1.87-3.62a108.3,108.3,0,0,1,1.34-17.71,13.23,13.23,0,0,1,.81-3.19c1.28-2.94,3.84-4,6.65-2.43,1.32.71,2.54,1.62,3.81,2.45,1.61-.1,2.34-1.28,3.12-2.45,3.9-5.89,7.84-11.75,11.73-17.64,3-4.5,5.79-9.11,8.86-13.55,7.64-11,15.37-22,23.53-32.62a222.71,222.71,0,0,0,13.93-19.6c1.37-2.25,2.8-4.46,4-6.78a117.87,117.87,0,0,1,7-10.83c3.28-4.82,6.17-9.85,9-14.94,1.61-2.91,3.33-5.75,5.06-8.58,1.47-2.4,3.09-4.6,6.27-4.9.85-.08,1.35-.92,1.74-1.67h0c-1.42-2.53-2.95-5-4.26-7.6a20.21,20.21,0,0,1-1.66-13.38c1.46-7.14,5.6-11.9,13-13.41,1.31-.26,3,.21,3.88-1s.39-3,.4-4.46c.11-12.19,0-24.4.29-36.59.27-10.51.94-21,1.65-31.52.66-9.8,1.6-19.58,2.42-29.37h0a9,9,0,0,0-4.4-.86c-4.76.08-8.13-2.14-10.16-6.39a65.81,65.81,0,0,1-2.9-6.82c-.47-1.36-1.25-2.69-.61-4.37.78-2.07,1.41-4.16,3.22-5.63a7.88,7.88,0,0,1,3.28-1.67c2.76-5.44,4.72-11.22,7-16.85.37-.9.65-1.84,1-2.72a6,6,0,0,1,7.87-3.21,14.15,14.15,0,0,1,2.82,1.73,24.18,24.18,0,0,1,5.69,6q5,7.43,10,14.86c.39.58.73,1.18,1.1,1.77A6.2,6.2,0,0,1,634.76,343Zm77.79,142.1a1.39,1.39,0,0,1,1.12.26,1.27,1.27,0,0,1,.36,1.08,13,13,0,0,1-.91,2.31c-2.87,6-6.35,11.67-9.72,17.39a98.71,98.71,0,0,1-7.6,11.37c-2,2.49-4.19,4.79-6.07,7.34-2.89,3.9-6.76,6.94-9.47,11a4.6,4.6,0,0,1-.55.62l-14,14.81c-1.61,1.71-3.48,3.19-4.62,5.32A4.33,4.33,0,0,1,660,557.8c-3.74,3.09-6.69,7-10.21,10.26a8.49,8.49,0,0,1-3.92,2.46,3.25,3.25,0,0,1-1-.5c-1.39-1.41-1.65-2.92-.59-4.46,2.27-3.3,4.56-6.59,7-9.8q12.42-16.57,24.92-33.09c3.75-5,7.33-10.06,11.39-14.75,3.44-4,6.56-8.28,10.68-11.61,4.29-3.46,7.93-7.73,12.84-10.44A7,7,0,0,1,712.55,485.09Z"/><path class="cls-38" d="M578.38,230.7c-.47.47-1.24.27-1.69.78A1.75,1.75,0,0,0,578.38,230.7Z"/><path class="cls-38" d="M576.69,231.48c.45-.51,1.22-.31,1.69-.78h0A1.69,1.69,0,0,0,576.69,231.48Z"/><path class="cls-7" d="M621.27,348.14a17.09,17.09,0,0,0-2.48.05,1.2,1.2,0,0,0-1.08,1.09,20.52,20.52,0,0,0-.16,2.48c.05,11.93-1.09,23.79-2.19,35.66-.58,6.2-1,12.42-1.33,18.65-.33,5.94-.24,11.92-.78,17.85-.77,8.43-.53,16.89-1.07,25.33-.28,4.28-.78,8.54-1.17,12.82-.17,1.88-.08,2.05,1.6,2.89.49.25,1,.46,1.51.71,5.69,2.85,8.7,7.55,9.37,13.8.76,7.1-1.38,13.44-5.3,19.23a14.11,14.11,0,0,1-7.15,5.48,12.62,12.62,0,0,1-9.34-.23c-1.11-.46-2.18-1-3.26-1.54l-.08.07a9.61,9.61,0,0,1-1.07,7.11,38.64,38.64,0,0,1-2.27,4c-8.79,12.5-16.44,25.72-24.5,38.67-5.79,9.3-11.65,18.56-17.45,27.87a261.64,261.64,0,0,1-15.74,22A170.85,170.85,0,0,0,525,620.32c-4,6.82-8.19,13.53-12.85,19.93-.39.54-.67,1.17-1.05,1.83l3.22,3.38a5.1,5.1,0,0,1,1.35,5c-.89,3.25-2.16,6.35-5.28,8.17-3.6,2.08-7.24,4.11-10.86,6.15a7.75,7.75,0,0,1-1.15.48c-3.17,1.15-5.3.5-7.16-2.33a18.09,18.09,0,0,1-2.88-6.86,7.36,7.36,0,0,0-.7-2.8c-1.26.87-1.23,2.42-1.87,3.62a13,13,0,0,0-1.55,5.14,13.29,13.29,0,0,0,1.64,8c1.34,2.27,2.3,4.75,4.5,6.41a3.56,3.56,0,0,0,2.23,1,29,29,0,0,0,5.79-.35,28.12,28.12,0,0,0,8.77-3.68c4.37-2.66,8.79-5.35,11.45-10,2.76-4.83,5.45-9.67,4.84-15.6a8.59,8.59,0,0,0-1.52-4.65q-1.9-2.46-3.91-4.84c-1.3-1.55-1.36-1.56-.05-3.5,5.88-8.73,11.58-17.57,17.63-26.18,5.64-8,11.21-16.12,17.11-24,3.16-4.2,6.48-8.27,9.62-12.48,3-4,6-7.95,8.58-12.21,2.73-4.5,5.45-9,8.35-13.39,4.65-7.05,9.29-14.1,13.3-21.55,1.31-2.43,2.88-4.73,4.34-7.08a4.89,4.89,0,0,1,3.26-2.37,52.91,52.91,0,0,1,6.46-1.41c5.27-.4,9.88-2.46,14.29-5.12a11.42,11.42,0,0,0,4.29-4.43c.58-1.11,1.07-2.26,1.69-3.34,3-5.22,3.31-11.06,4-16.81a4.41,4.41,0,0,0-.16-2,13.46,13.46,0,0,1-.61-5.76,29,29,0,0,0-1.33-8.57c-1-3.91-3.51-6.5-6.82-8.5-1.55-.93-3.09-1.85-4.65-2.75-.79-.46-1.26-1-1-2,1.62-5.88,1.94-12,2.76-18a41.49,41.49,0,0,0,.11-7.48c-.1-2.53,1-4.87.9-7.41a79.72,79.72,0,0,1,.59-10.33c.49-4.51.47-9.09,1-13.63a109.44,109.44,0,0,0,.9-17,2.8,2.8,0,0,1,.14-1.23c.87-2,.62-4.1.64-6.17,0-3.33,0-6.66,0-10,0-1.37.37-2.56,1.86-2.85,2.55-.49,3.66-2.36,4.43-4.5.6-1.68,1.38-3.35,1.2-5.22a5.32,5.32,0,0,1,.78-2.77C628.18,348.7,624.73,348.29,621.27,348.14Z"/><path d="M633,335.64q-5-7.44-10-14.86a24.18,24.18,0,0,0-5.69-6,14.15,14.15,0,0,0-2.82-1.73,6,6,0,0,0-7.87,3.21c-.39.88-.67,1.82-1,2.72-2.32,5.63-4.28,11.41-7,16.85-.28.92-.51,1.86-.86,2.76-1.28,3.29,0,5.92,2.14,8.31a4.63,4.63,0,0,0,3,1.34c2.18.32,4.36.7,6.52,1.12.84.16,1.7.61,1.66,1.57-.18,3.55.21,7.15-.84,10.64h0c-.82,9.79-1.76,19.57-2.42,29.37-.71,10.5-1.38,21-1.65,31.52-.32,12.19-.18,24.4-.29,36.59,0,1.5.54,3.2-.4,4.46s-2.57.7-3.88,1c-7.44,1.51-11.58,6.27-13,13.41a20.21,20.21,0,0,0,1.66,13.38c1.31,2.59,2.84,5.07,4.26,7.6a13.93,13.93,0,0,1,4,3.54l.08,0a2,2,0,0,1,.86-.27,3.25,3.25,0,0,1,.83.07c11,2.62,16.67-.45,20.51-11.07,3-8.29,2.41-20.14-7.84-24.91-2.25-1-3-3.09-2.74-5.58,1.64-15.89,1.07-31.88,2.16-47.79s2.21-31.55,3.79-47.28c.44-4.44.11-8.89.33-13.32.21-4.22,1.07-5.25,5.27-5.2,3.36,0,6.95-1.17,10,1.24,1.69-1.39,2.42-3.33,3.11-5.31a6.2,6.2,0,0,0-.63-5.58C633.76,336.82,633.42,336.22,633,335.64ZM614.92,479.55c.08.68.13,1.37.2,2.2-.25,4.78-1.78,9-5.94,12.05a4.34,4.34,0,0,1-4.66.45,11.12,11.12,0,0,1-4.29-3.16,18.05,18.05,0,0,1-4-9.82,8.24,8.24,0,0,1,1.35-5.52,7.26,7.26,0,0,1,1.6-1.88c2.41-1.81,4.77-4.07,8.18-2.78C611.29,472.58,614.38,475,614.92,479.55Zm3.53-140.38c-2.91,0-5.82-.19-8.66.69a4.14,4.14,0,0,1-2.86,0,1.6,1.6,0,0,1-.64-.93c-.08-.21.09-.53.19-.78,1.81-4.8,3.61-9.59,5.45-14.38.48-1.25,1.24-1.4,2.12-.38a42.68,42.68,0,0,1,3.07,3.92c2.46,3.67,4.84,7.39,7.57,11.58A26.23,26.23,0,0,1,618.45,339.17Z"/><path d="M621.61,347.06c-4.2-.05-5.06,1-5.27,5.2-.22,4.43.11,8.88-.33,13.32-1.58,15.73-2.71,31.51-3.79,47.28s-.52,31.9-2.16,47.79c-.25,2.49.49,4.54,2.74,5.58,10.25,4.77,10.83,16.62,7.84,24.91-3.84,10.62-9.52,13.69-20.51,11.07a3.25,3.25,0,0,0-.83-.07,2,2,0,0,0-.86.27c1.08.52,2.15,1.08,3.26,1.54a12.62,12.62,0,0,0,9.34.23,14.11,14.11,0,0,0,7.15-5.48c3.92-5.79,6.06-12.13,5.3-19.23-.67-6.25-3.68-11-9.37-13.8-.5-.25-1-.46-1.51-.71-1.68-.84-1.77-1-1.6-2.89.39-4.28.89-8.54,1.17-12.82.54-8.44.3-16.9,1.07-25.33.54-5.93.45-11.91.78-17.85.35-6.23.75-12.45,1.33-18.65,1.1-11.87,2.24-23.73,2.19-35.66a20.52,20.52,0,0,1,.16-2.48,1.2,1.2,0,0,1,1.08-1.09,17.09,17.09,0,0,1,2.48-.05c3.46.15,6.91.56,10.38.16C628.56,345.89,625,347.09,621.61,347.06Z"/><path d="M490.41,659.08c2.39,5.7,4.7,6.64,10.29,3.91a68.65,68.65,0,0,0,8.63-5c5.54-3.77,6.37-8.26,2.46-13.58a4,4,0,0,1-.12-5.3c10.3-14.64,18.63-30.58,29.94-44.57s19.48-29.7,29.09-44.64c7.2-11.21,13.71-22.86,21.41-33.76,2.56-3.63,5.11-7.3,5.43-12a2.08,2.08,0,0,1,.82-1.65.64.64,0,0,1,0-.07c-1.75-.22-3.16,0-4,2a15,15,0,0,1-2.63,3.72c-7.73,9.14-14.3,19.09-20.81,29.1-7,10.82-14.14,21.59-21.13,32.43-5.95,9.23-12.59,18-19.35,26.58a194.68,194.68,0,0,0-12,18c-4,6.5-8.15,12.9-12.24,19.35a4.56,4.56,0,0,1-1.69,1.93,10,10,0,0,1-4.24-3.06h0c-1.27-.83-2.49-1.74-3.81-2.45-2.81-1.53-5.37-.51-6.65,2.43a13.23,13.23,0,0,0-.81,3.19,108.3,108.3,0,0,0-1.34,17.71C489.88,654.54,489.58,657.1,490.41,659.08Zm5.5-17.18c.09-1.42.71-1.8,1.73-1a69.67,69.67,0,0,1,8.58,7.7,1.2,1.2,0,0,1-.26,2.07c-2.73,1.6-5.49,3.13-8.28,4.63-.92.5-1.6.1-1.69-1-.2-2.33-.29-4.67-.37-6.16C495.74,645.47,495.8,643.68,495.91,641.9Z"/><path d="M491.18,662.93c1.86,2.83,4,3.48,7.16,2.33a7.75,7.75,0,0,0,1.15-.48c3.62-2,7.26-4.07,10.86-6.15,3.12-1.82,4.39-4.92,5.28-8.17a5.1,5.1,0,0,0-1.35-5l-3.22-3.38c.38-.66.66-1.29,1.05-1.83,4.66-6.4,8.84-13.11,12.85-19.93a170.85,170.85,0,0,1,12.37-18.24,261.64,261.64,0,0,0,15.74-22c5.8-9.31,11.66-18.57,17.45-27.87,8.06-13,15.71-26.17,24.5-38.67a38.64,38.64,0,0,0,2.27-4,9.61,9.61,0,0,0,1.07-7.11,2.08,2.08,0,0,0-.82,1.65c-.32,4.68-2.87,8.35-5.43,12-7.7,10.9-14.21,22.55-21.41,33.76-9.61,14.94-17.88,30.79-29.09,44.64S522,624.44,511.67,639.08a4,4,0,0,0,.12,5.3c3.91,5.32,3.08,9.81-2.46,13.58a68.65,68.65,0,0,1-8.63,5c-5.59,2.73-7.9,1.79-10.29-3.91-.83-2-.53-4.54-2.81-5.81a7.36,7.36,0,0,1,.7,2.8A18.09,18.09,0,0,0,491.18,662.93Z"/><path class="cls-8" d="M475.87,448.72c3.32-4.05,7.53-7.33,10.69-11.59,1.72-2.33,3.85-4.35,5.57-6.68,3.44-4.67,6.59-9.56,10.12-14.17,2.24-2.92,3.68-6.49,6.89-8.69a5.85,5.85,0,0,0,1.46-2.46,1.76,1.76,0,0,0-.36-1.93,1.84,1.84,0,0,0-2.25-.57,25.87,25.87,0,0,0-4,2.12,66.21,66.21,0,0,0-9,7.28c-5.19,5.21-10.37,10.43-15.61,15.59-3.06,3-5.37,6.7-8.61,9.55a4.58,4.58,0,0,0-.5.66c-2,2.47-3.87,5.05-6,7.37-2.55,2.74-4.77,5.72-7.1,8.64-2.15,2.69-4.47,5.27-6.81,7.81-2.9,3.15-5.52,6.55-8.57,9.59-1.43,1.44-2.57,3.22-4,4.74s-2.45,3-3.66,4.49a3.19,3.19,0,0,0-.32,3.52,4,4,0,0,0,3,2.38,11.12,11.12,0,0,0,2-.93,29.08,29.08,0,0,0,4.27-3.27c4.37-4.45,9-8.65,13.67-12.73,1.71-1.48,2.69-3.51,4.23-5.11C466,459.16,471.29,454.33,475.87,448.72Z"/><path class="cls-8" d="M687.59,507.92c-4.06,4.69-7.64,9.79-11.39,14.75q-12.48,16.51-24.92,33.09c-2.4,3.21-4.69,6.5-7,9.8-1.06,1.54-.8,3.05.59,4.46a3.25,3.25,0,0,0,1,.5,8.49,8.49,0,0,0,3.92-2.46c3.52-3.3,6.47-7.17,10.21-10.26a4.33,4.33,0,0,0,1.12-1.22c1.14-2.13,3-3.61,4.62-5.32l14-14.81a4.6,4.6,0,0,0,.55-.62c2.71-4.05,6.58-7.09,9.47-11,1.88-2.55,4.1-4.85,6.07-7.34a98.71,98.71,0,0,0,7.6-11.37c3.37-5.72,6.85-11.39,9.72-17.39a13,13,0,0,0,.91-2.31,1.27,1.27,0,0,0-.36-1.08,1.39,1.39,0,0,0-1.12-.26,7,7,0,0,0-1.44.78c-4.91,2.71-8.55,7-12.84,10.44C694.15,499.64,691,504,687.59,507.92Z"/><path class="cls-8" d="M540,416.29a15.25,15.25,0,0,0-1.85,1.66q-9.7,9.71-19.4,19.42c-.59.59-1.15,1.2-1.7,1.83-3.15,3.65-6.17,7.44-9.5,10.93-2.3,2.41-4.24,5.09-6.41,7.6-2.7,3.13-5.08,6.54-8,9.45a10.8,10.8,0,0,0-1.7,1.82c-2.23,3.54-5.43,6.25-8.06,9.45-3.6,4.39-6.69,9.12-10.12,13.62a3.45,3.45,0,0,0-.74,2.34,3.3,3.3,0,0,0,1.92,3.38c1.17.59,2.1-.35,3-.9A9.54,9.54,0,0,0,479,495.5c3-2.85,6-5.74,9.11-8.46,5-4.34,9.49-9.27,14.52-13.63a93.8,93.8,0,0,0,10-10.54,142.27,142.27,0,0,0,9.73-12.35q5.81-8.59,11.37-17.34a121.94,121.94,0,0,0,7.27-13.52,4.27,4.27,0,0,0,.67-2.36,1.7,1.7,0,0,0-.45-1.09A1.23,1.23,0,0,0,540,416.29Z"/><path class="cls-8" d="M713.25,536.32c-4.38,5.52-8.68,11.11-13.27,16.45-3.88,4.51-7.71,9.05-11.23,13.85-2.12,2.9-4.24,5.81-6.24,8.8a3.72,3.72,0,0,0,.43,5.25,1.86,1.86,0,0,0,2.26.4,10.66,10.66,0,0,0,3.28-2.52l32-32V528.25C717.93,530.83,715.5,533.49,713.25,536.32Z"/><path class="cls-40" d="M598.4,502.42l0-.05,0,0Z"/><path class="cls-40" d="M598.28,502.35l.05,0v0Z"/><path class="cls-40" d="M507.23,630.27c8.43-13.22,16.06-26.95,25.84-39.29,15.21-19.18,27.47-40.38,41-60.69,6.25-9.36,13.18-18.2,20-27.14a2.82,2.82,0,0,1,2.9-1.38c-1.16-.68-2.36-1.33-2.58-2.94h0c-.39.75-.89,1.59-1.74,1.67-3.18.3-4.8,2.5-6.27,4.9-1.73,2.83-3.45,5.67-5.06,8.58-2.81,5.09-5.7,10.12-9,14.94a117.87,117.87,0,0,0-7,10.83c-1.23,2.32-2.66,4.53-4,6.78a222.71,222.71,0,0,1-13.93,19.6c-8.16,10.65-15.89,21.61-23.53,32.62-3.07,4.44-5.89,9-8.86,13.55-3.89,5.89-7.83,11.75-11.73,17.64-.78,1.17-1.51,2.35-3.12,2.45h0C503.34,634.28,505.29,633.32,507.23,630.27Z"/><path class="cls-40" d="M598.33,502.38a0,0,0,0,1,0,0h.06Z"/><path class="cls-40" d="M597,501.77a3.82,3.82,0,0,1,1.29.58h.05l0,0a13.93,13.93,0,0,0-4-3.54h0C594.63,500.44,595.83,501.09,597,501.77Z"/><path class="cls-40" d="M504.45,635.45a4.56,4.56,0,0,0,1.69-1.93c4.09-6.45,8.24-12.85,12.24-19.35a194.68,194.68,0,0,1,12-18c6.76-8.62,13.4-17.35,19.35-26.58,7-10.84,14.09-21.61,21.13-32.43,6.51-10,13.08-20,20.81-29.1a15,15,0,0,0,2.63-3.72c.83-2,2.24-2.19,4-2a0,0,0,0,0,0,0l-.05,0a4.37,4.37,0,0,0-.5-.09c-.25-.17-.52-.33-.79-.49a2.82,2.82,0,0,0-2.9,1.38c-6.8,8.94-13.73,17.78-20,27.14-13.57,20.31-25.83,41.51-41,60.69-9.78,12.34-17.41,26.07-25.84,39.29-1.94,3.05-3.89,4-7,2.12h0A10,10,0,0,0,504.45,635.45Z"/><path class="cls-40" d="M598.33,502.35v0l.07,0Z"/><path class="cls-40" d="M597.78,502.26a4.37,4.37,0,0,1,.5.09,3.82,3.82,0,0,0-1.29-.58C597.26,501.93,597.53,502.09,597.78,502.26Z"/><path d="M366.05,459.1a45.16,45.16,0,0,0,10.31-.6,7.9,7.9,0,0,0,5.13-3.22c1.79-2.5,3.2-5.19,2.48-8.46-5-2.83-5-2.86-10.94-2.71A108,108,0,0,0,342.55,449c-.89.66-1.83,1.25-2.64,2a5,5,0,0,0-1.4,6,12.48,12.48,0,0,0,1.19,2.18c1.22,1.84,2.1,2.22,4.16,1.51a32.72,32.72,0,0,1,9.76-1.62C357.77,458.91,361.91,459,366.05,459.1Z"/><path class="cls-7" d="M365.72,571.89a102.53,102.53,0,0,1,23.13-10.78,45.22,45.22,0,0,1,6.08-1.1h0c.26-.78.47-1.58.79-2.34,1.6-3.85.82-5.29-3.3-6a2.57,2.57,0,0,0-1.23,0c-1.84.68-3.85.47-5.69,1-6.52,1.81-13,3.71-19.49,5.64a12.19,12.19,0,0,0-4.76,2.47,28.72,28.72,0,0,0-8.1,11.85,5.74,5.74,0,0,0,3.49,7.67,2.55,2.55,0,0,0,2,.19c1.84-.83,3.84-.41,5.73-.79C361.3,575.65,361.61,574.5,365.72,571.89Z"/><path d="M604.44,701.16a7.3,7.3,0,0,0-3,1.28,15,15,0,0,0-2,7.09c-.32,6.49-.65,13-.93,19.46a60.86,60.86,0,0,0,2.39,20c.26.33.54.63.77,1,.76,1.14,1.43,2.81,3,2.27,1.34-.44,1.7-2.1,1.87-3.49s.13-2.77.23-4.15c.14-1.93.3-3.86.52-5.78,1-8.66,2.77-17.23,3.07-26a32.68,32.68,0,0,0-.27-8.27A4.47,4.47,0,0,0,604.44,701.16Z"/><path class="cls-7" d="M719.12,672.16c-1.79-1.91-3.51-3.89-5.4-5.7-1.24-1.18-1.76-2.77-2.77-4.07h0c-.3.34-.67.51-1.06.21-.77-.58-1.46-1.28-2.27-1.79a3.18,3.18,0,0,0-4.17.43c-1,.87-.9,1.91-.42,3,.54,1.27,1,2.57,1.51,3.85a89.66,89.66,0,0,0,5.33,10.76c2.34,4.24,4.82,8.38,7.49,12.43a11.9,11.9,0,0,0,3.08,3.16V673.57Z"/><path class="cls-7" d="M426.53,367.26h0l-1.06,1.19c-2.61-4.23-3.08-4.65-7.91-6.88-2.13-1-4.3-1.88-6.44-2.86a41.25,41.25,0,0,1-6.86-3.85,18.81,18.81,0,0,0-4.71-2.6,4.89,4.89,0,0,1-1.72-1.07c-1.55-1.5-1.28-2.79.72-3.81.48-.25,1-.53,1.43-.79h0c-1.91-.18-3.81,0-5.73-.65a2.21,2.21,0,0,0-2.73,2.89,15.89,15.89,0,0,0,1.17,3.08c1.29,2.44,2.65,4.85,4,7.24a46.56,46.56,0,0,0,10.06,12,26.94,26.94,0,0,0,12.13,6A6.19,6.19,0,0,0,426,373a11.58,11.58,0,0,0,.5-5.71Z"/><path class="cls-7" d="M608.5,302.05c2.78,2.36,4.74,2.95,6.82-1.08A39.23,39.23,0,0,0,620,282.28c-.07-5.41,0-10.81,0-16.22a12.34,12.34,0,0,1,.21-3.71,19,19,0,0,0,.6-6.17c0-1.36.43-3-.75-4a9.16,9.16,0,0,0-5.21-2.36,16,16,0,0,0-3.31.16,23,23,0,0,0-2.8.71c-3.64,1-4.54,2.21-4.56,6.23,0,.14,0,.28,0,.41a4,4,0,0,0,.75-2.32,2.28,2.28,0,0,1,1.87-1.94c3.39-1,5-.1,5.39,3.52.54,5.08.88,10.18,1.06,15.28.16,4.7,0,9.4,0,14.1a19.05,19.05,0,0,1-2.66,9.05c-.83,1.56-2.12,1.77-3.38.52-2.41-2.4-4.12-5.2-4.08-8.75,0-4,.13-8,.19-12,0-.83,0-1.65,0-2.48-.22.34-.64.68-.64,1-.07,5.82-.18,11.63-.06,17.45C602.67,293.2,606.69,300.5,608.5,302.05Z"/><path class="cls-7" d="M715,313.38a2.74,2.74,0,0,0-.36.75c-.7,1.76.79,6.11,2.45,7a4.22,4.22,0,0,0,1.59.38,13.39,13.39,0,0,0,1.79,0V306.85C718.23,308.7,716.79,311.2,715,313.38Z"/><path class="cls-7" d="M598.12,742.75c-2.26-11.44.13-22.86.24-34.29,0-2.33.69-4.69,3-6-1.72-.3-3.22.66-4.86.83a3.79,3.79,0,0,0-3.11,2.44,25.43,25.43,0,0,0-1.65,4.67c-.95,4.42-1.59,8.92-2.64,13.32-1,4.24-.72,8.5-.76,12.76a9.11,9.11,0,0,0,.35,2.44,50.54,50.54,0,0,0,4.64,11,6.62,6.62,0,0,0,2.86,2.92,6.43,6.43,0,0,0,2.94-2.82,2.36,2.36,0,0,1,1.71-1h0C598.81,747.45,598.57,745.06,598.12,742.75Z"/><path class="cls-7" d="M598.49,729c.28-6.49.61-13,.93-19.46a15,15,0,0,1,2-7.09c-2.35,1.33-3,3.69-3,6-.11,11.43-2.5,22.85-.24,34.29.45,2.31.69,4.7,2.76,6.28h0A60.86,60.86,0,0,1,598.49,729Z"/><path d="M604.49,282.82c.26,3-.37,6.13,1.37,8.89.72,1.15,1.35,2.7,3,2.5,1.42-.17,1.63-1.71,2.07-2.85a22,22,0,0,0,1.3-7.73,226.5,226.5,0,0,0-.9-24.44c-.15-1.78,0-3.87-2.06-4.62s-2.78,1.27-3.87,2.43a1.37,1.37,0,0,1-1.13.38,105.45,105.45,0,0,1-.93,15C605.58,275.62,604.19,279.32,604.49,282.82Z"/><path d="M603.17,286.84c0,3.55,1.67,6.35,4.08,8.75,1.26,1.25,2.55,1,3.38-.52a19.05,19.05,0,0,0,2.66-9.05c0-4.7.19-9.4,0-14.1-.18-5.1-.52-10.2-1.06-15.28-.39-3.62-2-4.5-5.39-3.52a2.28,2.28,0,0,0-1.87,1.94,4,4,0,0,1-.75,2.32,1.37,1.37,0,0,0,1.13-.38c1.09-1.16,1.81-3.19,3.87-2.43s1.91,2.84,2.06,4.62a226.5,226.5,0,0,1,.9,24.44,22,22,0,0,1-1.3,7.73c-.44,1.14-.65,2.68-2.07,2.85-1.63.2-2.26-1.35-3-2.5-1.74-2.76-1.11-5.89-1.37-8.89-.3-3.5,1.09-7.2-1.17-10.48,0,.83.06,1.65,0,2.48C603.3,278.83,603.2,282.84,603.17,286.84Z"/><path class="cls-7" d="M482.65,686.84a6.6,6.6,0,0,0,.68-1h0c-.78-.56-.73-1.41-.86-2.23-.26-1.7-1.56-2.93-3-2.69-3.77.6-7.23,2-9.79,4.92-1.71,2-3.17,4.18-4.78,6.25-2.23,2.88-4.14,5.88-4.13,9.73a5.45,5.45,0,0,1-.4,1.6c-1,2.9.44,5.41,1.3,8a1.06,1.06,0,0,0,1.34.67,21.35,21.35,0,0,0,6.25-2.15c.62-1.67,1.23-3.36,1.88-5A49.16,49.16,0,0,1,482.65,686.84Z"/><path class="cls-40" d="M509.68,284.24c3.12,6,7.1,11.49,10.77,17.15a10.56,10.56,0,0,0,1.38,1.54c2.24,2.25,4.41,4.59,6.77,6.71a48.46,48.46,0,0,0,5.9,4.48c1.68,1.09,2.88.84,4-.72,1.23-1.81,2.47-3.68,2.39-6h0a2.31,2.31,0,0,1-1.56-1.76l0,0h0a1.63,1.63,0,0,1-1.12-1.4c-1.74-1.13-3.44-2.33-5.23-3.38a96.37,96.37,0,0,1-13-8.9,22.38,22.38,0,0,1-6.7-8.85c-.72-1.78-.34-2.58,1.42-3.11a9,9,0,0,1,3.69-.22h0c-.34-.22-.67-.61-1-.63a20.84,20.84,0,0,1-6.12-.8,5,5,0,0,0-2,0,1.7,1.7,0,0,0-1.44,2.42C508.24,281.89,509.05,283,509.68,284.24Z"/><path class="cls-40" d="M356.07,444.48a96.55,96.55,0,0,1,18.91-1.7c3.69.05,6.78.92,9,4a8.12,8.12,0,0,0-1.88-3.63c-3.47-4.55-8.31-6.16-13.72-6.62-4-.34-8,.49-11.91,1.16a54.54,54.54,0,0,0-13,4.18,11,11,0,0,0-1.8,1,1.84,1.84,0,0,0-.48,2.57,15.34,15.34,0,0,0,1.35,1.57c.58.65.17,1.29,0,1.93h0C346.44,445.66,351.38,445.34,356.07,444.48Z"/><path class="cls-40" d="M384,446.82c-2.21-3.12-5.3-4-9-4a96.55,96.55,0,0,0-18.91,1.7c-4.69.86-9.63,1.18-13.52,4.52h0A108,108,0,0,1,373,444.11C379,444,379,444,384,446.82Z"/><path d="M394.93,560h0c-4.76,2.58-10.22,3.17-15.08,5.57-3.72,1.84-7.45,3.65-11.07,5.69-4.89,2.76-5,3-4.4,8.42a11.11,11.11,0,0,0,1.64-.13,40.77,40.77,0,0,0,15.69-7.14c3.54-2.63,7.13-5.21,10.72-7.77,1.64-1.17,1.68-1.13,4.08-.28C397.05,562.51,396.21,561.18,394.93,560Z"/><path d="M368.78,571.27c3.62-2,7.35-3.85,11.07-5.69,4.86-2.4,10.32-3,15.08-5.57a45.22,45.22,0,0,0-6.08,1.1,102.53,102.53,0,0,0-23.13,10.78c-4.11,2.61-4.42,3.76-1.34,7.8C363.76,574.3,363.89,574,368.78,571.27Z"/><path class="cls-41" d="M609.68,356.23c0-5.39,0-5.39-5.16-6.52-.41-.09-.81-.17-1.21-.27-6.68-1.69-8.85-8-4.71-13.64a7.88,7.88,0,0,0-3.28,1.67c-1.81,1.47-2.44,3.56-3.22,5.63-.64,1.68.14,3,.61,4.37a65.81,65.81,0,0,0,2.9,6.82c2,4.25,5.4,6.47,10.16,6.39a9,9,0,0,1,4.4.86h0A16.65,16.65,0,0,1,609.68,356.23Z"/><path class="cls-41" d="M609.35,349.33c-2.16-.42-4.34-.8-6.52-1.12a4.63,4.63,0,0,1-3-1.34c-2.15-2.39-3.42-5-2.14-8.31.35-.9.58-1.84.86-2.76-4.14,5.66-2,11.95,4.71,13.64.4.1.8.18,1.21.27,5.12,1.13,5.13,1.13,5.16,6.52a16.65,16.65,0,0,0,.49,5.31c1.05-3.49.66-7.09.84-10.64C611.05,349.94,610.19,349.49,609.35,349.33Z"/><path d="M517.21,287.63c4.45,5.28,10.33,8.69,16.07,12.26a37.07,37.07,0,0,1,4.83,3.2,8.17,8.17,0,0,1,1.27,1.71c.1.13.2.28.3.42.43-.58.16-1.38.34-2-.84-2.91-3-4.91-5-7-4.27-4.47-8.63-8.87-13-13.26-1.16-1.16-2.49-2.15-3.75-3.22h0C513.65,282.12,513.51,283.23,517.21,287.63Z"/><path d="M514.6,279.93c-1.76.53-2.14,1.33-1.42,3.11a22.38,22.38,0,0,0,6.7,8.85,96.37,96.37,0,0,0,13,8.9c1.79,1,3.49,2.25,5.23,3.38a1.3,1.3,0,0,1,1.12,1.4h0l0,0a1.31,1.31,0,0,0,.4-.37c-.1-.14-.2-.29-.3-.42a8.17,8.17,0,0,0-1.27-1.71,37.07,37.07,0,0,0-4.83-3.2c-5.74-3.57-11.62-7-16.07-12.26-3.7-4.4-3.56-5.51,1.08-7.92A9,9,0,0,0,514.6,279.93Z"/><path d="M401.73,352.38c5.2,2.83,10.24,5.94,15.8,8,3.76,1.39,6.21,4.31,9,6.88a12.91,12.91,0,0,0-5.24-9.87A76.92,76.92,0,0,0,409.06,349a19,19,0,0,0-9.08-2.39h0C398.34,349.2,398.61,350.69,401.73,352.38Z"/><path d="M397.83,351.19a4.89,4.89,0,0,0,1.72,1.07,18.81,18.81,0,0,1,4.71,2.6,41.25,41.25,0,0,0,6.86,3.85c2.14,1,4.31,1.88,6.44,2.86,4.83,2.23,5.3,2.65,7.91,6.88l1.06-1.19h0c-2.79-2.57-5.24-5.49-9-6.88-5.56-2.06-10.6-5.17-15.8-8-3.12-1.69-3.39-3.18-1.75-5.79-.47.26-1,.54-1.43.79C396.55,348.4,396.28,349.69,397.83,351.19Z"/><path d="M719.12,672.16l1.32,1.41v-1.81c-1.43-1.46-2.89-2.9-4.43-4.27-1.8-1.61-2.29-4.49-5.06-5.1,1,1.3,1.53,2.89,2.77,4.07C715.61,668.27,717.33,670.25,719.12,672.16Z"/><path d="M486.7,684.3c-1.31.14-2.24,1.05-3.37,1.53h0c.41,1.29-.44,2.11-1.16,2.92a54.45,54.45,0,0,0-11,18.92c-.33,1-.39,2.32-2,2.26.39,1.18.74,2.37,1.21,3.52.25.65.78,1.3,1.53,1.14a1.84,1.84,0,0,0,1.09-1.11,34.23,34.23,0,0,1,4.73-8.27c4.08-5.81,6.91-12.29,10.1-18.57a3.61,3.61,0,0,0,.24-.79A1.33,1.33,0,0,0,486.7,684.3Z"/><path d="M471.21,707.67a54.45,54.45,0,0,1,11-18.92c.72-.81,1.57-1.63,1.16-2.92a6.6,6.6,0,0,1-.68,1,49.16,49.16,0,0,0-11.52,18.07c-.65,1.66-1.26,3.35-1.88,5C470.82,710,470.88,708.63,471.21,707.67Z"/><path class="cls-42" d="M539.83,305.44l.12.17c.42.52.53,1.2.89,1.74h0c.83-1.6.24-2.94-.82-4.17C540.35,304.05,540.94,305,539.83,305.44Z"/><path class="cls-42" d="M539.83,305.44a2.86,2.86,0,0,1-.55.15,2.31,2.31,0,0,0,1.56,1.76c-.36-.54-.47-1.22-.89-1.74Z"/><path class="cls-42" d="M539.83,305.44c1.11-.43.52-1.39.19-2.26-.18.66.09,1.46-.34,2Z"/><path class="cls-42" d="M539.68,305.22a1.31,1.31,0,0,1-.4.37,2.86,2.86,0,0,0,.55-.15Z"/><path class="cls-26" d="M599.16,473.87a7.26,7.26,0,0,0-1.6,1.88,8.24,8.24,0,0,0-1.35,5.52,18.05,18.05,0,0,0,4,9.82,11.12,11.12,0,0,0,4.29,3.16,4.34,4.34,0,0,0,4.66-.45c4.16-3,5.69-7.27,5.94-12.05-.07-.83-.12-1.52-.2-2.2-.54-4.6-3.63-7-7.58-8.46C603.93,469.8,601.57,472.06,599.16,473.87Z"/><path class="cls-26" d="M614.05,323.37c-.88-1-1.64-.87-2.12.38-1.84,4.79-3.64,9.58-5.45,14.38-.1.25-.27.57-.19.78a1.6,1.6,0,0,0,.64.93,4.14,4.14,0,0,0,2.86,0c2.84-.88,5.75-.66,8.66-.69a26.23,26.23,0,0,0,6.24-.3c-2.73-4.19-5.11-7.91-7.57-11.58A42.68,42.68,0,0,0,614.05,323.37Z"/><path class="cls-26" d="M497.68,655.28c2.79-1.5,5.55-3,8.28-4.63a1.2,1.2,0,0,0,.26-2.07,69.67,69.67,0,0,0-8.58-7.7c-1-.78-1.64-.4-1.73,1-.11,1.78-.17,3.57-.29,6.2.08,1.49.17,3.83.37,6.16C496.08,655.38,496.76,655.78,497.68,655.28Z"/><path class="cls-42" d="M538.14,304.17a1.63,1.63,0,0,0,1.12,1.4h0C538.67,305.28,538.88,304.34,538.14,304.17Z"/><path class="cls-42" d="M538.14,304.17c.74.17.53,1.11,1.12,1.4A1.3,1.3,0,0,0,538.14,304.17Z"/><path d="M652.06,58.37c.15-3.59.21-5.72.21-5.72h11.42s-.09,1.48-.23,4a22.47,22.47,0,1,0-11.4,1.71Z"/><path d="M652.06,58.37c-.4,9.5-1.39,29.27-3.3,47.13a216.54,216.54,0,0,1-9.44,44l29.65.7s-2.6-3.3-5.6-22.56c-2.67-17.13-.65-58,.09-70.94a22.63,22.63,0,0,1-9,1.85A22.08,22.08,0,0,1,652.06,58.37Z"/><path d="M652.27,52.65s-.06,2.13-.21,5.72a22.08,22.08,0,0,0,2.45.14,22.63,22.63,0,0,0,9-1.85c.14-2.53.23-4,.23-4Z"/></g></svg>