<?xml version="1.0" encoding="utf-8"?>
<!-- Generator: Adobe Illustrator 25.4.1, SVG Export Plug-In . SVG Version: 6.00 Build 0)  -->
<svg version="1.1" id="Capa_1" xmlns="http://www.w3.org/2000/svg" xmlns:xlink="http://www.w3.org/1999/xlink" x="0px" y="0px"
	 viewBox="0 0 50 50" style="enable-background:new 0 0 50 50;" xml:space="preserve">
<g>
	<path d="M37.8,29.3H12.2c-1.2,0-2.2-1-2.2-2.2V15.5c0-1.2,1-2.2,2.2-2.2h25.6c1.2,0,2.2,1,2.2,2.2v11.6C40,28.3,39,29.3,37.8,29.3z
		 M12.2,15.3c-0.1,0-0.2,0.1-0.2,0.2v11.6c0,0.1,0.1,0.2,0.2,0.2h25.6c0.1,0,0.2-0.1,0.2-0.2V15.5c0-0.1-0.1-0.2-0.2-0.2H12.2z"/>
</g>
<g>
	<path d="M27.3,36.3h-4.6c-0.6,0-1-0.4-1-1v-7c0-0.6,0.4-1,1-1h4.6c0.6,0,1,0.4,1,1v7C28.3,35.9,27.9,36.3,27.3,36.3z M23.7,34.3
		h2.6v-5h-2.6V34.3z"/>
</g>
<g>
	<path d="M28.5,35.3h-7c-0.6-0.1-1.2,0.4-1.3,1.1c-0.1,0.6,0.4,1.2,1.1,1.3c0.1,0,0.1,0,0.2,0h7c0.6-0.1,1.1-0.6,1.1-1.3
		C29.5,35.8,29,35.4,28.5,35.3z"/>
</g>
</svg>
