<?xml version="1.0" encoding="utf-8"?>
<!-- Generator: Adobe Illustrator 25.4.1, SVG Export Plug-In . SVG Version: 6.00 Build 0)  -->
<svg version="1.1" id="Capa_1" xmlns="http://www.w3.org/2000/svg" xmlns:xlink="http://www.w3.org/1999/xlink" x="0px" y="0px"
	 viewBox="0 0 50 50" style="enable-background:new 0 0 50 50;" xml:space="preserve">
<style type="text/css">
	.st0{fill:none;stroke:#000000;stroke-width:0.73;stroke-miterlimit:10;}
</style>
<circle class="st0" cx="16.3" cy="31" r="1.7"/>
<circle class="st0" cx="30.1" cy="31" r="1.7"/>
<path class="st0" d="M38.8,17.9v9.7h-0.9V31h-5.3c0-0.6-0.3-1.3-0.7-1.7c-0.5-0.5-1.1-0.7-1.7-0.7c-1.4,0-2.5,1.1-2.5,2.4h-8.9
	c0-0.1,0-0.2,0-0.4c0-0.1,0-0.2,0-0.2L18.5,30l-0.1-0.2l-0.1-0.2l-0.1-0.1c0-0.1-0.1-0.1-0.2-0.2c-0.1-0.1-0.3-0.2-0.4-0.3l-0.1,0
	c-0.1-0.1-0.2-0.1-0.3-0.1c-0.1,0-0.2-0.1-0.4-0.1h-0.2c-0.1,0-0.2,0-0.4,0c-1.3,0-2.4,1-2.5,2.3H12v-3.4h-0.9v-3.5l3.3-6.5
	c0.1-0.2,0.4-0.4,0.6-0.4h23C38.4,17.2,38.7,17.5,38.8,17.9C38.7,17.9,38.8,17.9,38.8,17.9z"/>
<rect x="37.9" y="27.6" class="st0" width="1.7" height="3.5"/>
<rect x="10.3" y="27.6" class="st0" width="1.7" height="3.5"/>
<path class="st0" d="M13.7,24.1h3.7c0.4,0,0.7-0.3,0.7-0.7c0,0,0,0,0,0v-4.5c0-0.4-0.3-0.7-0.7-0.7c0,0,0,0,0,0h-1.6
	c-0.3,0-0.5,0.2-0.6,0.4l-2.1,4.5c-0.2,0.3,0,0.8,0.3,0.9C13.5,24.1,13.6,24.1,13.7,24.1z"/>
<path class="st0" d="M20.2,18.2h3.6c0.4,0,0.7,0.3,0.7,0.7v4.5c0,0.4-0.3,0.7-0.7,0.7h-3.6c-0.4,0-0.7-0.3-0.7-0.7v-4.5
	C19.5,18.5,19.8,18.2,20.2,18.2z"/>
<path class="st0" d="M26.6,18.2h3.6c0.4,0,0.7,0.3,0.7,0.7v4.5c0,0.4-0.3,0.7-0.7,0.7h-3.6c-0.4,0-0.7-0.3-0.7-0.7v-4.5
	C25.9,18.5,26.2,18.2,26.6,18.2z"/>
<path class="st0" d="M33,18.2h3.6c0.4,0,0.7,0.3,0.7,0.7v4.5c0,0.4-0.3,0.7-0.7,0.7H33c-0.4,0-0.7-0.3-0.7-0.7v-4.5
	C32.3,18.5,32.6,18.2,33,18.2z"/>
</svg>
