<?xml version="1.0" encoding="utf-8"?>
<!-- Generator: Adobe Illustrator 25.4.1, SVG Export Plug-In . SVG Version: 6.00 Build 0)  -->
<svg version="1.1" id="Capa_1" xmlns="http://www.w3.org/2000/svg" xmlns:xlink="http://www.w3.org/1999/xlink" x="0px" y="0px"
	 viewBox="0 0 50 50" style="enable-background:new 0 0 50 50;" xml:space="preserve">
<g>
	<path d="M40.4,5.7H33V5.6V4.8c0-1.1-0.8-1.9-1.9-1.9H19c-0.9,0-1.9,0.9-1.9,1.9v0.8v0.1H9.6c-1.1,0-1.9,0.8-1.9,1.9v2.6
		c0,0.8,0.5,1.5,1.2,1.7l4.8,32.7c0.3,1.5,1.5,2.5,2.8,2.5h16.9c1.5,0,2.6-1.1,2.8-2.5l4.8-32.7c0.7-0.3,1.1-0.9,1.1-1.7V7.5
		C42.2,6.6,41.4,5.7,40.4,5.7z M16.6,44.4c-0.1,0-0.2,0-0.2,0l0-0.2L11.8,13h26.5l-4.6,31.1c0,0.1-0.1,0.2-0.2,0.2H16.6z"/>
	<path d="M26.4,18.4V39c0,0.5-0.5,1.1-1.1,1.1h-0.5c-0.5,0-1.1-0.5-1.1-1.1V18.4c0-0.5,0.5-1.1,1.1-1.1h0.5
		C25.8,17.5,26.4,17.9,26.4,18.4z"/>
	<path d="M34,18.4L31.5,39c0,0.5-0.5,1.1-1.1,1.1h-0.5c-0.5,0-1.1-0.5-1.1-1.1l2.5-20.6c0-0.5,0.5-1.1,1.1-1.1H33
		C33.5,17.5,34,17.9,34,18.4z"/>
	<path d="M21.1,39c0,0.5-0.5,1.1-1.1,1.1h-0.5c-0.5,0-1.1-0.5-1.1-1.1L16,18.4c0-0.5,0.5-1.1,1.1-1.1h0.5c0.5,0,1.1,0.5,1.1,1.1
		L21.1,39z"/>
</g>
</svg>
