<?xml version="1.0" encoding="utf-8"?>
<!-- Generator: Adobe Illustrator 25.4.1, SVG Export Plug-In . SVG Version: 6.00 Build 0)  -->
<svg version="1.1" id="Capa_1" xmlns="http://www.w3.org/2000/svg" xmlns:xlink="http://www.w3.org/1999/xlink" x="0px" y="0px"
	 viewBox="0 0 50 50" style="enable-background:new 0 0 50 50;" xml:space="preserve">
<style type="text/css">
	.st0{fill:none;stroke:#000000;stroke-width:1.25;stroke-miterlimit:10;}
</style>
<circle class="st0" cx="15.5" cy="30.5" r="1.8"/>
<path class="st0" d="M39,26.9v3.6h-6.5c0-0.7-0.3-1.3-0.8-1.8c-1-1-2.6-1-3.6,0c-0.5,0.5-0.8,1.1-0.8,1.8h-9.3c0-0.1,0-0.3,0-0.4
	c0-0.1,0-0.2-0.1-0.2c0-0.1-0.1-0.2-0.1-0.4c0-0.1-0.1-0.2-0.2-0.3c-0.1-0.2-0.2-0.3-0.4-0.5c-0.1-0.1-0.2-0.2-0.4-0.3
	c-0.1-0.1-0.1-0.1-0.2-0.1c-0.2-0.1-0.4-0.2-0.6-0.2h-0.2c-0.1,0-0.3,0-0.4,0c-1.4,0-2.6,1.2-2.6,2.6h-2.9v-3.7l3.6-7.2h7.2v7.2H39z
	"/>
<circle class="st0" cx="30" cy="30.5" r="1.8"/>
<rect x="38.1" y="26.9" class="st0" width="1.8" height="3.6"/>
<path class="st0" d="M14.1,24.3h4.3c0.4,0,0.7-0.3,0.7-0.7V22c0-0.4-0.3-0.7-0.7-0.7h-3.5c-0.3,0-0.5,0.2-0.6,0.4l-0.9,1.6
	c-0.1,0.4,0.1,0.8,0.4,0.9C13.9,24.3,14,24.3,14.1,24.3z"/>
<rect x="22.5" y="16.1" class="st0" width="16.5" height="9.3"/>
</svg>
