<?xml version="1.0" encoding="utf-8"?>
<!-- Generator: Adobe Illustrator 25.4.1, SVG Export Plug-In . SVG Version: 6.00 Build 0)  -->
<svg version="1.1" id="Capa_1" xmlns="http://www.w3.org/2000/svg" xmlns:xlink="http://www.w3.org/1999/xlink" x="0px" y="0px"
	 viewBox="0 0 50 50" style="enable-background:new 0 0 50 50;" xml:space="preserve">
<style type="text/css">
	.st0{fill:#F1E323;}
</style>
<g>
	<path class="st0" d="M46.3,24H24.1V9.9h22.1L46.3,24L46.3,24z M25,23.1h20.3V10.8H25V23.1z"/>
</g>
<g>
	<path class="st0" d="M36.6,39.2l-2.8-2.1V23.1h2.8V39.2z M34.6,36.6l1,0.7V24h-1V36.6z"/>
</g>
<g>
	<path class="st0" d="M47.1,45.3H2.6l20.3-14.1h3.9L47.1,45.3z M5.5,44.4h38.6L26.5,32.1h-3.3L5.5,44.4z"/>
</g>
<g>
	<rect x="24.7" y="31.7" class="st0" width="0.5" height="1"/>
</g>
<g>
	<polygon class="st0" points="25.5,35.4 24.2,35.4 24.4,33.2 25.3,33.2 	"/>
</g>
<g>
	<polygon class="st0" points="26.1,39.5 23.6,39.5 24.3,36.2 25.4,36.2 	"/>
</g>
<g>
	<polygon class="st0" points="26.5,44.9 23.1,44.9 24,40.4 25.6,40.4 	"/>
</g>
</svg>
