<?xml version="1.0" encoding="utf-8"?>
<!-- Generator: Adobe Illustrator 25.4.1, SVG Export Plug-In . SVG Version: 6.00 Build 0)  -->
<svg version="1.1" id="Capa_1" xmlns="http://www.w3.org/2000/svg" xmlns:xlink="http://www.w3.org/1999/xlink" x="0px" y="0px"
	 viewBox="0 0 50 50" style="enable-background:new 0 0 50 50;" xml:space="preserve">
<style type="text/css">
	.st0{fill:#F1E323;}
</style>
<g>
	<path class="st0" d="M3.4,24L3.5,9.9h22.1V24H3.4L3.4,24z M24.7,10.8H4.4v12.3h20.3V10.8z"/>
</g>
<g>
	<path class="st0" d="M13.1,23.1h2.8l0,14l-2.8,2.1L13.1,23.1z M15.1,24h-1l0,13.3l1-0.7L15.1,24z"/>
</g>
<g>
	<path class="st0" d="M22.9,31.2h3.9l20.3,14.1H2.6L22.9,31.2z M26.5,32.1h-3.3L5.6,44.4h38.6L26.5,32.1z"/>
</g>
<g>
	<rect x="24.5" y="31.7" class="st0" width="0.5" height="1"/>
</g>
<g>
	<polygon class="st0" points="24.4,33.2 25.3,33.2 25.5,35.4 24.2,35.4 	"/>
</g>
<g>
	<polygon class="st0" points="24.3,36.2 25.4,36.2 26.1,39.5 23.6,39.5 	"/>
</g>
<g>
	<polygon class="st0" points="24.1,40.4 25.7,40.4 26.6,44.9 23.2,44.9 	"/>
</g>
</svg>
