<?xml version="1.0" encoding="utf-8"?>
<!-- Generator: Adobe Illustrator 28.3.0, SVG Export Plug-In . SVG Version: 6.00 Build 0)  -->
<svg version="1.1" id="ICONOS" xmlns="http://www.w3.org/2000/svg" xmlns:xlink="http://www.w3.org/1999/xlink" x="0px" y="0px"
	 viewBox="0 0 50 50" style="enable-background:new 0 0 50 50;" xml:space="preserve">
<style type="text/css">
	.st0{fill:none;stroke:#000000;stroke-width:2;stroke-miterlimit:10;}
	.st1{fill:none;stroke:#000000;stroke-width:2;stroke-linecap:round;stroke-linejoin:round;stroke-miterlimit:10;}
	.st2{fill:#C0C0C0;stroke:#000000;stroke-width:2;stroke-miterlimit:10;}
	.st3{fill:none;stroke:#000000;stroke-width:2;stroke-linecap:round;}
	.st4{fill:none;stroke:#000000;stroke-width:2;}
	.st5{fill-rule:evenodd;clip-rule:evenodd;fill:none;stroke:#000000;stroke-width:2;stroke-linecap:round;stroke-linejoin:round;}
	.st6{fill:none;stroke:#000000;stroke-width:2;stroke-linecap:round;stroke-miterlimit:10;}
	.st7{fill-rule:evenodd;clip-rule:evenodd;fill:none;stroke:#000000;stroke-width:2;stroke-linecap:round;}
	.st8{fill:none;stroke:#000000;stroke-width:2;stroke-linecap:round;stroke-linejoin:round;}
	.st9{fill:none;stroke:#000000;stroke-linecap:round;stroke-linejoin:round;stroke-miterlimit:10;}
	.st10{fill:#C0C0C0;stroke:#000000;stroke-linecap:round;stroke-linejoin:round;stroke-miterlimit:10;}
	.st11{fill:#C0C0C0;stroke:#000000;stroke-width:2;stroke-linecap:round;stroke-linejoin:round;stroke-miterlimit:10;}
	.st12{fill:none;stroke:#000000;stroke-miterlimit:10;}
	.st13{fill:#C0C0C0;stroke:#000000;stroke-width:2;stroke-linecap:round;stroke-miterlimit:10;}
	.st14{fill:none;stroke:#000000;stroke-width:2;stroke-linejoin:round;}
	.st15{fill:none;stroke:#000000;stroke-width:2;stroke-linejoin:round;stroke-miterlimit:10;}
	.st16{fill:none;}
	.st17{fill:none;stroke:#252525;stroke-width:2;stroke-linejoin:round;stroke-miterlimit:10;}
	.st18{fill:none;stroke:#252525;stroke-width:2;stroke-linecap:round;stroke-linejoin:round;stroke-miterlimit:10;}
</style>
<line class="st1" x1="25" y1="6.17" x2="25" y2="44.01"/>
<path class="st1" d="M25,32.5l16.13,3.23V15.68c0-0.76-0.42-1.45-1.09-1.8L25.76,6.4c-0.48-0.25-1.05-0.3-1.57-0.13l-13.6,4.38
	c-0.84,0.27-1.41,1.05-1.41,1.94v23.06L25,32.5z"/>
<path class="st1" d="M25,32.5L7.66,35.94c-0.94,0.19-1.62,1.01-1.62,1.97V42c0,1.11,0.9,2.01,2.01,2.01h33.9
	c1.11,0,2.01-0.9,2.01-2.01v-4.05c0-0.96-0.68-1.78-1.62-1.97L25,32.5z"/>
<line class="st1" x1="9.18" y1="19.28" x2="25" y2="14.83"/>
<line class="st1" x1="9.18" y1="27.46" x2="25" y2="23.67"/>
<polygon class="st1" points="17.5,39.02 12.5,40 12.5,44.01 17.5,44.01 "/>
<line class="st1" x1="38.37" y1="17.08" x2="35.68" y2="15.69"/>
<line class="st1" x1="31.18" y1="13.59" x2="28.3" y2="12.27"/>
<line class="st1" x1="30" y1="8.62" x2="30" y2="12.93"/>
<line class="st1" x1="37.47" y1="12.53" x2="37.47" y2="16.61"/>
</svg>
